<svg width="510" height="450" viewBox="0 0 510 450" fill="none" xmlns="http://www.w3.org/2000/svg">
<g clip-path="url(#clip0_222_20612)">
<g filter="url(#filter0_d_222_20612)">
<path d="M0 77.4209C0 63.6138 11.1929 52.4209 25 52.4209H475C488.807 52.4209 500 63.6138 500 77.4209V344.625C500 355.532 492.929 365.18 482.528 368.465L257.528 439.517C252.629 441.064 247.371 441.064 242.472 439.517L17.4717 368.465C7.07098 365.18 0 355.532 0 344.625V77.4209Z" fill="#F0F6F9"/>
</g>
<g opacity="0.25">
<path d="M55.2803 236.542L230.195 183.561C244.439 179.218 259.653 179.218 273.896 183.561L448.811 236.542C451.032 237.205 452.981 238.567 454.366 240.427C455.752 242.286 456.5 244.543 456.5 246.862C456.5 249.182 455.752 251.439 454.366 253.298C452.981 255.158 451.032 256.52 448.811 257.182L273.896 310.164C259.653 314.507 244.439 314.507 230.195 310.164L55.2803 257.182C53.0587 256.52 51.1103 255.158 49.7249 253.298C48.3394 251.439 47.5911 249.182 47.5911 246.862C47.5911 244.543 48.3394 242.286 49.7249 240.427C51.1103 238.567 53.0587 237.205 55.2803 236.542V236.542Z" fill="#051022"/>
</g>
<path d="M36.2984 217.589L234.319 140.055C244.401 136.111 255.597 136.111 265.678 140.055L463.664 217.589C465.002 218.119 466.151 219.038 466.96 220.229C467.769 221.419 468.202 222.826 468.202 224.266C468.202 225.706 467.769 227.112 466.96 228.303C466.151 229.494 465.002 230.413 463.664 230.942L265.678 308.441C255.597 312.385 244.401 312.385 234.319 308.441L36.2984 230.799C34.5642 230.102 33.1703 228.755 32.4132 227.046C31.656 225.336 31.5953 223.399 32.244 221.645C32.6048 220.727 33.1511 219.893 33.8487 219.195C34.5463 218.497 35.3802 217.95 36.2984 217.589V217.589Z" fill="url(#paint0_linear_222_20612)"/>
<path d="M336.721 220.03C324.761 223.691 313.411 227.556 302.671 231.624C262.209 247.387 223.292 266.866 186.421 289.811C162.453 280.478 185.775 289.452 157.717 278.611C182.569 262.817 206.717 248.937 230.158 236.972C221.368 232.449 212.792 228.286 204.36 224.445C185.225 215.758 152.514 204.343 106.229 190.2L143.939 175.447C176.781 186.599 200.378 195.477 214.73 202.082C224.872 206.676 235.241 211.762 245.838 217.337L256.602 223.081L255.74 224.66C268.729 218.701 281.478 213.365 293.988 208.651C321.014 198.606 348.649 190.285 376.727 183.739C417.2 199.785 375.938 183.739 418.24 199.964C396.712 204.2 376.381 208.914 357.245 214.107C382.202 222.728 406.683 232.673 430.583 243.9C415.227 250.038 429.578 244.654 414.724 250.146C389.279 238.723 363.241 228.67 336.721 220.03V220.03Z" fill="white"/>
<g opacity="0.25">
<g style="mix-blend-mode:multiply">
<path d="M251.185 243.291C276.311 243.291 296.681 236.46 296.681 228.035C296.681 219.609 276.311 212.779 251.185 212.779C226.058 212.779 205.689 219.609 205.689 228.035C205.689 236.46 226.058 243.291 251.185 243.291Z" fill="url(#paint1_radial_222_20612)"/>
</g>
</g>
<path d="M257.57 229.973C313.328 185.056 341.206 138.667 341.206 90.8058C341.206 66.8343 331.688 43.8445 314.745 26.894C297.802 9.94357 274.822 0.420898 250.861 0.420898C226.9 0.420898 203.92 9.94357 186.977 26.894C170.034 43.8445 160.515 66.8343 160.515 90.8058C160.515 139.049 188.382 185.462 244.115 230.045C246.033 231.564 248.41 232.384 250.855 232.371C253.301 232.358 255.669 231.512 257.57 229.973V229.973Z" fill="url(#paint2_linear_222_20612)"/>
<path d="M250.862 161.305C289.424 161.305 320.684 130.031 320.684 91.4523C320.684 52.8737 289.424 21.5996 250.862 21.5996C212.3 21.5996 181.04 52.8737 181.04 91.4523C181.04 130.031 212.3 161.305 250.862 161.305Z" fill="black"/>
<path d="M250.862 161.305C289.424 161.305 320.684 130.031 320.684 91.4523C320.684 52.8737 289.424 21.5996 250.862 21.5996C212.3 21.5996 181.04 52.8737 181.04 91.4523C181.04 130.031 212.3 161.305 250.862 161.305Z" fill="white"/>
<path d="M207.553 59.7566C206.601 59.7566 205.689 60.1348 205.016 60.8079C204.343 61.4811 203.965 62.3941 203.965 63.3461V108.144C203.965 109.096 204.343 110.009 205.016 110.682C205.689 111.355 206.601 111.733 207.553 111.733H214.98C215.388 108.566 216.935 105.656 219.332 103.547C221.729 101.437 224.812 100.274 228.005 100.274C231.197 100.274 234.28 101.437 236.677 103.547C239.074 105.656 240.621 108.566 241.029 111.733H255.919C256.871 111.733 257.783 111.355 258.456 110.682C259.129 110.009 259.507 109.096 259.507 108.144V63.4538C259.507 62.5018 259.129 61.5888 258.456 60.9156C257.783 60.2425 256.871 59.8643 255.919 59.8643L207.553 59.7566ZM267.114 70.9201C266.162 70.9201 265.249 71.2983 264.577 71.9715C263.904 72.6446 263.526 73.5576 263.526 74.5096V108C263.526 108.952 263.904 109.865 264.577 110.538C265.249 111.212 266.162 111.59 267.114 111.59C267.522 108.417 269.067 105.5 271.463 103.381C273.858 101.262 276.941 100.085 280.138 100.067C283.353 100.022 286.47 101.177 288.878 103.308C291.287 105.439 292.814 108.392 293.162 111.59H296.75C297.702 111.59 298.615 111.212 299.288 110.538C299.96 109.865 300.338 108.952 300.338 108V93.2471C299.983 90.5538 298.946 87.9961 297.325 85.8167L289.431 74.6532C287.565 72.3918 286.453 71.0637 283.87 71.0637L267.114 70.9201ZM274.541 78.3505H283.511C284.074 78.433 284.599 78.6832 285.018 79.0684L292.804 89.837C293.612 90.7985 294.134 91.9676 294.311 93.2112H274.541V78.3505ZM228.04 105.164C226.336 105.164 224.67 105.671 223.253 106.619C221.836 107.567 220.732 108.915 220.081 110.491C219.431 112.067 219.262 113.801 219.597 115.473C219.933 117.145 220.756 118.68 221.964 119.884C223.172 121.087 224.71 121.905 226.383 122.233C228.055 122.561 229.788 122.386 231.361 121.728C232.934 121.071 234.276 119.961 235.218 118.539C236.16 117.118 236.659 115.449 236.652 113.743C236.642 111.465 235.731 109.283 234.117 107.675C232.503 106.067 230.318 105.164 228.04 105.164V105.164ZM280.138 105.164C278.433 105.164 276.767 105.671 275.35 106.619C273.933 107.567 272.83 108.915 272.179 110.491C271.528 112.067 271.36 113.801 271.695 115.473C272.03 117.145 272.854 118.68 274.062 119.884C275.27 121.087 276.807 121.905 278.48 122.233C280.153 122.561 281.886 122.386 283.458 121.728C285.031 121.071 286.374 119.961 287.315 118.539C288.257 117.118 288.756 115.449 288.749 113.743C288.74 111.465 287.828 109.283 286.214 107.675C284.601 106.067 282.416 105.164 280.138 105.164V105.164Z" fill="url(#paint3_linear_222_20612)"/>
</g>
<defs>
<filter id="filter0_d_222_20612" x="-3" y="49.4209" width="514" height="402.257" filterUnits="userSpaceOnUse" color-interpolation-filters="sRGB">
<feFlood flood-opacity="0" result="BackgroundImageFix"/>
<feColorMatrix in="SourceAlpha" type="matrix" values="0 0 0 0 0 0 0 0 0 0 0 0 0 0 0 0 0 0 127 0" result="hardAlpha"/>
<feOffset dx="4" dy="4"/>
<feGaussianBlur stdDeviation="3.5"/>
<feComposite in2="hardAlpha" operator="out"/>
<feColorMatrix type="matrix" values="0 0 0 0 0 0 0 0 0 0 0 0 0 0 0 0 0 0 0.25 0"/>
<feBlend mode="normal" in2="BackgroundImageFix" result="effect1_dropShadow_222_20612"/>
<feBlend mode="normal" in="SourceGraphic" in2="effect1_dropShadow_222_20612" result="shape"/>
</filter>
<linearGradient id="paint0_linear_222_20612" x1="249.921" y1="138.557" x2="245.492" y2="306.769" gradientUnits="userSpaceOnUse">
<stop stop-color="#A2E600"/>
<stop offset="1" stop-color="#69C800"/>
</linearGradient>
<radialGradient id="paint1_radial_222_20612" cx="0" cy="0" r="1" gradientUnits="userSpaceOnUse" gradientTransform="translate(251.185 228.035) rotate(90) scale(15.2556 45.4957)">
<stop stop-color="#1A2D50"/>
<stop offset="1" stop-color="#1A2D50" stop-opacity="0"/>
</radialGradient>
<linearGradient id="paint2_linear_222_20612" x1="251.017" y1="2.8819" x2="251.017" y2="234.157" gradientUnits="userSpaceOnUse">
<stop stop-color="#6EA3FF"/>
<stop offset="1" stop-color="#3E84FF"/>
</linearGradient>
<linearGradient id="paint3_linear_222_20612" x1="252.351" y1="56.246" x2="252.351" y2="118.848" gradientUnits="userSpaceOnUse">
<stop stop-color="#2E63A5"/>
<stop offset="1" stop-color="#11336F"/>
</linearGradient>
<clipPath id="clip0_222_20612">
<rect width="510" height="450" fill="white"/>
</clipPath>
</defs>
</svg>
