<svg width="90" height="90" viewBox="0 0 90 90" fill="none" xmlns="http://www.w3.org/2000/svg">
<path d="M18.8654 74.3783L27.3808 77.904C29.1745 73.4756 32.2166 71.2423 36.8385 71.5208C40.1546 71.7215 42.6883 73.8053 44.4468 77.69C47.4332 76.9574 50.238 75.7733 52.9724 74.1819C51.189 70.1653 51.7518 66.5809 54.958 63.3512L56.7165 65.8189C55.6321 67.0205 54.9273 68.3643 54.9229 70.0099C54.9165 71.2627 55.3063 72.4854 56.0366 73.5034C56.8293 74.642 56.6667 75.4084 55.5046 76.1411C51.9574 78.4034 48.0436 80.0313 43.9383 80.952C42.5608 81.2627 41.9116 80.8172 41.6523 79.4046C41.1145 76.4738 38.742 74.4662 35.8332 74.4823C32.9859 74.4999 30.6457 76.5207 30.1182 79.4163C29.8573 80.8538 29.2624 81.2334 27.8219 80.911C23.7167 79.9963 19.8049 78.3653 16.2658 76.0928C15.0598 75.3205 14.9118 74.6274 15.6914 73.4668C17.3737 70.9507 17.148 67.9833 15.1214 65.9449C13.0698 63.8817 10.0877 63.6487 7.52769 65.3588C6.43305 66.0915 5.66371 65.9273 4.95007 64.8122C2.64557 61.2153 0.995977 57.239 0.0776405 53.0671C-0.197853 51.8347 0.254953 51.1796 1.51372 50.9481C4.55588 50.3898 6.56493 48.0759 6.55614 45.1422C6.54735 42.2085 4.54269 39.9562 1.45657 39.3891C0.24323 39.1664 -0.189061 38.4806 0.0922944 37.2247C1.00858 33.0867 2.64811 29.1429 4.93542 25.5748C5.72526 24.3395 6.40081 24.2047 7.6376 25.0239C9.66423 26.3691 11.7891 26.52 13.8948 25.3169C15.9303 24.1549 16.9883 22.3012 16.7787 19.9624C16.6835 18.8985 16.1926 17.8215 15.6811 16.8558C15.0598 15.6834 15.1184 14.9947 16.2424 14.2693C19.8322 11.9567 23.8055 10.3023 27.9758 9.38373C29.214 9.10677 29.8808 9.55811 30.1065 10.7993C30.6545 13.8371 32.9713 15.8608 35.9021 15.8564C38.8329 15.852 41.1115 13.8371 41.6713 10.7744C41.8882 9.58742 42.5652 9.1097 43.7331 9.36614C47.9989 10.2899 52.0605 11.9838 55.7186 14.3646C56.7194 15.0167 56.863 15.764 56.23 16.7385C54.4085 19.5462 54.5551 21.885 56.7795 24.5711L55.0709 26.8175C52.2309 25.1382 51.4074 21.0248 52.9417 16.1201C50.3019 14.5243 47.4366 13.3357 44.4424 12.5944C44.2958 12.9227 44.1845 13.2011 44.0643 13.4736C42.6429 16.7473 39.419 18.919 35.8742 18.8062C32.1038 18.686 29.3899 16.8455 27.8615 13.3842C27.5684 12.7234 27.3251 12.5827 26.6364 12.7908C23.9489 13.6026 21.3756 14.6562 18.9621 16.1333C20.6517 20.0137 20.303 23.6068 17.2799 26.583C14.3183 29.4992 10.775 29.8069 6.94593 28.1495C5.31349 30.7872 4.1822 33.6198 3.37917 36.6488C7.43684 38.2827 9.77853 41.1666 9.56166 45.6361C9.36969 49.6043 7.10126 52.1468 3.39529 53.6063C4.1412 56.6134 5.33149 59.4923 6.92688 62.1481C10.8014 60.4849 14.4004 60.7897 17.3781 63.8113C20.2986 66.7729 20.6327 70.3074 18.8654 74.3783Z" fill="url(#paint0_linear_222_16890)"/>
<path d="M73.2591 24.2546C72.2421 24.2546 71.3277 24.3571 70.4529 24.2165C69.9136 24.13 69.2264 23.7768 68.9875 23.3372C68.7765 22.946 68.9113 22.1371 69.2029 21.7399C72.0971 17.8054 75.0279 13.906 77.9762 10.0139C78.7001 9.05844 79.7743 9.05405 80.4967 10.0139C83.4627 13.9323 86.4198 17.8581 89.3184 21.8264C89.6012 22.2133 89.6715 23.0251 89.4532 23.4383C89.2348 23.8516 88.5534 24.1593 88.0347 24.234C87.1554 24.3615 86.2425 24.2692 85.2182 24.2692V25.4034C85.2182 35.2655 85.2182 45.1271 85.2182 54.9882C85.2182 56.7027 84.7786 57.1394 83.0729 57.1394C80.4889 57.1394 77.9054 57.1394 75.3224 57.1394C73.7281 57.1394 73.2606 56.6749 73.2606 55.0879C73.2606 45.2209 73.2606 35.3593 73.2606 25.5031L73.2591 24.2546ZM82.2273 54.0914V52.9191C82.2273 43.1498 82.2273 33.3771 82.2273 23.601C82.2273 23.3211 82.2127 23.0397 82.2273 22.7613C82.2933 21.8704 82.8237 21.3311 83.7132 21.274C84.1529 21.2461 84.5925 21.274 85.2138 21.274L79.2365 13.3066L73.2958 21.2285C73.605 21.2505 73.7281 21.2637 73.8511 21.2652C75.9657 21.3018 76.2485 21.5919 76.2485 23.727V54.0914H82.2273Z" fill="url(#paint1_linear_222_16890)"/>
<path d="M70.2699 42.2788C70.2699 46.5773 70.2699 50.8724 70.2699 55.164C70.2699 56.6294 69.7702 57.1218 68.3062 57.1232C65.5962 57.1232 62.8867 57.1232 60.1777 57.1232C58.8383 57.1232 58.3152 56.5957 58.3137 55.2549C58.3137 46.5387 58.3137 37.8235 58.3137 29.1093C58.3137 27.7685 58.8383 27.2483 60.1806 27.2454C62.9229 27.2385 65.6636 27.2385 68.4029 27.2454C69.7423 27.2454 70.2669 27.7714 70.2684 29.1123C70.2733 33.5016 70.2738 37.8905 70.2699 42.2788ZM61.3661 30.2729V54.0591H67.2277V30.2729H61.3661Z" fill="url(#paint2_linear_222_16890)"/>
<path d="M43.3623 45.1656C43.3623 41.8353 43.3623 38.5049 43.3623 35.1746C43.3623 33.7092 43.8561 33.2227 45.3274 33.2212C48.0374 33.2212 50.7464 33.2212 53.4545 33.2212C54.7924 33.2212 55.3155 33.7487 55.317 35.0925C55.317 41.8157 55.317 48.5389 55.317 55.2622C55.317 56.5971 54.7865 57.1188 53.4442 57.1232C50.702 57.131 47.9612 57.131 45.2219 57.1232C43.8855 57.1232 43.3652 56.5942 43.3623 55.2504C43.3574 51.8888 43.3574 48.5272 43.3623 45.1656ZM46.4162 36.2575V54.062H52.2778V36.2575H46.4162Z" fill="url(#paint3_linear_222_16890)"/>
<path d="M28.414 48.1608C28.414 45.7957 28.414 43.4291 28.414 41.0639C28.414 39.7216 28.9371 39.2014 30.2794 39.1985C33.0197 39.1916 35.76 39.1916 38.5003 39.1985C39.8411 39.1985 40.3672 39.7231 40.3687 41.0625C40.3745 45.7927 40.3745 50.5235 40.3687 55.2548C40.3687 56.5942 39.8411 57.1188 38.5017 57.1232C35.7663 57.131 33.0261 57.131 30.2809 57.1232C28.9401 57.1232 28.4184 56.5971 28.414 55.2563C28.4081 52.8911 28.414 50.526 28.414 48.1608ZM31.4459 54.0722H37.3074V42.2333H31.4459V54.0722Z" fill="url(#paint4_linear_222_16890)"/>
<path d="M15.3866 40.8707C15.2077 40.8875 15.0277 40.8875 14.8488 40.8707C14.0897 40.7241 13.3351 40.563 12.4382 40.3783C14.1864 32.8872 18.2895 27.2704 25.1197 23.8531C32.7295 20.0431 40.3202 20.4373 47.8641 24.4173C47.3219 25.3551 46.8471 26.1757 46.3723 26.9964C33.3845 19.8789 18.1547 27.5708 15.3866 40.8707Z" fill="url(#paint5_linear_222_16890)"/>
<path d="M46.3606 63.3277L47.8568 65.9112C40.7188 69.7212 33.4315 70.2561 26.0649 66.9472C18.7233 63.6516 14.2934 57.8735 12.3884 49.9721L15.3734 49.386C17.044 56.2455 20.9126 61.3084 27.309 64.1996C33.7055 67.0909 40.0653 66.6424 46.3606 63.3277Z" fill="url(#paint6_linear_222_16890)"/>
<path d="M12.0483 43.5537L14.8941 43.8175V46.5241L12.0483 46.7922V43.5537Z" fill="url(#paint7_linear_222_16890)"/>
<defs>
<linearGradient id="paint0_linear_222_16890" x1="28.3898" y1="9.29883" x2="28.3898" y2="81.046" gradientUnits="userSpaceOnUse">
<stop stop-color="#023298"/>
<stop offset="0.440625" stop-color="#2D7BFF"/>
<stop offset="1" stop-color="#58C38F"/>
</linearGradient>
<linearGradient id="paint1_linear_222_16890" x1="79.2331" y1="9.29565" x2="79.2331" y2="57.1394" gradientUnits="userSpaceOnUse">
<stop stop-color="#023298"/>
<stop offset="0.440625" stop-color="#2D7BFF"/>
<stop offset="1" stop-color="#58C38F"/>
</linearGradient>
<linearGradient id="paint2_linear_222_16890" x1="64.2931" y1="27.2402" x2="64.2931" y2="57.1232" gradientUnits="userSpaceOnUse">
<stop stop-color="#023298"/>
<stop offset="0.440625" stop-color="#2D7BFF"/>
<stop offset="1" stop-color="#58C38F"/>
</linearGradient>
<linearGradient id="paint3_linear_222_16890" x1="49.3378" y1="33.2212" x2="49.3378" y2="57.1291" gradientUnits="userSpaceOnUse">
<stop stop-color="#023298"/>
<stop offset="0.440625" stop-color="#2D7BFF"/>
<stop offset="1" stop-color="#58C38F"/>
</linearGradient>
<linearGradient id="paint4_linear_222_16890" x1="34.3922" y1="39.1934" x2="34.3922" y2="57.129" gradientUnits="userSpaceOnUse">
<stop stop-color="#023298"/>
<stop offset="0.440625" stop-color="#2D7BFF"/>
<stop offset="1" stop-color="#58C38F"/>
</linearGradient>
<linearGradient id="paint5_linear_222_16890" x1="30.1512" y1="21.2029" x2="30.1512" y2="40.8833" gradientUnits="userSpaceOnUse">
<stop stop-color="#023298"/>
<stop offset="0.440625" stop-color="#2D7BFF"/>
<stop offset="1" stop-color="#58C38F"/>
</linearGradient>
<linearGradient id="paint6_linear_222_16890" x1="30.1226" y1="49.386" x2="30.1226" y2="69.1312" gradientUnits="userSpaceOnUse">
<stop stop-color="#023298"/>
<stop offset="0.440625" stop-color="#2D7BFF"/>
<stop offset="1" stop-color="#58C38F"/>
</linearGradient>
<linearGradient id="paint7_linear_222_16890" x1="13.4712" y1="43.5537" x2="13.4712" y2="46.7922" gradientUnits="userSpaceOnUse">
<stop stop-color="#023298"/>
<stop offset="0.440625" stop-color="#2D7BFF"/>
<stop offset="1" stop-color="#58C38F"/>
</linearGradient>
</defs>
</svg>
