<svg width="363" height="146" viewBox="0 0 363 146" fill="none" xmlns="http://www.w3.org/2000/svg">
<path fill-rule="evenodd" clip-rule="evenodd" d="M56.2212 42.3832L48.1355 66.6022H64.4093L56.3236 42.3832H56.2212ZM27.8956 106.865C27.6557 106.872 27.4279 106.971 27.2607 107.143C27.0934 107.315 26.9999 107.545 27 107.785V118.004C26.9999 118.243 27.0934 118.473 27.2607 118.645C27.4279 118.817 27.6557 118.917 27.8956 118.923H84.6237C84.8635 118.917 85.0913 118.817 85.2585 118.645C85.4258 118.473 85.5193 118.243 85.5192 118.004V107.785C85.5193 107.545 85.4258 107.315 85.2585 107.143C85.0913 106.971 84.8635 106.872 84.6237 106.865H27.8956ZM56.2724 28C62.4646 28 64.4093 32.4453 66.0469 36.8905L83.2931 84.2044C83.3787 84.4318 83.3733 84.6835 83.278 84.9071C83.1827 85.1306 83.0049 85.309 82.7813 85.4051L73.365 89.0328C73.2542 89.0735 73.1364 89.0919 73.0184 89.0869C72.9004 89.0819 72.7845 89.0537 72.6775 89.0038C72.5705 88.9539 72.4744 88.8834 72.3948 88.7963C72.3152 88.7093 72.2536 88.6073 72.2136 88.4964C72.0345 88.0365 68.5545 78.4307 68.1707 77.3577H44.3229L40.2801 88.4453C40.2431 88.5583 40.1833 88.6626 40.1043 88.7517C40.0253 88.8407 39.9288 88.9126 39.8209 88.9629C39.7129 89.0132 39.5958 89.0408 39.4767 89.0441C39.3576 89.0473 39.2391 89.0261 39.1286 88.9818L29.7123 85.354C29.4995 85.2586 29.3282 85.09 29.2295 84.879C29.1309 84.6679 29.1115 84.4285 29.175 84.2044L46.4723 36.8905C48.0331 32.4964 50.029 28 56.2724 28Z" fill="#C02A26"/>
<path fill-rule="evenodd" clip-rule="evenodd" d="M272.95 77.5107C272.95 72.4012 269.956 68.9268 263.687 68.9268C262.254 68.9225 260.826 69.1028 259.439 69.4633V62.1567C261.018 61.9576 262.608 61.8637 264.199 61.8757C266.276 61.8733 268.353 61.9927 270.416 62.2334V57.9925C267.678 57.4437 264.893 57.1613 262.1 57.1494C259.234 57.2308 256.386 57.6249 253.605 58.3246V85.3538C256.44 86.3996 259.437 86.9358 262.459 86.9377C269.291 86.9377 272.847 83.31 272.847 77.5107H272.95ZM267.192 77.9195C267.265 78.5121 267.206 79.1135 267.019 79.6807C266.833 80.2479 266.523 80.7671 266.113 81.2013C265.702 81.6355 265.201 81.9741 264.645 82.1928C264.088 82.4116 263.49 82.5052 262.894 82.4669C261.729 82.5133 260.565 82.3841 259.439 82.0837V73.7808C260.58 73.5844 261.737 73.4989 262.894 73.5253C263.484 73.4572 264.081 73.5249 264.641 73.7233C265.201 73.9216 265.708 74.2453 266.123 74.6695C266.538 75.0937 266.85 75.6072 267.035 76.1705C267.221 76.7339 267.274 77.3322 267.192 77.9195V77.9195Z" fill="#C02A26"/>
<path fill-rule="evenodd" clip-rule="evenodd" d="M200.997 93.1206V85.7629C202.33 86.4821 203.833 86.8265 205.347 86.7593C209.927 86.7593 213.305 82.9782 213.305 76.0293C213.305 68.5695 209.953 65.376 204.451 65.376C203.261 65.3196 202.074 65.5565 200.997 66.0658V57.252H195.623V66.0658C194.555 65.5566 193.377 65.3196 192.195 65.376C186.693 65.376 183.341 68.6972 183.341 76.1571C183.341 83.106 186.361 86.7593 191.274 86.7593C192.787 86.8304 194.292 86.4858 195.623 85.7629V93.1206H200.997ZM188.894 76.1571C188.894 72.0439 190.122 69.8724 192.604 69.8724C193.648 69.7991 194.691 70.0111 195.623 70.4855V81.803C194.739 82.1258 193.801 82.2733 192.86 82.2374C190.045 82.2374 188.894 79.9381 188.894 76.1571V76.1571ZM207.752 76.0293C207.752 79.8103 206.242 82.2374 203.76 82.2374C202.82 82.2695 201.882 82.122 200.997 81.803V70.4855C201.939 70.0126 202.99 69.8008 204.042 69.8724C206.575 69.8724 207.803 71.9162 207.803 76.0293H207.752Z" fill="#C02A26"/>
<path fill-rule="evenodd" clip-rule="evenodd" d="M154.939 86.4017V70.3068C154.013 70.1199 153.069 70.0343 152.124 70.0513C151.171 70.034 150.219 70.1197 149.284 70.3068V77.7411C149.284 83.7192 147.646 85.6097 143.296 86.836L141.838 83.6681C142.683 83.0746 143.312 82.2228 143.629 81.2411C143.97 79.7768 144.082 78.2688 143.962 76.7703V66.5513C146.601 65.7121 149.355 65.2897 152.124 65.2995C154.91 65.2898 157.681 65.7121 160.338 66.5513V86.2995L154.939 86.4017Z" fill="#C02A26"/>
<path fill-rule="evenodd" clip-rule="evenodd" d="M233.57 84.4601C232.23 82.6872 231.567 80.4948 231.702 78.2776V72.7594C231.939 70.9771 231.54 69.1685 230.576 67.6499C229.476 66.117 227.659 65.4528 224.282 65.4528C221.945 65.4369 219.616 65.7115 217.347 66.2703L218.141 70.2302C219.545 69.9968 220.965 69.8602 222.388 69.8214C225.97 69.8214 226.38 70.3579 226.38 73.0148V73.9856C225.49 73.7277 224.568 73.5986 223.642 73.6024C218.243 73.6024 215.403 76.1572 215.403 80.5769C215.385 81.4479 215.551 82.3128 215.89 83.1155C216.229 83.9181 216.734 84.6405 217.371 85.2357C218.008 85.8309 218.764 86.2855 219.588 86.57C220.413 86.8545 221.289 86.9626 222.158 86.8871C223.515 86.8981 224.862 86.6465 226.124 86.1462C226.786 85.8721 227.413 85.5205 227.992 85.0988C228.528 85.8404 229.24 86.4374 230.064 86.836L233.519 84.4601H233.57ZM226.712 82.0842C225.779 82.4307 224.791 82.6038 223.795 82.5951C221.876 82.5951 220.776 81.8287 220.776 79.836C220.776 77.8433 222.158 77.1024 224.819 77.1024C225.364 77.0844 225.908 77.1534 226.431 77.3068V78.763C226.379 79.8776 226.474 80.9942 226.712 82.0842V82.0842Z" fill="#C02A26"/>
<path fill-rule="evenodd" clip-rule="evenodd" d="M293.113 84.4601C291.798 82.6778 291.163 80.4856 291.322 78.2776V72.7594C291.551 70.9741 291.143 69.1652 290.17 67.6499C289.07 66.117 287.253 65.4528 283.876 65.4528C281.539 65.4369 279.21 65.7115 276.941 66.2703L277.76 70.1791C279.165 69.9469 280.584 69.8103 282.008 69.7703C285.564 69.7703 285.999 70.3068 285.999 72.9638V73.9856C285.11 73.7277 284.188 73.5986 283.262 73.6024C277.863 73.6024 275.022 76.1572 275.022 80.5769C275.005 81.4479 275.171 82.3128 275.51 83.1155C275.849 83.9181 276.354 84.6405 276.991 85.2357C277.628 85.8309 278.383 86.2855 279.208 86.57C280.033 86.8545 280.908 86.9626 281.777 86.8871C283.135 86.8981 284.482 86.6465 285.744 86.1462C286.408 85.8777 287.036 85.5257 287.611 85.0988C288.154 85.8347 288.864 86.4304 289.684 86.836L293.113 84.4601ZM286.255 82.0842C285.322 82.4307 284.334 82.6038 283.338 82.5951C281.419 82.5951 280.319 81.8287 280.319 79.836C280.319 77.8433 281.701 77.1024 284.387 77.1024C284.924 77.0845 285.46 77.1535 285.974 77.3068V78.763C285.922 79.8776 286.017 80.9942 286.255 82.0842V82.0842Z" fill="#C02A26"/>
<path fill-rule="evenodd" clip-rule="evenodd" d="M164.509 65.7334V85.3283C167 86.3596 169.668 86.8976 172.364 86.9122C178.096 86.9122 181.166 83.9487 181.166 79.0692C181.166 74.6495 178.454 71.9159 173.49 71.9159C172.313 71.932 171.142 72.1038 170.01 72.4268V65.7334H164.509ZM175.563 79.3246C175.563 81.3429 174.846 82.7224 172.262 82.7224C171.457 82.7565 170.652 82.6528 169.882 82.4159V76.54C170.658 76.332 171.458 76.2289 172.262 76.2334C174.718 76.1823 175.563 77.383 175.563 79.3246Z" fill="#C02A26"/>
<path fill-rule="evenodd" clip-rule="evenodd" d="M307.442 86.4016V78.0476H301.327V86.4016H295.927V65.9126H301.327V73.6535H307.442V65.9126H312.841V86.4016H307.442Z" fill="#C02A26"/>
<path fill-rule="evenodd" clip-rule="evenodd" d="M329.115 86.4015C329.115 86.4015 327.298 81.9562 326.326 80.0146C325.353 78.073 325.251 78.0219 323.767 78.0219H323.025V86.3759H317.6V65.938H323.025V73.6022H323.818C325.225 73.6022 325.481 73.1168 325.993 72.0438L327.4 69.1059C327.756 68.2542 328.239 67.4616 328.833 66.7555C329.21 66.3633 329.663 66.0522 330.165 65.8414C330.667 65.6305 331.206 65.5243 331.75 65.5292C332.601 65.4499 333.458 65.4499 334.309 65.5292L334.053 69.3613C333.835 69.3129 333.608 69.3154 333.391 69.3686C333.173 69.4218 332.971 69.5242 332.799 69.6679C332.262 70.1278 331.981 70.5621 331.06 72.5803C330.138 74.5986 329.217 75.2883 328.091 75.5183C328.841 75.739 329.526 76.1379 330.087 76.6807C330.649 77.2235 331.07 77.8941 331.315 78.6351C332.057 80.0657 335 86.2993 335 86.2993L329.115 86.4015Z" fill="#C02A26"/>
<path fill-rule="evenodd" clip-rule="evenodd" d="M123.338 75.978C123.338 75.978 125.078 70.2298 125.334 69.3356C126.025 67.0108 127.048 63.332 127.048 63.332H127.227C127.227 63.332 128.2 67.1385 128.814 69.3101C129.07 70.1531 130.707 75.978 130.707 75.978H123.338ZM133.803 86.4013H140.021L130.631 57.7371C129.49 57.3718 128.298 57.1907 127.099 57.2006C126.06 57.1925 125.028 57.3743 124.055 57.7371L113.999 86.4013H119.96L121.726 80.7809H131.961L133.803 86.4013Z" fill="#C02A26"/>
<path fill-rule="evenodd" clip-rule="evenodd" d="M246.159 76.1571C246.2 76.6332 246.142 77.1127 245.988 77.5651C245.834 78.0175 245.587 78.433 245.263 78.7852C244.94 79.1373 244.546 79.4185 244.108 79.6109C243.67 79.8032 243.196 79.9025 242.718 79.9025C242.239 79.9025 241.766 79.8032 241.327 79.6109C240.889 79.4185 240.496 79.1373 240.172 78.7852C239.849 78.433 239.602 78.0175 239.448 77.5651C239.293 77.1127 239.235 76.6332 239.276 76.1571C239.235 75.6809 239.293 75.2015 239.448 74.749C239.602 74.2966 239.849 73.8812 240.172 73.529C240.496 73.1768 240.889 72.8956 241.327 72.7033C241.766 72.5109 242.239 72.4116 242.718 72.4116C243.196 72.4116 243.67 72.5109 244.108 72.7033C244.546 72.8956 244.94 73.1768 245.263 73.529C245.587 73.8812 245.834 74.2966 245.988 74.749C246.142 75.2015 246.2 75.6809 246.159 76.1571Z" fill="#C02A26"/>
</svg>
