<svg width="363" height="146" viewBox="0 0 363 146" fill="none" xmlns="http://www.w3.org/2000/svg">
<path fill-rule="evenodd" clip-rule="evenodd" d="M136.9 34.2631H182.421L159.661 21L136.9 34.2631Z" fill="url(#paint0_linear_246_558)"/>
<path fill-rule="evenodd" clip-rule="evenodd" d="M136.9 34.2681V60.7839L159.661 74.0522L136.9 34.2681Z" fill="url(#paint1_linear_246_558)"/>
<path fill-rule="evenodd" clip-rule="evenodd" d="M159.661 74.0574L182.421 60.7943V34.2681L159.661 74.0574Z" fill="url(#paint2_linear_246_558)"/>
<path fill-rule="evenodd" clip-rule="evenodd" d="M182.421 60.7842L205.182 74.0577L227.952 60.7842H182.421Z" fill="url(#paint3_linear_246_558)"/>
<path fill-rule="evenodd" clip-rule="evenodd" d="M205.182 21L182.421 34.2631V60.7841L205.182 21Z" fill="url(#paint4_linear_246_558)"/>
<path fill-rule="evenodd" clip-rule="evenodd" d="M227.952 60.7841V34.2579L205.187 21L227.952 60.7841Z" fill="url(#paint5_linear_246_558)"/>
<path fill-rule="evenodd" clip-rule="evenodd" d="M274.761 84.1454C278.468 84.0311 282.179 84.0311 285.894 84.1454C291.522 97.4397 297.516 110.578 303 123.93C299.617 124.033 296.234 123.93 292.851 123.976C290.132 124.117 288.072 122.048 285.78 120.905C282.227 118.665 278.339 116.95 274.997 114.388C279.354 114.31 283.71 114.549 288.056 114.284C286.27 109.029 284.117 103.889 282.129 98.7338C281.681 97.304 281.083 95.926 280.348 94.6228C276.151 104.258 272.85 114.294 268.705 123.95C265.018 123.95 261.331 124.033 257.644 123.914C263.226 110.609 269.184 97.4657 274.761 84.1558V84.1454ZM139.264 84.0778C146.02 84.0778 152.771 84.0778 159.522 84.0778C164.028 84.2857 168.909 85.8708 171.695 89.6596C173.178 92.0167 173.958 94.7548 173.942 97.547C173.925 100.339 173.113 103.068 171.602 105.407C170.536 107.226 168.76 108.4 167.256 109.804C169.934 114.647 173.436 119.003 176.041 123.893C172.164 124.002 168.271 123.981 164.388 123.893C161.401 119.065 158.533 114.169 155.665 109.279C154.635 107.522 153.456 105.849 152.647 103.967C155.619 103.801 158.93 104.362 161.515 102.512C164.388 100.646 164.089 95.6363 161.036 94.1031C157.627 92.2581 153.636 93.0949 149.944 92.8714C149.655 103.229 149.975 113.592 149.789 123.956C146.262 123.956 142.735 123.956 139.207 123.914C139.207 110.63 139.099 97.3461 139.264 84.0622V84.0778ZM107.75 84.0778C111.128 84.0778 114.511 84.0778 117.889 84.0778C118.177 86.6296 118.054 89.197 118.069 91.754C118.069 99.2483 118.069 106.743 118.069 114.237C124.135 114.627 130.232 114.268 136.313 114.398C135.907 116.144 134.769 117.579 133.919 119.107C133.069 120.635 132.266 122.256 131.205 123.685C130.592 124.106 129.784 123.909 129.089 123.992C121.952 123.919 114.809 123.992 107.667 123.94C107.471 111.592 107.667 99.2223 107.564 86.8687C107.546 85.9393 107.613 85.0102 107.765 84.0934L107.75 84.0778ZM76.1115 84.1246C79.8139 83.9947 83.5267 84.0311 87.2343 84.1246C92.8162 97.4449 98.7947 110.583 104.351 123.904C100.576 123.93 96.7916 124.111 93.0222 123.8C90.0613 115.645 86.8069 107.585 83.7172 99.477C83.1305 97.7922 82.4427 96.1451 81.6574 94.5449C79.4947 99.0664 77.955 103.869 76.0703 108.51C75.3751 110.422 74.4225 112.267 74.165 114.31C78.4391 114.492 82.7182 114.336 86.9871 114.367C85.3187 115.796 83.3361 116.752 81.4515 117.849C78.8768 119.309 76.3329 120.822 73.7737 122.318C72.4709 123.041 71.199 124.075 69.6129 123.971C66.0856 123.904 62.5376 124.059 59 123.852C64.5665 110.557 70.4472 97.3981 76.1115 84.1298V84.1246ZM226.989 87.6535C222.422 91.9359 222.669 100.548 227.937 104.154C232.958 108.109 239.781 107.756 245.352 110.459C247.376 111.342 246.897 114.388 244.92 115.006C239.801 116.908 234.106 115.287 229.471 112.849C228.797 112.563 227.736 111.81 227.211 112.704C225.764 115.126 224.399 117.605 223.045 120.078C224.888 121.596 227.165 122.381 229.41 123.171C234.365 124.834 239.628 125.344 244.806 124.662C248.509 124.002 252.35 122.625 254.879 119.683C258.859 115.105 258.334 107.028 253.267 103.474C248.499 99.7628 242.17 99.9135 236.789 97.6943C235.45 97.211 234.08 95.9897 234.688 94.4149C236.011 92.4608 238.565 92.1282 240.728 92.1958C245.048 92.1542 249.163 93.625 253.164 95.101C254.25 92.3465 255.584 89.6855 256.604 86.8999C251.365 84.2897 245.586 82.9783 239.745 83.0748C235.172 83.0748 230.362 84.3585 227.015 87.6535H226.989ZM196.397 92.3673C192.905 93.1157 189.739 95.6571 188.554 99.1236C186.695 103.9 187.576 110.1 191.726 113.385C196.546 117.542 204.811 116.773 208.539 111.493C211.701 106.691 211.459 99.7212 207.607 95.3816C204.708 92.4764 200.326 91.463 196.397 92.4088V92.3673ZM195.46 83.2723C200.908 82.7526 206.716 83.2047 211.521 86.0787C215.685 88.3925 218.816 92.224 220.275 96.79C221.922 102.372 221.691 108.598 219.183 113.889C216.675 119.179 211.407 122.989 205.712 124.247C200.31 125.426 194.461 125.328 189.311 123.16C184.859 121.496 181.217 118.159 179.146 113.847C176.642 108.4 176.314 102.189 178.23 96.5042C180.614 89.0827 187.967 84.1298 195.46 83.2723Z" fill="#9A9B9F"/>
<defs>
<linearGradient id="paint0_linear_246_558" x1="136.906" y1="27.6316" x2="182.426" y2="27.6316" gradientUnits="userSpaceOnUse">
<stop stop-color="#721102"/>
<stop offset="0.5" stop-color="#E40F17"/>
<stop offset="1" stop-color="#F39976"/>
</linearGradient>
<linearGradient id="paint1_linear_246_558" x1="153.971" y1="77.3628" x2="130.889" y2="37.7579" gradientUnits="userSpaceOnUse">
<stop stop-color="#721102"/>
<stop offset="0.5" stop-color="#E40F17"/>
<stop offset="1" stop-color="#F39976"/>
</linearGradient>
<linearGradient id="paint2_linear_246_558" x1="188.122" y1="37.5682" x2="165.045" y2="77.1732" gradientUnits="userSpaceOnUse">
<stop stop-color="#721102"/>
<stop offset="0.5" stop-color="#E40F17"/>
<stop offset="1" stop-color="#F39976"/>
</linearGradient>
<linearGradient id="paint3_linear_246_558" x1="227.942" y1="67.4209" x2="182.411" y2="67.4209" gradientUnits="userSpaceOnUse">
<stop stop-color="#051B3C"/>
<stop offset="0.5" stop-color="#0071B8"/>
<stop offset="1" stop-color="#97BBE0"/>
</linearGradient>
<linearGradient id="paint4_linear_246_558" x1="176.731" y1="57.4787" x2="199.808" y2="17.879" gradientUnits="userSpaceOnUse">
<stop stop-color="#051B3C"/>
<stop offset="0.5" stop-color="#0071B8"/>
<stop offset="1" stop-color="#97BBE0"/>
</linearGradient>
<linearGradient id="paint5_linear_246_558" x1="210.877" y1="17.6894" x2="233.959" y2="57.2891" gradientUnits="userSpaceOnUse">
<stop stop-color="#051B3C"/>
<stop offset="0.5" stop-color="#0071B8"/>
<stop offset="1" stop-color="#97BBE0"/>
</linearGradient>
</defs>
</svg>
