<svg width="363" height="146" viewBox="0 0 363 146" fill="none" xmlns="http://www.w3.org/2000/svg">
<g clip-path="url(#clip0_246_559)">
<path fill-rule="evenodd" clip-rule="evenodd" d="M140.86 89.0332H154.189V93.3901H147.85V124H140.86V89.0332Z" fill="#0079C2"/>
<path fill-rule="evenodd" clip-rule="evenodd" d="M162.093 110.871L163.287 93.3901H163.698L164.896 110.871H162.093ZM154.354 124H161.212L161.858 114.714H165.151L165.802 124H172.643L168.996 89.0332H157.997L154.354 124Z" fill="#0079C2"/>
<path fill-rule="evenodd" clip-rule="evenodd" d="M182.618 111.761V118.35C182.608 118.498 182.629 118.646 182.68 118.786C182.73 118.925 182.809 119.053 182.911 119.16C183.013 119.268 183.136 119.353 183.273 119.411C183.409 119.468 183.556 119.497 183.704 119.495C183.853 119.494 184.001 119.464 184.138 119.406C184.275 119.348 184.4 119.263 184.504 119.157C184.608 119.05 184.69 118.924 184.745 118.786C184.8 118.647 184.827 118.499 184.824 118.35V110.213C184.824 109.125 184.622 107.919 182.013 107.919H179.176V104.081H182.128C184.108 104.081 184.824 103.62 184.824 101.47V94.5351C184.827 94.3861 184.8 94.238 184.745 94.0995C184.69 93.961 184.608 93.8348 184.504 93.7283C184.4 93.6217 184.275 93.537 184.138 93.479C184.001 93.4209 183.853 93.3908 183.704 93.3903C183.555 93.385 183.407 93.4115 183.269 93.468C183.131 93.5245 183.006 93.6097 182.903 93.7179C182.801 93.8261 182.722 93.9549 182.673 94.0958C182.624 94.2367 182.605 94.3864 182.618 94.5351V100.239H175.62V95.2969C175.62 92.8631 175.908 89.0498 180.806 89.0498H186.594C191.493 89.0498 191.81 92.8631 191.81 95.2969V100.885C191.81 104.699 189.142 105.728 187.051 105.646V105.987C191.752 105.872 191.81 109.484 191.81 110.715V117.765C191.81 120.236 191.493 124.016 186.594 124.016H180.827C175.928 124.016 175.64 120.232 175.64 117.765V111.761H182.618Z" fill="#0079C2"/>
<path fill-rule="evenodd" clip-rule="evenodd" d="M196.412 89.0332H212.598V124H205.608V93.3901H203.402V124H196.412V89.0332Z" fill="#0079C2"/>
<path fill-rule="evenodd" clip-rule="evenodd" d="M224.195 108.265V93.3901H225.113C225.858 93.3901 226.401 94.0202 226.401 95.1362V106.514C226.401 107.635 225.858 108.265 225.113 108.265H224.195ZM217.197 124H224.195V112.103H228.204C233.074 112.103 233.391 108.322 233.391 105.856V95.2803C233.391 92.8465 233.074 89.0332 228.204 89.0332H217.197V124Z" fill="#0079C2"/>
<path fill-rule="evenodd" clip-rule="evenodd" d="M247.152 118.354C247.155 118.503 247.128 118.651 247.073 118.79C247.018 118.928 246.936 119.054 246.832 119.161C246.728 119.267 246.603 119.352 246.466 119.41C246.329 119.468 246.182 119.498 246.033 119.499C245.884 119.501 245.737 119.472 245.601 119.415C245.464 119.357 245.341 119.272 245.239 119.164C245.137 119.057 245.058 118.929 245.008 118.79C244.957 118.65 244.936 118.502 244.946 118.354V94.535C244.933 94.3863 244.952 94.2365 245.001 94.0957C245.05 93.9548 245.129 93.826 245.232 93.7178C245.334 93.6095 245.459 93.5244 245.597 93.4679C245.735 93.4114 245.883 93.3849 246.033 93.3901C246.182 93.3906 246.329 93.4208 246.466 93.4788C246.603 93.5369 246.728 93.6216 246.832 93.7281C246.936 93.8346 247.018 93.9608 247.073 94.0994C247.128 94.2379 247.155 94.3859 247.152 94.535V118.354ZM237.956 117.749C237.956 120.219 238.269 124 243.139 124H248.955C253.825 124 254.142 120.215 254.142 117.749V95.2803C254.142 92.8465 253.825 89.0332 248.955 89.0332H243.13C238.261 89.0332 237.948 92.8465 237.948 95.2803L237.956 117.749Z" fill="#0079C2"/>
<path fill-rule="evenodd" clip-rule="evenodd" d="M276.89 89.0332H286V124H279.01V102.071H278.751L275.141 124H269.554L265.973 102.071H265.714V124H258.724V89.0332H267.805L272.362 113.622L276.89 89.0332Z" fill="#0079C2"/>
<path fill-rule="evenodd" clip-rule="evenodd" d="M131.803 41.2266C129.663 31.858 124.299 24.2354 123.562 23C122.393 24.7502 118.116 31.4832 115.93 38.937C113.761 46.3927 113.117 54.2095 114.037 61.92C114.86 69.2007 117.923 76.6792 117.923 76.6792C119.569 80.579 122.002 84.7918 123.595 86.8549C125.929 83.8158 131.297 74.7601 132.968 62.9701C133.899 56.3811 133.94 50.6158 131.803 41.2431V41.2266ZM123.57 84.5035C122.517 82.5268 120.886 78.7711 120.73 72.9276C120.689 67.3105 122.945 62.4636 123.612 61.4629C124.2 62.4636 126.143 66.6763 126.374 72.4375C126.481 76.6317 125.519 80.7841 123.579 84.5035H123.57ZM131.19 57.1348C131.144 60.3702 130.791 63.594 130.136 66.7628C130.274 62.1772 129.883 57.591 128.971 53.0949C128.078 48.8245 125.55 41.659 123.529 38.3604C121.656 41.5314 119.359 47.7085 118.153 53.062C116.947 58.4155 116.918 64.9262 116.918 66.874C116.182 62.4529 115.881 57.9701 116.021 53.4903C116.249 49.3831 116.901 45.3106 117.968 41.3378C120.339 33.6864 123.023 28.7859 123.529 28.0117C125.926 32.156 127.819 36.5716 129.169 41.1648C130.571 46.3701 131.249 51.7441 131.182 57.1348H131.19Z" fill="#0079C2"/>
<path fill-rule="evenodd" clip-rule="evenodd" d="M127.189 89.0335H110.92V99.9546C110.92 99.9546 110.945 99.9258 110.962 99.9258C112.8 98.0838 115.295 97.0479 117.897 97.046C120.499 97.0441 122.995 98.0763 124.836 99.9155C126.678 101.755 127.713 104.25 127.715 106.853C127.717 109.456 126.685 111.954 124.847 113.795C124.847 113.824 124.814 113.824 124.797 113.853C124.777 113.853 124.756 113.882 124.74 113.911C122.454 116.183 119.643 117.858 116.557 118.785C113.47 119.712 110.203 119.865 107.044 119.228C103.884 118.592 100.93 117.186 98.4433 115.136C95.9562 113.086 94.0126 110.454 92.7843 107.473C91.556 104.493 91.0809 101.255 91.401 98.047C91.7211 94.839 92.8266 91.7594 94.6197 89.0805C96.4127 86.4016 98.8381 84.2061 101.681 82.6881C104.524 81.1701 107.698 80.3764 110.92 80.3773V54.1245C105.129 54.1223 99.4281 55.5614 94.3312 58.3121C89.2342 61.0627 84.9014 65.0387 81.7229 69.8816C78.5444 74.7246 76.6202 80.2825 76.1235 86.0547C75.6268 91.8269 76.5734 97.632 78.8778 102.947C81.1822 108.262 84.7722 112.92 89.3242 116.502C93.8763 120.084 99.2476 122.476 104.954 123.464C110.661 124.452 116.523 124.004 122.014 122.161C127.504 120.318 132.45 117.137 136.406 112.906V89.0211L127.189 89.0335Z" fill="#0079C2"/>
</g>
<defs>
<clipPath id="clip0_246_559">
<rect width="210" height="101" fill="white" transform="translate(76 23)"/>
</clipPath>
</defs>
</svg>
