<svg width="363" height="146" viewBox="0 0 363 146" fill="none" xmlns="http://www.w3.org/2000/svg">
<path fill-rule="evenodd" clip-rule="evenodd" d="M190.081 49.248H220.362L184.028 97.7481H153.751L190.081 49.248Z" fill="#C02222"/>
<path fill-rule="evenodd" clip-rule="evenodd" d="M282.452 32.577C274.86 25 263.507 25 255.935 25H234.136C232.32 25 230.047 25 228.232 26.822C226.416 28.644 226.416 30.9115 226.416 32.7295V37.1441H256.693C258.697 37.1441 261.739 37.1441 263.76 39.1507C265.78 41.1573 265.764 44.2034 265.764 46.222V76.53C265.764 78.5366 265.764 81.5827 263.76 83.6013C261.755 85.62 258.713 85.6079 256.693 85.6079H242.061C239.536 85.6079 236.257 85.6079 234.994 82.8308C233.731 80.0536 235.499 77.5253 236.998 75.5026L256.677 49.2319H226.416L214.306 65.4173C212.277 68.1223 210.521 70.466 210.521 73.5C210.521 76.534 212.157 78.7172 214.306 81.5827L217.332 85.624C220.363 89.6653 223.389 93.7067 227.426 95.7293C231.462 97.752 236.245 97.736 242.819 97.736H255.935C263.507 97.736 274.86 97.736 282.432 90.159C290.004 82.582 290 71.4653 290 67.424V55.312C290 51.2707 290 40.154 282.452 32.577Z" fill="#C02222"/>
<path fill-rule="evenodd" clip-rule="evenodd" d="M159.788 65.4175L156.762 61.3721C153.735 57.3348 150.705 53.2894 146.668 51.2708C142.632 49.2521 137.849 49.2642 131.279 49.2642H79.7206C77.9047 49.2642 75.6318 49.2642 73.8159 51.0862C72 52.9082 72 55.1596 72 56.9776V61.3721H84.11V122H108.334V61.3721H132.049C134.574 61.3721 137.853 61.3721 139.116 64.1533C140.379 66.9345 138.611 69.4588 137.112 71.4774L117.418 97.7481H147.694L159.788 81.5868C161.817 78.8779 163.573 76.5341 163.573 73.5041C163.573 70.4741 161.953 68.2829 159.788 65.4175Z" fill="#C02222"/>
</svg>
