<svg width="363" height="146" viewBox="0 0 363 146" fill="none" xmlns="http://www.w3.org/2000/svg">
<path fill-rule="evenodd" clip-rule="evenodd" d="M181.006 15C151.625 15 124.987 21.4007 105.68 31.7512C86.1635 42.233 74 56.8178 74 72.9891C74 89.1603 86.1635 103.745 105.68 114.238C124.987 124.599 151.625 130.978 181.006 130.978C210.386 130.978 237.013 124.577 256.32 114.227C275.892 103.734 288 89.1603 288 72.9781C288 56.7959 275.892 42.2111 256.32 31.7293C237.013 21.4007 210.375 15 181.006 15ZM107.35 34.5412C126.17 24.4861 152.211 18.2824 181.006 18.2824C209.8 18.2824 235.83 24.4971 254.65 34.5522C273.205 44.465 284.683 58.0651 284.683 73.0109C284.683 87.9568 273.205 101.546 254.65 111.459C235.852 121.503 209.789 127.729 181.006 127.729C152.222 127.729 126.17 121.503 107.35 111.459C88.7952 101.546 77.3173 87.9459 77.3173 72.9891C77.3173 58.0323 88.7952 44.4541 107.35 34.5412Z" fill="#C5943A"/>
<path fill-rule="evenodd" clip-rule="evenodd" d="M96.3255 67.5183L94.6447 69.5206C94.1743 69.0515 93.6059 68.6899 92.9794 68.4612C92.3528 68.2325 91.6833 68.1422 91.0178 68.1966C90.4905 68.2809 89.9841 68.4628 89.525 68.7328C88.9004 69.1092 88.4037 69.6617 88.0985 70.3193C87.6489 71.2767 87.4438 72.3287 87.5014 73.3828C87.3931 74.7222 87.7867 76.0541 88.6072 77.1248C89.2269 77.7963 90.0561 78.2431 90.9625 78.394C91.7171 78.4567 92.4753 78.3266 93.1646 78.0163C93.8539 77.7059 94.4511 77.2257 94.899 76.6215L96.7788 78.2408C96.068 79.1892 95.1453 79.9622 94.0826 80.4993C93.0199 81.0365 91.8461 81.3232 90.6528 81.3372C89.3427 81.3598 88.0537 81.0086 86.9399 80.3257C85.8261 79.6427 84.9346 78.6568 84.3721 77.4858C83.7329 76.2282 83.4176 74.8338 83.4543 73.4266C83.3924 72.3136 83.5726 71.2005 83.9827 70.1624C84.3929 69.1242 85.0234 68.1853 85.8317 67.4089C87.2716 66.0972 89.1601 65.374 91.1173 65.3847C92.116 65.3733 93.1063 65.567 94.0255 65.9537C94.8977 66.304 95.6825 66.8379 96.3255 67.5183V67.5183ZM268.406 69.2251L266.891 67.1353C268.488 65.9644 270.432 65.3489 272.42 65.3847C273.493 65.3346 274.564 65.5292 275.549 65.9537C276.281 66.2697 276.906 66.7859 277.351 67.4417C277.723 68.0127 277.957 68.6601 278.037 69.3345C278.083 69.8553 278.023 70.3801 277.86 70.8773C277.697 71.3892 277.39 71.8447 276.975 72.1902C276.51 72.5731 275.948 72.8228 275.35 72.9124V73.1421C276.183 73.2138 276.965 73.5696 277.561 74.1487C277.873 74.4575 278.117 74.827 278.277 75.2339C278.437 75.6407 278.509 76.076 278.49 76.5121C278.488 77.3286 278.246 78.1268 277.794 78.8097C277.262 79.5765 276.533 80.1885 275.682 80.5822C274.598 81.0717 273.423 81.329 272.232 81.3372C270.003 81.3636 267.841 80.5857 266.15 79.1489L267.786 77.1029C267.857 77.1114 267.923 77.1421 267.974 77.1904L268.14 77.3217C268.312 77.4103 268.478 77.509 268.638 77.6171C268.826 77.7375 269.058 77.8797 269.323 78.022C270.228 78.4883 271.25 78.6823 272.265 78.58C272.951 78.5169 273.592 78.2098 274.067 77.7156C274.272 77.5044 274.43 77.2532 274.531 76.9781C274.632 76.7031 274.673 76.4101 274.653 76.1182C274.653 75.024 273.813 74.3894 272.265 74.3894H270.827V71.8073H272.077C272.423 71.8515 272.776 71.8174 273.107 71.7075C273.438 71.5975 273.74 71.4147 273.99 71.1727C274.144 70.9853 274.256 70.7669 274.317 70.5327C274.378 70.2985 274.387 70.054 274.344 69.816C274.307 69.5687 274.218 69.3318 274.083 69.1207C273.947 68.9096 273.769 68.729 273.559 68.5905C273.027 68.2492 272.4 68.0809 271.767 68.1091C270.581 68.1661 269.433 68.5446 268.45 69.2033L268.406 69.2251ZM254.727 77.836L253.533 80.9761H250.094L255.977 65.7458H259.184L265.166 80.9761H261.738L260.433 77.7703L254.727 77.836V77.836ZM255.734 75.2319H259.515L257.558 70.4396L255.722 75.2319H255.734ZM249.099 68.2842H243.061V80.9761H239.656V65.7458H249.099V68.2842V68.2842ZM236.316 68.2842H230.091V71.8948H235.31V74.5536H230.091V78.4596H237.101V80.9761H226.596V65.7458H236.25V68.2842H236.316ZM220.393 68.2842V80.9761H216.976V68.2623H213.006V65.7458H224.385V68.2623L220.393 68.2842ZM201.164 80.9761V78.7879H200.666C199.675 78.8093 198.687 78.6801 197.736 78.4049C196.655 78.0076 195.745 77.2542 195.159 76.2714C194.483 75.168 194.142 73.8958 194.175 72.606C194.185 71.6641 194.361 70.7311 194.695 69.8488C195.091 68.8257 195.808 67.9552 196.741 67.3651C198.078 66.5979 199.626 66.2686 201.164 66.4242V64.6626H204.481V66.4242C206.015 66.2836 207.557 66.6038 208.904 67.3432C209.895 67.8957 210.673 68.7576 211.116 69.7941C211.455 70.6749 211.631 71.6088 211.635 72.5513C211.67 73.8412 211.328 75.1137 210.651 76.2166C210.053 77.2015 209.126 77.9485 208.031 78.3283C207.061 78.605 206.054 78.7342 205.045 78.7113H204.481V80.8995L201.164 80.9761ZM201.164 68.9407C198.786 68.7328 197.603 69.9363 197.603 72.5732C197.495 73.6344 197.795 74.6969 198.443 75.5492C198.818 75.8565 199.254 76.0801 199.724 76.2047C200.193 76.3293 200.684 76.3521 201.164 76.2714V68.9407ZM204.481 68.9407V76.2714C204.979 76.3536 205.488 76.3329 205.977 76.2105C206.466 76.0881 206.925 75.8667 207.323 75.5602C207.664 75.1475 207.919 74.6719 208.072 74.161C208.226 73.6501 208.276 73.1142 208.219 72.5841C208.219 70.0129 206.98 68.7875 204.481 68.9297V68.9407ZM191.754 68.3061H185.528V71.8948H190.747V74.5536H185.528V78.4596H192.539V80.9761H182.089V65.7458H191.754V68.2842V68.3061ZM169.428 73.9737V80.9761H166.011V65.7458H169.428V71.4353H175.101V65.7458H178.506V80.9761H175.101V73.9737H169.428ZM159.741 68.2623V80.9761H156.336V68.2623H152.366V65.7458H163.722V68.2623H159.741ZM145.366 72.9124L147.987 65.7458H151.404L147.313 76.5339C146.885 77.843 146.23 79.0684 145.377 80.1555C145.02 80.5702 144.568 80.894 144.058 81.0996C143.548 81.3053 142.996 81.3867 142.447 81.3372C141.948 81.2972 141.454 81.2017 140.977 81.0527V78.5472C141.255 78.6173 141.541 78.6577 141.828 78.6675C142.051 78.6814 142.275 78.6464 142.484 78.5651C142.692 78.4838 142.88 78.3581 143.033 78.197C143.397 77.7525 143.664 77.2385 143.818 76.6871L138.179 65.7458H141.784L145.389 72.9124H145.366ZM137.117 68.2842H131.08V80.9761H127.674V65.7458H137.117V68.2842ZM116.882 76.0306V80.9761H113.454V65.7458H118.231C120.007 65.6267 121.782 66.006 123.351 66.8399C124.556 67.6058 125.131 69.0282 125.087 70.9429C125.087 74.291 122.93 75.9759 118.728 75.9759L116.882 76.0306ZM116.882 73.4266H118.397C119.128 73.463 119.85 73.2506 120.442 72.8248C120.706 72.5871 120.912 72.2932 121.044 71.9653C121.176 71.6374 121.231 71.2841 121.205 70.932C121.283 69.1485 120.321 68.2623 118.33 68.2623H116.882V73.4266ZM105.15 72.9124L107.77 65.7458H111.165L107.074 76.5339C106.645 77.843 105.991 79.0684 105.138 80.1555C104.781 80.5695 104.328 80.8928 103.818 81.0984C103.309 81.3039 102.756 81.3858 102.208 81.3372C101.709 81.2972 101.215 81.2017 100.737 81.0527V78.5472C101.016 78.6173 101.302 78.6577 101.589 78.6675C101.805 78.675 102.02 78.6369 102.221 78.5558C102.421 78.4747 102.601 78.3524 102.75 78.197C103.114 77.7525 103.381 77.2385 103.535 76.6871L97.8957 65.7458H101.5L105.15 72.9124Z" fill="#006AA1"/>
<path fill-rule="evenodd" clip-rule="evenodd" d="M198.72 35.4932C211.547 39.0382 227.371 44.9137 236.582 58.47H198.952C198.444 57.8354 197.913 57.2008 197.371 56.5771L196.929 56.0629L196.774 55.8878L195.557 54.5092L195.403 54.3451L195.093 54.0059L194.463 53.3385L193.987 52.8352L193.346 52.1787L193.18 52.0146L192.848 51.6863L192.351 51.2049L192.019 50.8876L191.853 50.7235L191.521 50.4062L191.344 50.253L191.179 50.0998L190.847 49.7825L190.681 49.6294L190.515 49.4762L190.338 49.323L190.194 49.1808L190.04 49.0495L189.896 48.9182L189.752 48.7869L189.597 48.6556L189.454 48.5243L189.31 48.393L189.155 48.2617L189.011 48.1304L188.713 47.8678L188.569 47.7365L188.425 47.6052L188.281 47.4739L188.138 47.3536L187.839 47.091L187.695 46.9706L187.541 46.8393L187.397 46.708L187.098 46.4564L186.955 46.336L186.811 46.2157L186.512 45.964L185.937 45.4826L185.064 44.7714L184.201 44.104V43.9727C188.826 40.7322 193.733 37.9055 198.864 35.526L198.72 35.4932ZM236.836 87.5411C222.571 108.231 183.239 118.494 157.143 122.225C152.388 121.634 150.973 121.459 146.494 120.77C162.329 115.638 198.82 106.546 205.443 87.5301L236.836 87.5411Z" fill="#9B7E44"/>
<path fill-rule="evenodd" clip-rule="evenodd" d="M203.298 33.3487C219.586 39.0273 231.871 44.9247 240.761 58.5138L276.356 58.3934C265.94 40.6138 241.701 31.2808 221.565 26.6636C217.994 27.6155 204.824 32.6157 203.309 33.3925L203.298 33.3487ZM240.695 87.5412C228.443 108.33 190.935 119.971 168.322 123.319C172.613 123.483 176.328 123.779 181.337 123.779C209.158 123.779 234.038 117.936 252.217 108.559C264.381 102.104 271.9 95.1782 276.411 87.5521L240.695 87.5412Z" fill="#AA8A4B"/>
<path fill-rule="evenodd" clip-rule="evenodd" d="M204.968 23.8408C167.548 29.1036 136.642 41.719 125.352 58.492H163.191L163.302 58.3388L163.59 57.9778L163.866 57.6277L164.01 57.4526L164.452 56.9165L165.182 56.0412L165.337 55.8661C165.735 55.4066 166.144 54.947 166.564 54.4875L166.719 54.3234L167.029 53.9842L167.659 53.2949L168.134 52.7916L168.787 52.1351L168.941 51.971L169.262 51.6427L169.76 51.1613L170.091 50.844L170.257 50.6799L170.589 50.3626L170.755 50.2094L170.921 50.0563L171.164 49.8265C172.572 48.4989 174.046 47.2115 175.587 45.9642L175.952 45.636L176.229 45.4062L177.102 44.695L177.965 44.0276C178.871 43.3273 179.756 42.6818 180.618 42.1128C191.354 34.7108 203.202 29.0316 215.727 25.2851L215.306 25.1866C212.476 24.6724 207.909 24.2238 204.968 23.8408ZM125.175 87.5413C132.606 97.9465 144.04 104.774 157.884 108.811C160.228 109.501 164.165 110.234 166.487 110.671C172.879 108.804 179.06 106.289 184.931 103.165L181.381 103.319H179.679H179.369H179.048H178.739H178.429H178.119H177.81H177.5H177.191C171.555 102.675 166.275 100.267 162.119 96.4475C159.598 94.0145 157.653 91.0587 156.424 87.7929L125.175 87.5413Z" fill="#006F9F"/>
<path fill-rule="evenodd" clip-rule="evenodd" d="M150.995 109.796C138.323 104.719 128.349 99.0075 121.272 87.541H85.6768C95.8831 104.905 120.31 114.566 140.346 119.479C144.194 118.472 157.265 114.282 161.234 112.684C157.74 112.029 154.313 111.062 150.995 109.796V109.796ZM121.261 58.5027C134.397 36.6966 172.9 26.2476 193.777 22.7683C189 22.4072 185.683 22.2212 180.674 22.2212C152.852 22.2212 127.696 28.0639 109.528 37.4406C98.8466 43.327 90.3653 50.5045 85.5884 58.4479L121.261 58.5027Z" fill="#007EAF"/>
</svg>
