<svg width="50" height="49" viewBox="0 0 50 49" fill="none" xmlns="http://www.w3.org/2000/svg">
<g clip-path="url(#clip0_241_342)">
<rect x="0.836426" width="48.7809" height="48.7809" rx="12" fill="#FDFDFD"/>
<path d="M32.3634 7.22705H17.9791C12.4808 7.22705 8.00757 11.7003 8.00757 17.1986V31.5828C8.00757 37.0811 12.4808 41.5543 17.9791 41.5543H32.3633C37.8617 41.5543 42.3349 37.0811 42.3349 31.5829V17.1986C42.3349 11.7003 37.8617 7.22705 32.3634 7.22705ZM39.653 31.5828C39.653 35.6024 36.3829 38.8725 32.3634 38.8725H17.9791C13.9595 38.8725 10.6894 35.6024 10.6894 31.5829V17.1986C10.6894 13.179 13.9595 9.90887 17.9791 9.90887H32.3633C36.3829 9.90887 39.653 13.179 39.653 17.1986V31.5828Z" fill="#006F9D"/>
<path d="M25.171 15.1382C20.0692 15.1382 15.9187 19.2887 15.9187 24.3905C15.9187 29.4922 20.0692 33.6427 25.171 33.6427C30.2727 33.6427 34.4233 29.4922 34.4233 24.3905C34.4233 19.2887 30.2727 15.1382 25.171 15.1382ZM25.171 30.9609C21.548 30.9609 18.6005 28.0134 18.6005 24.3905C18.6005 20.7675 21.548 17.82 25.171 17.82C28.7939 17.82 31.7414 20.7675 31.7414 24.3905C31.7414 28.0134 28.7939 30.9609 25.171 30.9609Z" fill="#006F9D"/>
<path d="M34.5577 16.3454C35.2983 16.3454 35.8986 15.745 35.8986 15.0045C35.8986 14.2639 35.2983 13.6636 34.5577 13.6636C33.8171 13.6636 33.2168 14.2639 33.2168 15.0045C33.2168 15.745 33.8171 16.3454 34.5577 16.3454Z" fill="#006F9D"/>
</g>
<defs>
<clipPath id="clip0_241_342">
<rect width="48.7809" height="48.7809" fill="white" transform="translate(0.780762)"/>
</clipPath>
</defs>
</svg>
