<svg width="90" height="90" viewBox="0 0 90 90" fill="none" xmlns="http://www.w3.org/2000/svg">
<path d="M67.3278 48.5199C67.0297 48.4931 66.7316 48.502 66.4335 48.502H39.9513C40.6568 49.2165 41.3296 49.9618 41.9696 50.7379H66.5467C66.8454 50.7564 67.1453 50.7429 67.4411 50.6977C68.0374 50.5695 68.3146 50.1611 68.2848 49.5604C68.255 48.9596 67.9479 48.5781 67.3278 48.5199ZM85.9351 27.6514C87.5748 27.2042 88.7225 26.1981 89.3113 24.5882C89.4037 24.3348 89.4932 24.0814 89.5826 23.8265V10.7419C89.2711 10.0518 89.0475 9.30051 88.6271 8.68489C87.7134 7.34334 86.3405 6.78734 84.7307 6.71579C84.6238 6.21209 84.49 5.7145 84.3297 5.22518C83.6753 3.52142 82.3278 2.61066 80.6449 2.11279H22.213C21.5676 2.41091 20.8715 2.62258 20.2872 3.00716C18.9889 3.85531 18.3494 5.13873 18.1854 6.61592C17.4863 6.7948 16.7962 6.89616 16.1656 7.14807C14.5349 7.79499 13.7017 9.11865 13.2694 10.7419V23.8325C13.6063 24.542 13.8522 25.3156 14.3009 25.9461C15.2072 27.2206 16.5487 27.7513 18.1347 27.8198V29.4103C17.1152 29.8232 16.109 30.1049 15.237 30.6147C14.1131 31.2706 13.5973 32.4303 13.2634 33.6526V38.3346C13.9938 38.2879 14.7297 38.2645 15.471 38.2645H15.5053C15.5053 37.085 15.5053 35.9059 15.5053 34.7273C15.5053 32.8864 16.5115 31.8952 18.3747 31.8952C40.4059 31.8952 62.4381 31.8952 84.4713 31.8952C86.3629 31.8952 87.3497 32.8924 87.3512 34.7974C87.3512 38.4166 87.3512 42.0358 87.3512 45.655C87.3512 47.4959 86.3405 48.4976 84.4877 48.5005C81.3077 48.5005 78.1278 48.5005 74.9478 48.5005C74.2845 48.5005 73.7553 48.6585 73.6316 49.4039C73.496 50.2118 73.9789 50.726 74.9031 50.7305C77.1137 50.7424 79.3242 50.7305 81.5348 50.7305H82.4083V52.5192H43.3544C43.891 53.2615 44.3983 54.0252 44.8763 54.8103C56.3241 54.8103 67.773 54.8103 79.2229 54.8103C80.9624 54.8103 82.7005 54.8028 84.44 54.8103C86.348 54.8207 87.3437 55.8105 87.3452 57.6931C87.3452 61.3123 87.3452 64.9315 87.3452 68.5507C87.3452 70.4393 86.3465 71.4216 84.4355 71.4216H49.84C49.8549 71.8301 49.8624 72.2415 49.8624 72.6529C49.8624 72.9868 49.8624 73.3207 49.8474 73.6516H82.3681C82.1877 75.0364 81.2441 75.9471 79.9607 76.0366C79.7878 76.0485 79.6134 76.0366 79.439 76.0366H49.6969C49.6234 76.7878 49.524 77.5331 49.3988 78.2725H78.7578C82.3979 78.2725 83.8095 77.1933 84.7366 73.6754C86.6476 73.5756 88.1531 72.7662 89.0594 71.0236C89.286 70.5899 89.4112 70.1054 89.5811 69.6433V56.5632C89.2457 55.8537 89.0028 55.0726 88.5541 54.4496C87.6463 53.1766 86.2973 52.6459 84.7128 52.5759V50.9496C85.6578 50.5978 86.6029 50.3653 87.4257 49.9062C88.6435 49.2354 89.2144 48.0385 89.5811 46.7386V33.6526C89.2472 32.9416 89.0057 32.162 88.5601 31.5329C87.6582 30.2525 86.3107 29.7219 84.7173 29.6443V27.8556C85.1265 27.8119 85.5331 27.7458 85.9351 27.6574V27.6514ZM23.1447 4.34871C26.1259 4.33827 29.1071 4.34871 32.0883 4.34871H79.4763C81.1413 4.34871 82.0893 5.09401 82.3785 6.683H20.4675C20.7359 5.19686 21.7047 4.34871 23.1447 4.34871ZM84.3148 25.5824C80.9361 25.5824 77.5574 25.5824 74.1787 25.5824H33.9322C32.7397 25.5824 32.2925 25.8925 32.3134 26.7093C32.3343 27.5262 32.777 27.8139 33.9829 27.8139H82.4038V29.6101H20.4631V27.8124H21.9149C22.9583 27.8124 24.0018 27.8228 25.0452 27.8124C25.9589 27.8005 26.3868 27.4263 26.3972 26.69C26.4076 25.9536 25.9902 25.5884 25.0556 25.5854C22.8943 25.5854 20.7329 25.5854 18.573 25.5854C16.4131 25.5854 15.5053 24.6478 15.5053 22.4924C15.5053 18.9239 15.5053 15.3544 15.5053 11.7839C15.5053 9.98172 16.513 8.96959 18.3136 8.96959C40.3975 8.96959 62.4799 8.96959 84.5608 8.96959C86.3167 8.96959 87.3422 9.99215 87.3452 11.7377C87.3512 15.3588 87.3512 18.9785 87.3452 22.5967C87.3527 24.621 86.3644 25.5824 84.3148 25.5824Z" fill="url(#paint0_linear_222_16901)"/>
<path d="M77.5907 58.6472C76.7241 58.6472 75.8769 58.9039 75.1561 59.3848C74.4352 59.8657 73.873 60.5494 73.5402 61.3495C73.2074 62.1496 73.1191 63.0304 73.2863 63.8806C73.4535 64.7309 73.8688 65.5126 74.4798 66.1271C75.0908 66.7416 75.8701 67.1614 76.7194 67.3335C77.5687 67.5057 78.4499 67.4224 79.2519 67.0942C80.054 66.7661 80.7408 66.2078 81.2259 65.4897C81.711 64.7716 81.9725 63.926 81.9775 63.0594C81.9803 61.8928 81.5198 60.7727 80.6972 59.9454C79.8747 59.1181 78.7573 58.6512 77.5907 58.6472V58.6472ZM77.5444 65.188C77.1204 65.1795 76.7083 65.046 76.3598 64.8042C76.0113 64.5624 75.742 64.2231 75.5856 63.8288C75.4291 63.4346 75.3926 63.0029 75.4805 62.588C75.5685 62.1731 75.7769 61.7933 76.0798 61.4964C76.3827 61.1995 76.7665 60.9986 77.1831 60.9189C77.5997 60.8393 78.0305 60.8844 78.4216 61.0486C78.8127 61.2128 79.1466 61.4888 79.3814 61.842C79.6162 62.1953 79.7415 62.6099 79.7416 63.0341C79.7357 63.611 79.5009 64.162 79.0889 64.5659C78.6769 64.9698 78.1214 65.1936 77.5444 65.188Z" fill="url(#paint1_linear_222_16901)"/>
<path d="M64.3182 58.6472C63.452 58.6502 62.6061 58.9095 61.8871 59.3924C61.1681 59.8754 60.6081 60.5604 60.2778 61.3612C59.9475 62.1619 59.8616 63.0425 60.031 63.8919C60.2004 64.7414 60.6174 65.5217 61.2296 66.1345C61.8418 66.7473 62.6216 67.1651 63.4709 67.3354C64.3202 67.5056 65.2009 67.4206 66.0019 67.0911C66.803 66.7616 67.4886 66.2023 67.9723 65.4838C68.456 64.7653 68.7161 63.9196 68.72 63.0535C68.7204 62.4751 68.6068 61.9023 68.3858 61.3678C68.1648 60.8334 67.8406 60.3477 67.4319 59.9385C67.0231 59.5293 66.5377 59.2047 66.0035 58.9831C65.4692 58.7616 64.8966 58.6474 64.3182 58.6472V58.6472ZM64.3033 65.1895C63.8792 65.1845 63.466 65.0545 63.1154 64.8157C62.7649 64.577 62.4926 64.2401 62.3326 63.8473C62.1726 63.4545 62.1321 63.0232 62.216 62.6075C62.3 62.1917 62.5048 61.81 62.8047 61.5101C63.1046 61.2102 63.4863 61.0055 63.902 60.9215C64.3178 60.8375 64.749 60.8781 65.1418 61.038C65.5346 61.198 65.8715 61.4703 66.1103 61.8209C66.349 62.1714 66.479 62.5846 66.4841 63.0087C66.4841 63.2951 66.4277 63.5787 66.3181 63.8433C66.2085 64.1079 66.0478 64.3483 65.8453 64.5508C65.6428 64.7533 65.4024 64.9139 65.1378 65.0235C64.8733 65.1331 64.5897 65.1895 64.3033 65.1895V65.1895Z" fill="url(#paint2_linear_222_16901)"/>
<path d="M77.5608 12.9749C76.6947 12.9825 75.8504 13.2464 75.134 13.7331C74.4177 14.2198 73.8615 14.9077 73.5354 15.71C73.2094 16.5123 73.1281 17.3932 73.3018 18.2417C73.4756 19.0901 73.8966 19.8681 74.5117 20.4777C75.1269 21.0873 75.9088 21.5011 76.7587 21.6671C77.6087 21.8331 78.4888 21.7438 79.2881 21.4104C80.0875 21.0771 80.7702 20.5146 81.2504 19.7938C81.7305 19.0731 81.9866 18.2263 81.9864 17.3603C81.9808 16.1919 81.5115 15.0736 80.6816 14.2512C79.8517 13.4288 78.7291 12.9697 77.5608 12.9749ZM77.5384 19.5157C77.1147 19.5057 76.7034 19.3709 76.3561 19.1281C76.0087 18.8854 75.7407 18.5455 75.5858 18.151C75.4308 17.7566 75.3957 17.3252 75.4848 16.9109C75.574 16.4966 75.7835 16.1179 76.087 15.8222C76.3906 15.5264 76.7746 15.3269 77.1911 15.2485C77.6076 15.1702 78.0379 15.2165 78.4282 15.3817C78.8184 15.5469 79.1512 15.8236 79.3849 16.1772C79.6185 16.5308 79.7426 16.9454 79.7415 17.3692C79.7378 17.6548 79.6779 17.9369 79.5652 18.1993C79.4525 18.4618 79.2891 18.6995 79.0846 18.8988C78.88 19.0981 78.6381 19.2552 78.3728 19.361C78.1075 19.4669 77.824 19.5194 77.5384 19.5157V19.5157Z" fill="url(#paint3_linear_222_16901)"/>
<path d="M64.3318 12.9749C63.4657 12.9752 62.619 13.2319 61.8986 13.7126C61.1781 14.1933 60.6161 14.8765 60.2833 15.6761C59.9505 16.4758 59.8619 17.356 60.0285 18.2059C60.1952 19.0559 60.6097 19.8374 61.2199 20.4521C61.83 21.0668 62.6085 21.4872 63.4572 21.6602C64.3058 21.8332 65.1867 21.7511 65.9888 21.4243C66.7908 21.0974 67.4782 20.5405 67.9643 19.8236C68.4504 19.1068 68.7134 18.2621 68.7201 17.396C68.7237 16.228 68.2635 15.1064 67.4407 14.2774C66.6179 13.4485 65.4997 12.98 64.3318 12.9749V12.9749ZM64.3049 19.5171C63.8811 19.5121 63.4682 19.3822 63.1179 19.1436C62.7676 18.905 62.4955 18.5684 62.3356 18.1758C62.1757 17.7833 62.1352 17.3523 62.2191 16.9369C62.3031 16.5215 62.5077 16.14 62.8074 15.8403C63.1071 15.5406 63.4885 15.336 63.904 15.2521C64.3194 15.1682 64.7504 15.2087 65.1429 15.3685C65.5354 15.5284 65.8721 15.8005 66.1107 16.1508C66.3493 16.5012 66.4792 16.9141 66.4842 17.3379C66.4844 17.6241 66.4282 17.9076 66.3187 18.1721C66.2093 18.4366 66.0488 18.6769 65.8464 18.8793C65.644 19.0817 65.4036 19.2422 65.1391 19.3516C64.8747 19.4611 64.5912 19.5173 64.3049 19.5171V19.5171Z" fill="url(#paint4_linear_222_16901)"/>
<path d="M29.5289 20.2325C29.5423 20.8884 29.1428 21.3341 28.5182 21.3594C27.8564 21.3848 27.4047 20.9376 27.4092 20.2579C27.4092 19.605 27.8251 19.1757 28.4526 19.1697C29.0802 19.1638 29.5169 19.5826 29.5289 20.2325Z" fill="url(#paint5_linear_222_16901)"/>
<path d="M20.9998 20.2698C20.9998 19.6169 21.4067 19.1802 22.0357 19.1697C22.699 19.1563 23.1343 19.608 23.1194 20.2951C23.1045 20.9435 22.6722 21.3654 22.0462 21.3594C21.4201 21.3535 21.0012 20.9212 20.9998 20.2698Z" fill="url(#paint6_linear_222_16901)"/>
<path d="M35.9385 20.2325C35.9519 20.8884 35.551 21.3356 34.9264 21.3594C34.2661 21.3848 33.8144 20.9361 33.8174 20.2564C33.8174 19.6035 34.2348 19.1757 34.8608 19.1697C35.4869 19.1638 35.9266 19.5826 35.9385 20.2325Z" fill="url(#paint7_linear_222_16901)"/>
<path d="M35.9386 14.485C35.9297 15.1349 35.5108 15.5627 34.8803 15.5642C34.2229 15.5642 33.7921 15.0976 33.8175 14.4149C33.8413 13.7695 34.2766 13.3566 34.9146 13.3715C35.5525 13.3864 35.9461 13.8231 35.9386 14.485Z" fill="url(#paint8_linear_222_16901)"/>
<path d="M29.529 14.5207C29.5022 15.1631 29.061 15.5775 28.4275 15.5641C27.794 15.5507 27.3989 15.1005 27.4094 14.4461C27.4198 13.7694 27.8804 13.3356 28.5467 13.3759C29.1668 13.4072 29.5559 13.8633 29.529 14.5207Z" fill="url(#paint9_linear_222_16901)"/>
<path d="M22.0252 15.5582C21.3991 15.5418 20.9922 15.0991 20.9996 14.4462C20.9996 13.7695 21.4662 13.3327 22.131 13.3685C22.7511 13.4028 23.1431 13.8574 23.1193 14.5148C23.0954 15.1721 22.6602 15.5761 22.0252 15.5582Z" fill="url(#paint10_linear_222_16901)"/>
<path d="M77.6427 36.0346C76.7733 36.0261 75.9209 36.2761 75.1939 36.7529C74.4668 37.2296 73.8978 37.9117 73.5591 38.7125C73.2205 39.5134 73.1274 40.3967 73.2917 41.2505C73.4561 42.1043 73.8705 42.89 74.4822 43.5079C75.094 44.1257 75.8755 44.5478 76.7277 44.7206C77.5798 44.8934 78.464 44.8091 79.2682 44.4784C80.0723 44.1477 80.76 43.5855 81.2439 42.8631C81.7279 42.1408 81.9863 41.291 81.9864 40.4215C81.9829 39.2665 81.5256 38.1592 80.713 37.3385C79.9003 36.5178 78.7976 36.0495 77.6427 36.0346V36.0346ZM77.5384 42.5754C77.1143 42.5657 76.7025 42.431 76.3547 42.1882C76.0068 41.9454 75.7384 41.6053 75.5832 41.2105C75.4279 40.8158 75.3926 40.3839 75.4818 39.9692C75.571 39.5545 75.7807 39.1753 76.0845 38.8793C76.3883 38.5833 76.7728 38.3836 77.1897 38.3052C77.6066 38.2268 78.0374 38.2733 78.428 38.4388C78.8186 38.6043 79.1516 38.8815 79.3853 39.2355C79.6189 39.5896 79.7429 40.0047 79.7415 40.4289C79.7329 41.0054 79.4962 41.5549 79.0833 41.9572C78.6704 42.3595 78.1149 42.5818 77.5384 42.5754V42.5754Z" fill="url(#paint11_linear_222_16901)"/>
<path d="M64.3362 36.0347C63.47 36.0341 62.6231 36.29 61.9021 36.77C61.1811 37.2501 60.6184 37.9328 60.2849 38.7322C59.9513 39.5316 59.8619 40.4118 60.0278 41.2619C60.1937 42.1121 60.6076 42.894 61.2173 43.5093C61.8269 44.1246 62.6051 44.5456 63.4537 44.7193C64.3023 44.893 65.1833 44.8116 65.9857 44.4853C66.7881 44.1591 67.4759 43.6026 67.9625 42.8861C68.4491 42.1695 68.7127 41.3249 68.7201 40.4588C68.7253 39.2908 68.2663 38.1686 67.4442 37.339C66.6221 36.5094 65.5042 36.0402 64.3362 36.0347V36.0347ZM64.2796 42.5755C63.8559 42.5655 63.4445 42.4307 63.097 42.1881C62.7496 41.9454 62.4814 41.6056 62.3261 41.2113C62.1708 40.8169 62.1353 40.3855 62.2241 39.9711C62.3128 39.5567 62.5219 39.1776 62.825 38.8815C63.1282 38.5853 63.512 38.3851 63.9283 38.306C64.3447 38.2269 64.7752 38.2725 65.1658 38.4369C65.5564 38.6013 65.8899 38.8773 66.1244 39.2303C66.3589 39.5833 66.4841 39.9977 66.4842 40.4215C66.4809 40.7077 66.4212 40.9905 66.3086 41.2536C66.1961 41.5167 66.0327 41.7551 65.828 41.9551C65.6233 42.1551 65.3812 42.3129 65.1155 42.4193C64.8498 42.5257 64.5658 42.5788 64.2796 42.5755Z" fill="url(#paint12_linear_222_16901)"/>
<path d="M29.529 37.5102C29.529 38.1661 29.125 38.6014 28.496 38.6148C27.8326 38.6282 27.3944 38.1765 27.4093 37.4909C27.4212 36.8425 27.8446 36.4206 28.4781 36.4251C29.1116 36.4296 29.5245 36.8574 29.529 37.5102Z" fill="url(#paint13_linear_222_16901)"/>
<path d="M34.8683 38.6149C34.2362 38.6149 33.8248 38.1812 33.8174 37.5283C33.8174 36.8486 34.2646 36.4014 34.9249 36.4252C35.5525 36.4491 35.9519 36.8918 35.937 37.5491C35.9221 38.2065 35.5018 38.6194 34.8683 38.6149Z" fill="url(#paint14_linear_222_16901)"/>
<path d="M35.937 43.3176C35.937 43.9139 35.6061 44.3178 35.077 44.3998C34.6715 44.1181 34.2586 43.8438 33.8413 43.5814C33.822 43.4833 33.814 43.3833 33.8174 43.2833C33.8323 42.6349 34.2646 42.2146 34.8921 42.2205C35.5197 42.2265 35.9356 42.6647 35.937 43.3176Z" fill="url(#paint15_linear_222_16901)"/>
<path d="M23.1194 37.4879C23.1343 38.1453 22.7348 38.5895 22.1103 38.6149C21.4455 38.6402 20.9968 38.1945 20.9998 37.5148C20.9998 36.8619 21.4142 36.4326 22.0432 36.4251C22.6722 36.4177 23.1075 36.844 23.1194 37.4879Z" fill="url(#paint16_linear_222_16901)"/>
<path d="M7.17886 52.783C6.03422 54.071 5.05523 55.4971 4.26472 57.0282C6.39182 58.3936 7.36518 60.3001 6.75105 62.8014C6.15481 65.2489 4.40782 66.595 1.87974 67.0541C1.89431 68.8984 2.19089 70.7297 2.7592 72.4844C5.39758 71.9373 7.54257 72.5887 8.8707 74.8917C10.0483 76.9338 9.68755 78.9625 8.22974 80.9346C9.59118 82.1878 11.1377 83.2235 12.8149 84.0053C14.295 81.8752 16.2626 80.8213 18.7877 81.3222C21.2592 81.8156 22.5709 83.4657 22.9614 86.0921L28.5244 84.9891C28.1264 82.7084 28.6183 80.8735 30.1536 79.5066L31.1329 81.0241C30.6627 81.5233 30.3469 82.148 30.2237 82.8227C30.1004 83.4974 30.175 84.1933 30.4383 84.8266C30.7648 85.6315 30.5769 86.0191 29.7243 86.3426C27.305 87.2636 24.746 87.7643 22.158 87.8227C21.2815 87.8421 20.9834 87.5514 21.0132 86.7063C21.0788 84.8877 20.0055 83.4836 18.2958 83.1497C16.5637 82.8098 14.939 83.6952 14.1549 85.4035C13.8195 86.1339 13.3679 86.3127 12.6375 85.9997C10.2955 84.9896 8.15686 83.5617 6.32623 81.7858C5.78812 81.264 5.81346 80.7856 6.39331 80.2474C7.79597 78.9461 8.09558 77.1172 7.14606 75.6594C6.19655 74.2015 4.42719 73.7529 2.64293 74.5041C1.94086 74.8023 1.49517 74.604 1.2358 73.884C0.377371 71.4999 -0.0403357 68.9795 0.00306601 66.4459C0.0164815 65.5635 0.326528 65.2683 1.23133 65.2624C2.72194 65.2519 3.8712 64.6139 4.58073 63.3067C5.26492 62.0441 5.21871 60.7637 4.35713 59.6681C3.9651 59.1702 3.3629 58.7991 2.78603 58.489C2.08545 58.1119 1.89167 57.7437 2.24494 57.0118C3.37668 54.6414 4.90975 52.4846 6.77639 50.6365C7.33239 50.0805 7.81982 50.082 8.34004 50.6261C9.38347 51.7172 10.8145 52.0675 12.1381 51.6128L13.0996 53.1035C11.3734 53.8607 9.65476 53.7146 8.00615 52.6682C7.64393 52.4357 7.47102 52.4476 7.17886 52.783Z" fill="url(#paint17_linear_222_16901)"/>
<path d="M13.9372 54.3943L14.9344 55.9386C10.4372 59.3297 8.38318 65.2832 10.3642 70.5585C10.2754 70.6258 10.1812 70.6857 10.0825 70.7373C9.63529 70.9192 9.19705 71.0921 8.66938 71.3008C7.17877 66.978 7.49776 62.8043 9.9513 58.8065C10.9801 57.0903 12.3341 55.5916 13.9372 54.3943V54.3943Z" fill="url(#paint18_linear_222_16901)"/>
<path d="M28.3604 76.731L29.3307 78.235C27.7712 79.099 26.0736 79.6855 24.3134 79.9686C19.4331 80.7914 15.2683 79.4007 11.7356 76.102L13.0995 74.8066C16.1761 77.6641 19.8177 78.8894 24.0763 78.1814C25.576 77.9434 27.0245 77.453 28.3604 76.731V76.731Z" fill="url(#paint19_linear_222_16901)"/>
<path d="M11.0574 72.1921L11.9279 73.5411L10.5341 74.6308L9.49072 73.0164L11.0574 72.1921Z" fill="url(#paint20_linear_222_16901)"/>
<path d="M36.0893 79.845C37.2337 78.5568 38.2127 77.1307 39.0035 75.5997C36.8764 74.2328 35.9015 72.3204 36.5171 69.8266C37.1134 67.379 38.8604 66.0315 41.3884 65.5739C41.3739 63.7291 41.0773 61.8973 40.509 60.1421C37.8706 60.6892 35.7256 60.0378 34.3975 57.7348C33.2214 55.6926 33.5821 53.6639 35.0399 51.6918C33.6783 50.4378 32.1312 49.4016 30.4533 48.6197C28.9746 50.7498 27.007 51.8051 24.4819 51.3028C22.0105 50.8079 20.6988 49.1578 20.3082 46.5328L14.7438 47.6359C15.1433 49.9165 14.6514 51.753 13.116 53.1184L12.1367 51.6009C12.607 51.1016 12.9227 50.477 13.046 49.8023C13.1692 49.1276 13.0947 48.4317 12.8313 47.7984C12.5049 46.9949 12.6927 46.6059 13.5453 46.2824C15.9643 45.3625 18.5228 44.8629 21.1102 44.8052C21.9867 44.7844 22.2848 45.0765 22.255 45.9202C22.1894 47.7388 23.2611 49.1429 24.9709 49.4783C26.7044 49.8167 28.3292 48.9327 29.1133 47.223C29.4487 46.4926 29.8988 46.3137 30.6307 46.6268C32.9741 47.6409 35.1128 49.074 36.9419 50.8556C37.4801 51.3758 37.4547 51.8558 36.8749 52.3939C35.4722 53.6937 35.1726 55.5242 36.1221 56.9805C37.0716 58.4369 38.841 58.887 40.6252 58.1357C41.3273 57.8376 41.773 58.0359 42.0324 58.7573C42.8893 61.1397 43.306 63.6581 43.2621 66.1895C43.2487 67.0705 42.9387 67.3656 42.0339 67.3731C40.5433 67.382 39.394 68.02 38.6845 69.3287C38.0003 70.5913 38.0465 71.8702 38.9081 72.9658C39.3001 73.4637 39.9023 73.8348 40.4792 74.1449C41.1797 74.522 41.3735 74.8902 41.0188 75.6221C39.8879 77.9927 38.3553 80.1496 36.4888 81.9974C35.9328 82.5534 35.4454 82.5519 34.9252 82.0079C33.8817 80.9167 32.4507 80.5664 31.1271 81.0226L30.1641 79.532C31.8903 78.7732 33.6104 78.9193 35.259 79.9657C35.6287 80.1923 35.7972 80.1804 36.0893 79.845Z" fill="url(#paint21_linear_222_16901)"/>
<path d="M29.331 78.2336L28.3337 76.6894C32.8324 73.2982 34.885 67.3462 32.9039 62.071C32.9924 62.0028 33.0867 61.9424 33.1857 61.8906C33.6329 61.7087 34.0711 61.5373 34.5988 61.3271C36.0894 65.6499 35.7704 69.8236 33.3168 73.8214C32.2876 75.5372 30.9337 77.0359 29.331 78.2336V78.2336Z" fill="url(#paint22_linear_222_16901)"/>
<path d="M14.9094 55.8983L13.939 54.3943C15.4979 53.5288 17.1958 52.9417 18.9564 52.6592C23.8366 51.8364 28.0014 53.2287 31.5341 56.5259L30.1702 57.8212C27.0936 54.9637 23.452 53.7399 19.1934 54.4465C17.6935 54.6847 16.245 55.1757 14.9094 55.8983V55.8983Z" fill="url(#paint23_linear_222_16901)"/>
<path d="M32.2108 60.4358L31.3403 59.0942C31.7875 58.741 32.2422 58.3877 32.7326 58.0061L33.776 59.6189L32.2108 60.4358Z" fill="url(#paint24_linear_222_16901)"/>
<defs>
<linearGradient id="paint0_linear_222_16901" x1="51.423" y1="2.11279" x2="51.423" y2="78.2725" gradientUnits="userSpaceOnUse">
<stop stop-color="#023298"/>
<stop offset="0.440625" stop-color="#2D7BFF"/>
<stop offset="1" stop-color="#58C38F"/>
</linearGradient>
<linearGradient id="paint1_linear_222_16901" x1="77.5907" y1="58.6472" x2="77.5907" y2="67.4209" gradientUnits="userSpaceOnUse">
<stop stop-color="#023298"/>
<stop offset="0.440625" stop-color="#2D7BFF"/>
<stop offset="1" stop-color="#58C38F"/>
</linearGradient>
<linearGradient id="paint2_linear_222_16901" x1="64.3331" y1="58.6472" x2="64.3331" y2="67.4209" gradientUnits="userSpaceOnUse">
<stop stop-color="#023298"/>
<stop offset="0.440625" stop-color="#2D7BFF"/>
<stop offset="1" stop-color="#58C38F"/>
</linearGradient>
<linearGradient id="paint3_linear_222_16901" x1="77.5995" y1="12.9749" x2="77.5995" y2="21.7485" gradientUnits="userSpaceOnUse">
<stop stop-color="#023298"/>
<stop offset="0.440625" stop-color="#2D7BFF"/>
<stop offset="1" stop-color="#58C38F"/>
</linearGradient>
<linearGradient id="paint4_linear_222_16901" x1="64.3333" y1="12.9749" x2="64.3333" y2="21.7486" gradientUnits="userSpaceOnUse">
<stop stop-color="#023298"/>
<stop offset="0.440625" stop-color="#2D7BFF"/>
<stop offset="1" stop-color="#58C38F"/>
</linearGradient>
<linearGradient id="paint5_linear_222_16901" x1="28.4692" y1="19.1697" x2="28.4692" y2="21.3605" gradientUnits="userSpaceOnUse">
<stop stop-color="#023298"/>
<stop offset="0.440625" stop-color="#2D7BFF"/>
<stop offset="1" stop-color="#58C38F"/>
</linearGradient>
<linearGradient id="paint6_linear_222_16901" x1="22.0598" y1="19.1694" x2="22.0598" y2="21.3595" gradientUnits="userSpaceOnUse">
<stop stop-color="#023298"/>
<stop offset="0.440625" stop-color="#2D7BFF"/>
<stop offset="1" stop-color="#58C38F"/>
</linearGradient>
<linearGradient id="paint7_linear_222_16901" x1="34.8781" y1="19.1697" x2="34.8781" y2="21.3605" gradientUnits="userSpaceOnUse">
<stop stop-color="#023298"/>
<stop offset="0.440625" stop-color="#2D7BFF"/>
<stop offset="1" stop-color="#58C38F"/>
</linearGradient>
<linearGradient id="paint8_linear_222_16901" x1="34.8776" y1="13.3711" x2="34.8776" y2="15.5642" gradientUnits="userSpaceOnUse">
<stop stop-color="#023298"/>
<stop offset="0.440625" stop-color="#2D7BFF"/>
<stop offset="1" stop-color="#58C38F"/>
</linearGradient>
<linearGradient id="paint9_linear_222_16901" x1="28.4698" y1="13.3733" x2="28.4698" y2="15.5644" gradientUnits="userSpaceOnUse">
<stop stop-color="#023298"/>
<stop offset="0.440625" stop-color="#2D7BFF"/>
<stop offset="1" stop-color="#58C38F"/>
</linearGradient>
<linearGradient id="paint10_linear_222_16901" x1="22.0599" y1="13.3665" x2="22.0599" y2="15.5588" gradientUnits="userSpaceOnUse">
<stop stop-color="#023298"/>
<stop offset="0.440625" stop-color="#2D7BFF"/>
<stop offset="1" stop-color="#58C38F"/>
</linearGradient>
<linearGradient id="paint11_linear_222_16901" x1="77.5995" y1="36.0344" x2="77.5995" y2="44.8082" gradientUnits="userSpaceOnUse">
<stop stop-color="#023298"/>
<stop offset="0.440625" stop-color="#2D7BFF"/>
<stop offset="1" stop-color="#58C38F"/>
</linearGradient>
<linearGradient id="paint12_linear_222_16901" x1="64.3333" y1="36.0347" x2="64.3333" y2="44.8084" gradientUnits="userSpaceOnUse">
<stop stop-color="#023298"/>
<stop offset="0.440625" stop-color="#2D7BFF"/>
<stop offset="1" stop-color="#58C38F"/>
</linearGradient>
<linearGradient id="paint13_linear_222_16901" x1="28.4689" y1="36.425" x2="28.4689" y2="38.6151" gradientUnits="userSpaceOnUse">
<stop stop-color="#023298"/>
<stop offset="0.440625" stop-color="#2D7BFF"/>
<stop offset="1" stop-color="#58C38F"/>
</linearGradient>
<linearGradient id="paint14_linear_222_16901" x1="34.8774" y1="36.4243" x2="34.8774" y2="38.615" gradientUnits="userSpaceOnUse">
<stop stop-color="#023298"/>
<stop offset="0.440625" stop-color="#2D7BFF"/>
<stop offset="1" stop-color="#58C38F"/>
</linearGradient>
<linearGradient id="paint15_linear_222_16901" x1="34.8768" y1="42.2205" x2="34.8768" y2="44.3998" gradientUnits="userSpaceOnUse">
<stop stop-color="#023298"/>
<stop offset="0.440625" stop-color="#2D7BFF"/>
<stop offset="1" stop-color="#58C38F"/>
</linearGradient>
<linearGradient id="paint16_linear_222_16901" x1="22.0598" y1="36.425" x2="22.0598" y2="38.6159" gradientUnits="userSpaceOnUse">
<stop stop-color="#023298"/>
<stop offset="0.440625" stop-color="#2D7BFF"/>
<stop offset="1" stop-color="#58C38F"/>
</linearGradient>
<linearGradient id="paint17_linear_222_16901" x1="15.5665" y1="50.2188" x2="15.5665" y2="87.8236" gradientUnits="userSpaceOnUse">
<stop stop-color="#023298"/>
<stop offset="0.440625" stop-color="#2D7BFF"/>
<stop offset="1" stop-color="#58C38F"/>
</linearGradient>
<linearGradient id="paint18_linear_222_16901" x1="11.3522" y1="54.3943" x2="11.3522" y2="71.3008" gradientUnits="userSpaceOnUse">
<stop stop-color="#023298"/>
<stop offset="0.440625" stop-color="#2D7BFF"/>
<stop offset="1" stop-color="#58C38F"/>
</linearGradient>
<linearGradient id="paint19_linear_222_16901" x1="20.5332" y1="74.8066" x2="20.5332" y2="80.2" gradientUnits="userSpaceOnUse">
<stop stop-color="#023298"/>
<stop offset="0.440625" stop-color="#2D7BFF"/>
<stop offset="1" stop-color="#58C38F"/>
</linearGradient>
<linearGradient id="paint20_linear_222_16901" x1="10.7093" y1="72.1921" x2="10.7093" y2="74.6308" gradientUnits="userSpaceOnUse">
<stop stop-color="#023298"/>
<stop offset="0.440625" stop-color="#2D7BFF"/>
<stop offset="1" stop-color="#58C38F"/>
</linearGradient>
<linearGradient id="paint21_linear_222_16901" x1="27.701" y1="44.8042" x2="27.701" y2="82.4152" gradientUnits="userSpaceOnUse">
<stop stop-color="#023298"/>
<stop offset="0.440625" stop-color="#2D7BFF"/>
<stop offset="1" stop-color="#58C38F"/>
</linearGradient>
<linearGradient id="paint22_linear_222_16901" x1="31.9159" y1="61.3271" x2="31.9159" y2="78.2336" gradientUnits="userSpaceOnUse">
<stop stop-color="#023298"/>
<stop offset="0.440625" stop-color="#2D7BFF"/>
<stop offset="1" stop-color="#58C38F"/>
</linearGradient>
<linearGradient id="paint23_linear_222_16901" x1="22.7365" y1="52.428" x2="22.7365" y2="57.8212" gradientUnits="userSpaceOnUse">
<stop stop-color="#023298"/>
<stop offset="0.440625" stop-color="#2D7BFF"/>
<stop offset="1" stop-color="#58C38F"/>
</linearGradient>
<linearGradient id="paint24_linear_222_16901" x1="32.5582" y1="58.0061" x2="32.5582" y2="60.4358" gradientUnits="userSpaceOnUse">
<stop stop-color="#023298"/>
<stop offset="0.440625" stop-color="#2D7BFF"/>
<stop offset="1" stop-color="#58C38F"/>
</linearGradient>
</defs>
</svg>
