<svg width="90" height="90" viewBox="0 0 90 90" fill="none" xmlns="http://www.w3.org/2000/svg">
<g clip-path="url(#clip0_222_16935)">
<path d="M41.1589 89.6923C40.355 89.3518 40.0812 88.7427 40.1058 87.8827C40.1549 86.5189 40.1181 85.1534 40.1181 83.751C39.0211 83.6966 38.0013 83.7089 37.0009 83.5755C35.2612 83.3541 33.6602 82.5112 32.4932 81.2022C31.3261 79.8933 30.6717 78.2065 30.6506 76.4529C30.6208 74.5837 30.626 72.7161 30.6506 70.8469C30.6506 70.3203 30.5348 70.0412 30.0135 69.7938C28.2495 68.9565 27.3403 67.512 27.3052 65.548C27.2859 64.5545 27.2754 63.5611 27.3052 62.5641C27.3335 62.3382 27.2913 62.1091 27.1845 61.9081C27.0777 61.707 26.9115 61.5439 26.7085 61.4408C19.5701 56.9949 15.1593 50.6306 13.5656 42.3672C12.698 37.9052 12.9617 33.2968 14.3326 28.9629C14.61 28.0695 15.198 27.75 15.9878 27.994C16.7776 28.238 17.069 28.8277 16.8461 29.7141C16.8022 29.8896 16.7548 30.0511 16.7074 30.2196C15.4577 34.6725 15.3682 39.1552 16.5459 43.6239C18.3906 50.6271 22.4785 55.9559 28.7532 59.5751C29.6203 60.0753 30.0152 60.6721 29.9573 61.6813C29.8888 62.8748 29.9327 64.0754 29.9415 65.2724C29.9538 66.8134 30.7296 67.6103 32.2443 67.6156C34.8367 67.6279 37.4274 67.6156 40.0672 67.6156V11.4707C38.5647 11.7077 37.0676 11.8446 35.6178 12.1903C29.1903 13.7244 24.088 17.2347 20.295 22.6477C20.1616 22.839 20.037 23.0374 19.8931 23.2217C19.3665 23.8957 18.6943 24.0343 18.0677 23.6025C17.4095 23.1462 17.2147 22.3739 17.7605 21.6964C19.2472 19.8658 20.6513 17.9298 22.3609 16.3273C27.2929 11.7041 33.2325 9.32236 40.1163 8.88707V6.57374C40.1163 5.52063 40.1163 4.46752 40.1163 3.41441C40.1163 2.36129 40.5867 1.81719 41.438 1.81192C42.2892 1.80666 42.7526 2.35252 42.7526 3.39159C42.7526 9.72664 42.7526 16.0617 42.7526 22.3967V23.1813L42.9 23.2515C43.0159 23.0163 43.144 22.7881 43.2511 22.5494C44.7722 19.0789 46.2934 15.6088 47.8146 12.1394C48.4061 10.7932 48.9168 10.5966 50.2718 11.1899C52.1411 12.0025 54.0068 12.824 55.8691 13.6471C56.6186 12.3185 56.6186 12.3185 55.748 11.2039C55.2636 10.5826 54.7756 9.96476 54.3 9.33465C53.8243 8.70453 53.8612 8.08671 54.3807 7.5075C55.3566 6.42279 56.3395 5.34335 57.3294 4.26918C57.856 3.69524 58.4931 3.64258 59.1513 4.03399C60.0026 4.54123 60.838 5.07657 61.684 5.59259C62.4616 6.06649 64.0395 5.34862 64.1799 4.4447C64.3308 3.46531 64.4537 2.48065 64.5713 1.49599C64.6731 0.65701 65.1804 0.267359 65.9755 0.209438C67.42 0.130455 68.8487 0.0707782 70.2774 0.00232603C71.1006 -0.0345329 71.6026 0.367405 71.7939 1.15548C72.0344 2.14716 72.2502 3.14586 72.496 4.1393C72.6715 4.8168 74.3793 5.43462 74.9409 5.01689C75.7395 4.42715 76.5118 3.80406 77.3052 3.20905C78.0985 2.61404 78.6321 2.62106 79.4114 3.30383C80.3978 4.17089 81.3766 5.04848 82.3478 5.93661C83.1745 6.68958 83.2359 7.18279 82.6409 8.15692C82.1846 8.90287 81.7107 9.63829 81.2491 10.3825C80.7015 11.2601 81.4457 12.8046 82.4777 12.9398C83.4044 13.0591 84.3277 13.1908 85.2562 13.2908C86.1337 13.3821 86.5567 13.8771 86.6076 14.7213C86.6907 16.1255 86.7656 17.5249 86.8323 18.9197C86.8727 19.7745 86.4532 20.2958 85.623 20.4888C84.6576 20.7153 83.6923 20.9294 82.7287 21.1681C81.8897 21.377 81.3245 23.004 81.8616 23.6973C82.4268 24.4398 83.0165 25.1647 83.58 25.9089C84.2083 26.7373 84.1995 27.2463 83.5238 28.0151C82.6322 29.019 81.7294 30.0137 80.8155 30.9989C80.0924 31.7747 79.5869 31.8256 78.6496 31.2639C78.2495 31.0252 77.8054 30.8286 77.4684 30.5162C76.2608 29.4017 75.0638 29.5087 73.7825 30.539C74.1195 31.4166 74.553 32.3469 74.8128 33.3193C74.9736 33.8874 74.9614 34.4905 74.7777 35.0516C74.109 36.7857 73.3191 38.4725 72.5118 40.3172H73.5456C78.0716 40.3172 82.5971 40.3172 87.1219 40.3172C88.6472 40.3172 89.0526 40.7156 89.0526 42.2251C89.0526 49.3774 89.0526 56.5298 89.0632 63.6822C89.0734 64.0299 89.0113 64.3759 88.8808 64.6983C88.7503 65.0206 88.5542 65.3124 88.3049 65.555C86.6831 67.2329 85.0818 68.9325 83.501 70.6538C83.2755 70.9137 82.9943 71.1193 82.6782 71.2552C82.3621 71.3911 82.0193 71.4537 81.6756 71.4384C78.4934 71.4085 75.3113 71.4384 72.1291 71.4384C71.9211 71.4303 71.7149 71.4808 71.5341 71.584C72.0607 71.6893 72.5995 71.7894 73.1313 71.9C73.8913 72.0597 74.2915 72.5196 74.2915 73.3041C74.2915 74.4742 74.2962 75.6444 74.3056 76.8145C74.3056 77.6517 73.8633 78.1081 73.0769 78.2643C72.4767 78.3836 71.8711 78.4749 71.2691 78.5872C70.0247 78.8207 69.6455 79.7158 70.3564 80.7356C70.7215 81.2621 71.0936 81.7887 71.4551 82.3152C71.8939 82.9559 71.8729 83.579 71.3235 84.1406C70.4857 84.996 69.6397 85.842 68.7855 86.6786C68.2589 87.2052 67.6411 87.2245 67.0303 86.8313C66.4897 86.4803 65.9772 86.1029 65.4507 85.7379C64.3519 84.9779 63.4427 85.3552 63.2339 86.6558C63.1549 87.1455 63.1496 87.6703 62.96 88.1126C62.7231 88.669 62.3317 89.1657 62.0052 89.6765H57.4435C57.1241 89.1499 56.7414 88.6602 56.508 88.0968C56.3184 87.6528 56.3009 87.1332 56.2184 86.6453C55.9884 85.3026 55.0705 84.9322 53.9366 85.7238C53.4347 86.0749 52.9327 86.4259 52.4237 86.7664C51.8094 87.1806 51.195 87.1508 50.6685 86.6383C49.785 85.7888 48.9174 84.9234 48.0655 84.0423C47.5565 83.5158 47.5109 82.9067 47.9304 82.2872C48.2727 81.7799 48.6325 81.2779 48.9747 80.7742C49.7821 79.6087 49.396 78.7118 47.9866 78.4679C47.4126 78.3678 46.8422 78.2485 46.2682 78.1502C45.4486 78.0115 45.0396 77.5078 45.0396 76.7039C45.0203 75.5367 45.015 74.3678 45.0396 73.2023C45.0501 72.4283 45.4609 71.9509 46.2261 71.7982C46.8281 71.6823 47.4302 71.5788 48.0322 71.4717C49.3872 71.2312 49.7365 70.3537 48.9361 69.2023C48.6026 68.7231 48.2674 68.2474 47.9374 67.7648C47.453 67.0627 47.5144 66.408 48.127 65.8025C48.9156 65.0208 49.6996 64.2363 50.4789 63.4488C51.088 62.8344 51.7444 62.7906 52.4447 63.2732C53.0696 63.705 53.6839 64.1508 54.314 64.5721C54.7054 64.8336 55.7743 64.5405 55.9972 64.1333C56.415 63.3663 56.2412 62.5536 55.5883 62.2587C51.8532 60.6206 48.1182 58.9824 44.3832 57.3442C43.8864 57.1266 43.3845 56.9212 42.7754 56.6632V57.8304C42.7754 67.8104 42.7801 77.7904 42.7895 87.7704C42.7895 88.6006 42.6139 89.2465 41.868 89.6624L41.1589 89.6923ZM49.991 13.9631C49.9135 14.0656 49.8426 14.1729 49.7786 14.2843C47.4957 19.4866 45.2175 24.6937 42.9439 29.9054C42.8128 30.2582 42.7532 30.6334 42.7684 31.0094C42.7579 38.3338 42.7684 45.6582 42.7473 52.9843C42.7473 53.5583 42.8948 53.8619 43.4494 54.0971C48.1024 56.1086 52.7396 58.1551 57.3838 60.1876C57.6067 60.2842 57.8472 60.3386 58.1895 60.4474V59.3662C58.1895 55.7189 58.1543 52.0699 58.221 48.4244C58.2351 47.7223 58.4738 46.8798 58.9231 46.3673C60.5203 44.5103 62.2229 42.7411 63.95 41.0035C64.3692 40.6215 64.903 40.3888 65.4682 40.3417C66.6565 40.2435 67.8588 40.3277 69.054 40.2961C69.2945 40.2961 69.6649 40.1575 69.7473 39.9784C70.5302 38.2952 71.2621 36.5892 72.0291 34.8515C71.6974 34.6971 71.4411 34.5689 71.1778 34.4531C68.861 33.4263 66.5406 32.4066 64.2273 31.3728C63.032 30.8462 62.8231 30.288 63.3497 29.0822C64.2957 26.9216 65.2558 24.7645 66.2089 22.6056C66.3844 22.1896 66.5599 21.7701 66.7635 21.3138L49.991 13.9631ZM80.8682 48.9246H60.9275V60.2894C62.5599 60.6299 62.5985 60.6703 62.932 62.3746C63.0004 62.7256 63.0601 63.0626 63.1285 63.4066C63.4006 64.7739 64.2606 65.1267 65.4015 64.3421C65.8824 64.0104 66.3651 63.684 66.8425 63.3487C67.5112 62.8818 68.1554 62.9029 68.7416 63.4733C69.5788 64.286 70.402 65.1144 71.2199 65.9464C71.7904 66.5309 71.822 67.175 71.3691 67.849C71.1848 68.1211 71.0181 68.4036 70.7724 68.7845C74.0669 68.7845 77.1858 68.7757 80.303 68.7845C80.8857 68.7845 80.8682 68.4335 80.8664 68.0368C80.8664 66.1395 80.8524 64.2439 80.8664 62.3465C80.877 61.4689 81.3421 60.9915 82.1126 60.9617C82.9112 60.9301 83.4553 61.4391 83.494 62.3202C83.5291 63.1065 83.5062 63.8998 83.5062 64.6827C83.5062 65.2917 83.5062 65.9007 83.5062 66.7467C84.433 65.7656 85.193 65.0354 85.8564 64.2263C86.1649 63.862 86.3494 63.4089 86.383 62.9327C86.4181 57.3003 86.4076 51.6697 86.404 46.0391C86.404 45.7705 86.3707 45.5037 86.3409 45.0562C85.4808 45.9706 84.7191 46.6973 84.0679 47.5134C83.757 47.9068 83.5733 48.3856 83.5413 48.886C83.4852 50.9554 83.5273 53.0282 83.5097 55.0993C83.5097 56.0524 83.0622 56.5456 82.2653 56.5895C81.3983 56.6386 80.884 56.1525 80.8752 55.1853C80.8542 53.1265 80.8682 51.0607 80.8682 48.9246ZM83.9187 15.7797C82.9569 15.6568 81.9775 15.5024 80.9928 15.4129C80.1679 15.3391 79.6782 14.9442 79.3868 14.1667C79.1034 13.4031 78.7509 12.6669 78.3337 11.9674C77.9002 11.2478 77.9072 10.6317 78.3776 9.94369C78.934 9.13104 79.4307 8.27627 79.9888 7.38112L78.253 5.82427C77.3754 6.48949 76.5417 7.11083 75.7237 7.75498C75.1621 8.2008 74.6127 8.25872 73.9405 7.96736C73.0892 7.59877 72.1607 7.40043 71.3288 6.99849C70.8847 6.78612 70.5056 6.34381 70.2265 5.91905C70.0141 5.59786 70.0001 5.14502 69.9071 4.74659C69.4139 2.61755 69.4156 2.61755 67.2462 2.81589C67.1971 2.81589 67.1514 2.87556 67.0619 2.93875C66.9426 3.88655 66.8092 4.86945 66.6968 5.85236C66.6091 6.62288 66.244 7.10907 65.4805 7.38463C64.6895 7.67636 63.926 8.03758 63.1988 8.46407C62.5072 8.86426 61.9034 8.85548 61.2435 8.42195C60.394 7.86556 59.5146 7.35304 58.6107 6.79665L57.0521 8.52902C57.6752 9.33465 58.2351 10.1087 58.8582 10.8441C59.4427 11.5286 59.5445 12.1991 59.1074 13.0047C58.8231 13.5313 58.6476 14.1193 58.4053 14.7389L61.4155 16.0605C63.5305 11.4777 65.9684 9.77871 69.8649 10.1262C72.9646 10.4053 75.6448 12.7169 76.4504 15.8201C76.8428 17.2977 76.7617 18.8613 76.2187 20.2905C75.385 22.5389 73.7685 24.0062 71.6043 24.926C71.8149 25.4806 71.9957 25.9791 72.1871 26.4582C72.3784 26.9374 72.5767 27.4078 72.8137 27.9782C73.5403 27.6079 74.2178 27.3218 74.8198 26.9392C75.5008 26.5126 76.1081 26.5302 76.7698 26.9637C77.6194 27.5201 78.4969 28.0344 79.4026 28.5943L80.97 26.8672C80.2978 26.0001 79.6676 25.1629 79.0112 24.3485C78.5531 23.7798 78.5426 23.2164 78.8216 22.5582C79.1604 21.7564 79.4534 20.936 79.6992 20.101C79.9011 19.4199 80.2521 18.9636 80.9753 18.8302C81.3754 18.7565 81.7704 18.6547 82.1688 18.5599C84.2311 18.0983 84.2311 18.0983 84.0065 15.9763C83.9834 15.9082 83.954 15.8423 83.9187 15.7797ZM51.7795 84.0353C53.217 83.0033 54.3403 82.0309 56.4799 82.9138C58.6195 83.7966 58.6124 85.3798 58.9617 86.9735C60.4308 87.149 60.4326 87.149 60.6801 85.859C60.7573 85.4588 60.8468 85.0586 60.9012 84.6549C60.9942 83.9528 61.4172 83.6018 62.0579 83.3841C62.7206 83.1669 63.366 82.8999 63.9886 82.5855C64.2526 82.4277 64.5585 82.3544 64.8653 82.3754C65.1721 82.3965 65.4652 82.5108 65.7052 82.7031C66.3423 83.163 66.9917 83.6035 67.6446 84.0599L68.7346 83.0331C67.7499 81.5921 66.1878 80.302 67.699 78.3959C67.9483 75.9702 69.9667 76.1563 71.585 75.8491V74.2923C69.8614 74.0185 68.4257 73.9044 67.5323 71.8034C66.6266 69.6586 67.6587 68.5511 68.617 67.1978C68.2449 66.7678 67.9255 66.3992 67.6095 66.0377C66.9075 66.5238 66.2931 66.9152 65.7087 67.3576C65.1242 67.7999 64.5169 67.8455 63.8394 67.4822C63.245 67.1755 62.6255 66.9201 61.9877 66.7187C61.6617 66.6333 61.3699 66.4495 61.1522 66.1922C60.9345 65.935 60.8015 65.6168 60.7713 65.2812C60.6625 64.544 60.4993 63.8138 60.3641 63.0977H58.8512C58.5686 64.8125 58.7002 66.7836 56.2675 67.0399C54.3509 68.5651 53.0941 66.8538 51.8796 66.1395L50.665 67.0908C51.604 68.53 53.2065 69.8148 51.6444 71.7227C51.3776 74.1431 49.3258 73.9132 47.7408 74.2484C47.5881 75.728 47.5881 75.728 48.894 75.9738C49.2661 76.044 49.6382 76.1247 50.012 76.1756C50.7334 76.2739 51.1336 76.6811 51.3548 77.3709C51.5594 78.0079 51.8196 78.6258 52.1323 79.2173C52.4833 79.8931 52.4482 80.4828 52.0007 81.0901C51.5531 81.6974 51.1494 82.3188 50.7018 82.9734L51.7795 84.0353ZM40.0689 70.3098H33.2781C33.2781 72.2615 33.3027 74.1536 33.2781 76.0457C33.2307 79.2384 35.7582 81.7975 40.0742 80.8918L40.0689 70.3098ZM62.7108 46.1251C63.0267 46.1619 63.1356 46.1848 63.2461 46.1848C69.1927 46.1848 75.1399 46.1848 81.0876 46.1848C81.3105 46.1848 81.6141 46.176 81.7423 46.0408C82.6918 45.0843 83.6063 44.0961 84.5751 43.0728C84.4759 43.0239 84.3718 42.9857 84.2645 42.9587C78.2302 42.9587 72.1958 42.9587 66.1615 42.9587C65.9074 42.9585 65.6618 43.0501 65.47 43.2167C64.5748 44.1242 63.7095 45.0649 62.7126 46.1251H62.7108ZM70.6618 22.4002C70.8724 22.316 71.0374 22.2616 71.1883 22.1861C72.1905 21.712 73.0049 20.9158 73.5016 19.9247C73.9983 18.9336 74.1486 17.8046 73.9286 16.718C73.7085 15.6315 73.1309 14.6499 72.2877 13.9301C71.4446 13.2103 70.3846 12.7936 69.277 12.7467C68.1481 12.6845 67.0311 13.0035 66.1054 13.6526C65.1797 14.3016 64.4991 15.2431 64.1729 16.3255C63.9781 16.9715 64.0886 17.3365 64.7767 17.5682C65.5454 17.828 66.2475 18.2914 67.0198 18.5283C68.8171 19.0794 70.1089 20.0729 70.4617 22.0229C70.5128 22.1567 70.5807 22.2834 70.6636 22.4002H70.6618ZM71.3639 31.636L68.4239 24.0887L66.1194 29.3139L71.3639 31.636Z" fill="url(#paint0_linear_222_16935)"/>
<path d="M20.0052 60.7035C19.7121 61.1862 19.5612 61.5811 19.3032 61.8461C17.9218 63.2643 16.5194 64.6544 15.1083 66.0498C14.422 66.7273 13.7041 66.7519 13.1197 66.1814C12.5352 65.611 12.5545 64.8844 13.2355 64.1928C14.6396 62.7623 16.0719 61.3494 17.4936 59.9295C17.9183 59.5047 18.4379 59.2274 18.9767 59.5784C19.3646 59.84 19.6367 60.291 20.0052 60.7035Z" fill="url(#paint1_linear_222_16935)"/>
<path d="M5.35305 38.7306C4.33504 38.7306 3.31528 38.7481 2.29727 38.7306C1.44601 38.706 0.965088 38.2233 0.965088 37.437C0.965088 36.6507 1.42846 36.1153 2.26392 36.1048C4.35962 36.0767 6.45589 36.0767 8.55275 36.1048C9.38822 36.1048 9.88318 36.6314 9.89196 37.4071C9.89196 38.2128 9.39173 38.713 8.48781 38.7288C7.44874 38.7464 6.40616 38.7323 5.35305 38.7306Z" fill="url(#paint2_linear_222_16935)"/>
<path d="M13.5252 7.90063C13.9746 8.16918 14.3379 8.30608 14.5924 8.55356C16.0515 9.97526 17.4949 11.4139 18.9224 12.8696C19.5631 13.5207 19.5578 14.3 18.9663 14.8793C18.4397 15.3935 17.7271 15.3777 17.1076 14.7687C15.6314 13.3136 14.1483 11.8709 12.7442 10.3579C12.5952 10.1635 12.4911 9.93843 12.4395 9.69897C12.3879 9.45951 12.3901 9.21159 12.4458 8.97305C12.5757 8.56058 13.1163 8.278 13.5252 7.90063Z" fill="url(#paint3_linear_222_16935)"/>
<path d="M53.6944 75.0101C53.69 74.2279 53.8399 73.4526 54.1354 72.7285C54.4309 72.0043 54.8663 71.3456 55.4167 70.7898C55.967 70.2341 56.6215 69.7923 57.3428 69.4898C58.064 69.1872 58.8378 69.0299 59.6199 69.0266C61.2139 69.0224 62.745 69.648 63.8798 70.7674C65.0146 71.8868 65.6612 73.4092 65.6788 75.003C65.6874 75.7922 65.5394 76.5752 65.2433 77.3067C64.9473 78.0382 64.5091 78.7038 63.9541 79.2648C63.3991 79.8259 62.7383 80.2713 62.01 80.5752C61.2817 80.8792 60.5004 81.0357 59.7112 81.0356C58.1162 81.0282 56.5888 80.3907 55.4618 79.2621C54.3348 78.1334 53.6995 76.6051 53.6944 75.0101V75.0101ZM56.3483 74.9627C56.3399 75.4082 56.4205 75.851 56.5855 76.265C56.7505 76.679 56.9965 77.0559 57.3091 77.3735C57.6217 77.6912 57.9945 77.9432 58.4058 78.1149C58.8171 78.2865 59.2585 78.3742 59.7042 78.373C60.1423 78.3767 60.5767 78.2934 60.9823 78.1277C61.3879 77.9621 61.7566 77.7176 62.0668 77.4083C62.3771 77.099 62.6228 76.7311 62.7897 76.326C62.9566 75.921 63.0414 75.4868 63.039 75.0487C63.028 74.1493 62.6635 73.2904 62.0244 72.6575C61.3853 72.0247 60.5229 71.6687 59.6234 71.6664C58.7533 71.6734 57.9211 72.0235 57.3078 72.6408C56.6945 73.2581 56.3496 74.0925 56.3483 74.9627V74.9627Z" fill="url(#paint4_linear_222_16935)"/>
</g>
<defs>
<linearGradient id="paint0_linear_222_16935" x1="51.0647" y1="0" x2="51.0647" y2="89.6923" gradientUnits="userSpaceOnUse">
<stop stop-color="#023298"/>
<stop offset="0.440625" stop-color="#2D7BFF"/>
<stop offset="1" stop-color="#58C38F"/>
</linearGradient>
<linearGradient id="paint1_linear_222_16935" x1="16.3535" y1="59.4187" x2="16.3535" y2="66.5854" gradientUnits="userSpaceOnUse">
<stop stop-color="#023298"/>
<stop offset="0.440625" stop-color="#2D7BFF"/>
<stop offset="1" stop-color="#58C38F"/>
</linearGradient>
<linearGradient id="paint2_linear_222_16935" x1="5.42852" y1="36.0837" x2="5.42852" y2="38.7384" gradientUnits="userSpaceOnUse">
<stop stop-color="#023298"/>
<stop offset="0.440625" stop-color="#2D7BFF"/>
<stop offset="1" stop-color="#58C38F"/>
</linearGradient>
<linearGradient id="paint3_linear_222_16935" x1="15.9044" y1="7.90063" x2="15.9044" y2="15.2465" gradientUnits="userSpaceOnUse">
<stop stop-color="#023298"/>
<stop offset="0.440625" stop-color="#2D7BFF"/>
<stop offset="1" stop-color="#58C38F"/>
</linearGradient>
<linearGradient id="paint4_linear_222_16935" x1="59.6868" y1="69.0266" x2="59.6868" y2="81.0356" gradientUnits="userSpaceOnUse">
<stop stop-color="#023298"/>
<stop offset="0.440625" stop-color="#2D7BFF"/>
<stop offset="1" stop-color="#58C38F"/>
</linearGradient>
<clipPath id="clip0_222_16935">
<rect width="90" height="90" fill="white"/>
</clipPath>
</defs>
</svg>
