<svg width="673" height="254" viewBox="0 0 673 254" fill="none" xmlns="http://www.w3.org/2000/svg">
<g clip-path="url(#clip0_241_377)">
<path fill-rule="evenodd" clip-rule="evenodd" d="M633.946 139.606C592.232 177.632 582.377 215.188 597.029 252.43H564.857C567.308 208.545 590.928 170.989 633.476 138.978C631.716 136.275 631.011 133.016 631.495 129.824C632.094 125.865 634.062 122.243 637.056 119.594C640.049 116.945 643.877 115.437 647.868 115.335C649.696 115.287 651.513 115.645 653.188 116.384C654.863 117.123 656.354 118.224 657.555 119.609C658.756 120.993 659.637 122.627 660.134 124.393C660.632 126.159 660.734 128.014 660.434 129.824C659.816 133.789 657.836 137.412 654.837 140.067C651.837 142.722 648.007 144.243 644.009 144.365C642.079 144.408 640.165 144.001 638.418 143.175C636.672 142.349 635.141 141.127 633.946 139.606V139.606ZM338.925 252.43L355.767 162.673H373.86L400.296 222.616L411.559 162.673H428.87L411.924 252.43H393.309L367.238 193.9L356.288 252.43H338.925ZM508.961 252.43L488.938 162.673H469.28L416.512 252.43H436.274L447.694 232.031H484.506L488.729 252.43H508.961ZM481.377 216.914H456.245L474.912 183.595L481.377 216.914ZM520.953 252.43H536.596L586.757 162.673H568.976L533.937 229.102L523.143 162.673H502.912L520.953 252.43Z" fill="#575656"/>
<path fill-rule="evenodd" clip-rule="evenodd" d="M618.146 83.6901C625.963 78.0096 634.92 74.1074 644.393 72.2555C653.867 70.4035 663.629 70.6465 673 72.9673C655.464 75.4729 638.767 82.0997 624.269 92.3076C609.77 102.515 597.882 116.016 589.572 131.707C590.569 122.101 593.642 112.829 598.577 104.536C603.512 96.2427 610.19 89.1289 618.146 83.6901V83.6901ZM92.3961 252.431H72.1649L67.7849 232.031H31.2853L19.8662 252.431H0L52.7158 162.673H72.3734L92.3961 252.431V252.431ZM554.324 27.5131C537.014 39.2408 522.471 54.6261 511.716 72.5894C500.961 90.5528 494.254 110.659 492.066 131.498C509.625 97.1739 535.475 67.8082 567.255 46.0818C598.459 23.4796 634.817 9.09197 673 4.23669C652.734 -0.817616 631.612 -1.36722 611.112 2.62635C590.613 6.61993 571.231 15.0602 554.324 27.3561V27.5131ZM64.8649 216.915L58.3993 183.595L39.7324 216.915H64.8649ZM96.1503 252.431H114.765L121.804 214.979H125.559C128.651 214.823 131.748 215.158 134.736 215.973C136.688 216.719 138.388 218.007 139.637 219.687C142.399 223.889 144.84 228.295 146.937 232.868L156.74 252.431H178.952L170.974 234.908C168.871 229.805 166.25 224.932 163.153 220.367C160.774 217.349 157.879 214.781 154.602 212.782C161.877 212.12 168.774 209.235 174.364 204.518C179.243 200.171 182.498 194.285 183.593 187.832C184.657 183.1 184.182 178.151 182.237 173.709C181.379 171.734 180.134 169.952 178.576 168.469C177.017 166.986 175.177 165.833 173.164 165.079C166.386 163.161 159.343 162.348 152.307 162.673H80.9248L84.314 177.842H143.548C151.056 177.842 155.592 177.842 157.052 178.156C158.297 178.288 159.502 178.671 160.595 179.282C161.689 179.893 162.647 180.72 163.414 181.712C164.085 182.784 164.528 183.982 164.716 185.233C164.905 186.484 164.834 187.761 164.509 188.983C164.093 191.475 163.012 193.807 161.38 195.73C159.778 197.517 157.724 198.837 155.436 199.549C149.845 200.54 144.162 200.908 138.49 200.647H106.162L96.411 252.431H96.1503ZM194.751 162.673H213.314L204.189 211.266C203.145 216.216 202.431 221.231 202.051 226.277C202.001 228.004 202.341 229.719 203.045 231.295C203.75 232.872 204.8 234.267 206.118 235.379C209.467 237.861 213.595 239.05 217.746 238.726C222.153 238.956 226.527 237.863 230.312 235.588C233.159 233.733 235.349 231.024 236.569 227.847C238.154 222.851 239.374 217.746 240.219 212.573L249.553 162.934H268.168L259.303 210.01C258.059 217.788 256.122 225.438 253.516 232.868C251.812 237.134 249.196 240.974 245.851 244.114C242.287 247.226 238.139 249.592 233.649 251.071C227.774 253.053 221.595 253.974 215.4 253.791C208.799 254.245 202.176 253.319 195.951 251.071C192.195 249.415 188.967 246.755 186.617 243.382C184.656 240.419 183.505 236.992 183.28 233.443C183.276 225.775 184.098 218.129 185.731 210.638L194.751 162.777V162.673ZM281.568 223.244H263.058C262.453 227.331 262.751 231.502 263.932 235.461C265.112 239.42 267.146 243.071 269.888 246.154C275.172 251.385 283.636 254 295.282 254C302.371 254.172 309.434 253.074 316.138 250.757C321.63 248.63 326.492 245.139 330.269 240.609C333.843 236.497 336.288 231.522 337.36 226.173C338.485 221.423 338.14 216.441 336.37 211.893C334.622 208.001 331.656 204.787 327.923 202.74C321.925 199.809 315.583 197.648 309.047 196.306C303.368 195.442 297.932 193.392 293.092 190.291C292.382 189.638 291.848 188.817 291.538 187.903C291.229 186.989 291.153 186.011 291.319 185.06C291.56 183.904 292.043 182.812 292.735 181.857C293.427 180.901 294.312 180.103 295.334 179.516C299.369 177.19 303.981 176.065 308.63 176.273C312.61 175.886 316.594 176.964 319.841 179.306C320.994 180.492 321.894 181.902 322.485 183.449C323.077 184.996 323.348 186.647 323.282 188.303H342.001C342.813 184.823 342.763 181.196 341.854 177.74C340.945 174.284 339.205 171.104 336.787 168.479C331.885 163.562 323.647 161.104 312.071 161.104C305.697 160.99 299.355 162.035 293.352 164.19C288.267 166.072 283.732 169.201 280.16 173.291C276.912 176.926 274.697 181.37 273.747 186.158C273.017 189.363 273.112 192.701 274.024 195.859C274.937 199.016 276.636 201.888 278.961 204.204C284.525 208.769 291.171 211.814 298.254 213.044C305.658 214.927 310.351 216.235 312.384 217.019C314.739 217.644 316.838 218.999 318.381 220.89C318.865 221.66 319.192 222.519 319.345 223.416C319.497 224.314 319.47 225.233 319.267 226.121C318.417 229.721 316.188 232.84 313.062 234.803C308.811 237.48 303.84 238.777 298.827 238.517C296.545 238.689 294.251 238.408 292.077 237.69C289.903 236.972 287.891 235.831 286.157 234.333C283.255 231.371 281.611 227.396 281.568 223.244V223.244ZM588.79 57.5369C576.525 65.8682 566.218 76.7835 558.591 89.5214C550.963 102.259 546.197 116.513 544.626 131.289C557.096 106.954 575.432 86.1329 597.967 70.7182C620.118 54.7226 645.918 44.5611 673 41.165C658.622 37.5778 643.636 37.1844 629.091 40.0123C614.545 42.8401 600.791 48.8211 588.79 57.5369Z" fill="#006F9D"/>
</g>
<defs>
<clipPath id="clip0_241_377">
<rect width="673" height="254" fill="white"/>
</clipPath>
</defs>
</svg>
