<svg width="400" height="151" viewBox="0 0 400 151" fill="none" xmlns="http://www.w3.org/2000/svg">
<g clip-path="url(#clip0_222_16847)">
<path fill-rule="evenodd" clip-rule="evenodd" d="M376.789 82.3956C351.943 104.958 346.128 127.257 354.847 149.344H335.745C337.197 123.291 351.37 101.021 376.521 82.0299C375.471 80.4333 375.046 78.5045 375.328 76.6135C375.957 71.8263 380.342 68 385.075 68C389.808 68 393.14 71.8604 392.524 76.6135C391.909 81.3667 387.524 85.2313 382.761 85.2313C381.614 85.2558 380.477 85.014 379.438 84.525C378.4 84.036 377.489 83.313 376.776 82.4126L376.789 82.3956ZM201.445 149.344L211.463 96.0854H222.22L237.926 131.649L244.616 96.0854H254.888L244.875 149.344H233.774L218.251 114.609L211.718 149.344H201.445ZM302.495 149.344L290.609 96.0854H278.91L247.57 149.344H259.294L266.086 137.24H287.969L290.469 149.344H302.495ZM286.105 128.278H271.172L282.285 108.508L286.105 128.278ZM309.618 149.344H318.88L348.7 96.0854H338.147L317.326 135.505L310.899 96.0854H298.908L309.618 149.344Z" fill="white"/>
<path fill-rule="evenodd" clip-rule="evenodd" d="M367.395 49.5246C377.583 42.3735 389.689 40.3966 400 43.1898C390.576 44.2017 380.363 48.0153 370.952 54.6136C361.541 61.2119 354.469 69.5236 350.297 78.0436C351.205 67.3851 357.195 56.6798 367.395 49.5246V49.5246ZM54.9288 149.792H42.8988L40.3944 137.688H18.5162L11.7244 149.792H0L31.34 96.5334H43.0304L54.9161 149.792H54.9288ZM329.454 16.3416C307.381 31.8171 294.425 54.9835 292.46 78.0436C301.489 59.6049 316.787 41.6295 337.15 27.3487C357.513 13.068 379.599 4.8158 399.975 2.63053C377.689 -3.40234 351.523 0.849158 329.454 16.3416ZM38.5393 128.726L34.7189 108.956L23.6016 128.726H38.5393ZM57.306 149.792H68.3682L72.5494 127.557H74.7822C77.3291 127.557 79.1417 127.756 80.2369 128.156C81.3951 128.607 82.4039 129.375 83.1489 130.371C83.9978 131.451 85.4482 134.06 87.4999 138.198L93.3069 149.792H106.547L101.809 139.401C99.9501 135.26 98.3937 132.379 97.14 130.758C95.7134 128.982 93.9898 127.467 92.0461 126.281C96.9787 125.614 100.909 123.964 103.804 121.371C106.695 118.783 108.626 115.291 109.285 111.465C109.879 108.313 109.611 105.514 108.482 103.068C107.966 101.899 107.221 100.845 106.291 99.9692C105.362 99.093 104.266 98.4119 103.07 97.9661C100.6 97.0138 96.4424 96.5348 90.5986 96.5291H48.1073L50.1151 105.542H85.3222C89.8091 105.542 92.4876 105.606 93.3578 105.717C95.0982 106.014 96.359 106.707 97.1315 107.813C97.9041 108.918 98.1333 110.363 97.7937 112.153C97.5448 113.63 96.8974 115.011 95.9217 116.146C94.9775 117.209 93.7582 117.99 92.3985 118.403C90.9835 118.837 87.63 119.051 82.3381 119.045H63.0875L57.306 149.792ZM115.75 96.5334H126.786L121.37 125.376C120.521 129.95 120.075 132.93 120.096 134.278C120.087 135.275 120.296 136.261 120.709 137.168C121.122 138.074 121.729 138.879 122.486 139.524C124.023 140.851 126.332 141.513 129.414 141.51C132.549 141.51 135.033 140.885 136.864 139.635C138.565 138.544 139.874 136.936 140.599 135.048C141.267 133.225 141.994 130.208 142.781 125.996L148.329 96.5334H159.366L154.106 124.508C152.901 130.902 151.753 135.42 150.664 138.062C149.643 140.593 148.088 142.873 146.105 144.745C143.995 146.655 141.53 148.131 138.85 149.086C135.958 150.166 132.344 150.703 128.009 150.697C122.782 150.697 118.929 150.111 116.45 148.937C113.971 147.764 112.132 146.239 110.932 144.363C109.754 142.608 109.066 140.569 108.941 138.457C108.788 135.413 109.275 130.908 110.401 124.942L115.75 96.5334V96.5334ZM167.312 132.471H156.343C155.939 138.423 157.299 142.958 160.423 146.076C163.547 149.194 168.57 150.753 175.492 150.753C180.246 150.753 184.34 150.104 187.773 148.806C191.069 147.591 193.995 145.54 196.262 142.853C198.404 140.419 199.868 137.463 200.507 134.282C201.138 130.924 200.947 128.095 199.934 125.796C198.896 123.487 197.128 121.584 194.904 120.38C192.581 119.062 188.844 117.787 183.693 116.554C178.553 115.321 175.382 114.13 174.206 112.991C173.765 112.59 173.438 112.08 173.256 111.512C173.074 110.944 173.044 110.338 173.17 109.756C173.307 109.067 173.591 108.415 174.002 107.846C174.413 107.277 174.941 106.803 175.552 106.456C177.606 105.178 180.242 104.538 183.46 104.535C186.573 104.535 188.791 105.134 190.116 106.333C191.364 107.455 192.013 109.271 192.051 111.766H203.19C203.934 106.863 202.848 102.947 199.93 100.02C197.012 97.0917 192.114 95.6292 185.234 95.632C181.032 95.632 177.327 96.2485 174.121 97.4814C171.088 98.5914 168.384 100.45 166.26 102.885C164.331 105.038 163.012 107.669 162.439 110.504C161.644 114.718 162.654 118.288 165.47 121.213C167.451 123.291 171.271 125.048 176.931 126.485C181.32 127.595 184.147 128.377 185.336 128.815C187.11 129.465 188.286 130.235 188.881 131.124C189.182 131.595 189.385 132.122 189.479 132.673C189.572 133.225 189.553 133.789 189.424 134.333C189.055 136.293 187.819 137.998 185.739 139.469C183.659 140.94 180.841 141.676 177.283 141.676C173.917 141.676 171.413 140.847 169.745 139.206C168.239 137.726 167.418 135.487 167.283 132.488L167.312 132.471ZM349.949 34.2617C334.289 45.239 325.099 61.6753 323.707 78.0521C330.112 64.9702 340.962 52.2157 355.407 42.0844C369.853 31.9531 385.546 26.1031 399.979 24.5513C384.162 20.2572 365.608 23.2886 349.949 34.2702V34.2617Z" fill="white"/>
</g>
<defs>
<clipPath id="clip0_222_16847">
<rect width="400" height="150.753" fill="white"/>
</clipPath>
</defs>
</svg>
