<svg width="60" height="60" viewBox="0 0 60 60" fill="none" xmlns="http://www.w3.org/2000/svg">
<mask id="mask0_222_16857" style="mask-type:alpha" maskUnits="userSpaceOnUse" x="5" y="5" width="49" height="52">
<path fill-rule="evenodd" clip-rule="evenodd" d="M5 5.00122H53.2121V56.8037H5V5.00122Z" fill="white"/>
</mask>
<g mask="url(#mask0_222_16857)">
<path fill-rule="evenodd" clip-rule="evenodd" d="M18.0056 43.6012C18.5781 43.6012 19.1506 43.6737 19.7106 43.8237C21.4006 44.2787 22.8681 45.4087 23.7381 46.9262C24.3031 47.8787 24.6156 48.9912 24.6256 50.1262C24.6256 51.7512 25.9306 53.0537 27.5356 53.0537H30.6681C32.2656 53.0537 33.5706 51.7587 33.5781 50.1612C33.5681 48.3962 34.2581 46.7187 35.5206 45.4562C36.7656 44.2112 38.5056 43.4637 40.2456 43.5137C41.3856 43.5412 42.4831 43.8487 43.4506 44.3987C44.8431 45.1962 46.6206 44.7212 47.4256 43.3462L49.0856 40.5787C49.4556 39.9412 49.5631 39.1412 49.3656 38.4037C49.1706 37.6662 48.6806 37.0262 48.0206 36.6487C46.4756 35.7587 45.3731 34.3237 44.9156 32.6037C44.4631 30.9162 44.7106 29.0737 45.5931 27.5562C46.1681 26.5562 47.0106 25.7137 48.0206 25.1337C49.3756 24.3412 49.8506 22.5687 49.0631 21.1887C49.0306 21.1337 49.0006 21.0762 48.9756 21.0162L47.5106 18.4762C46.7131 17.0887 44.9381 16.6112 43.5456 17.4037C42.0406 18.2937 40.2506 18.5487 38.5306 18.0962C36.8131 17.6512 35.3731 16.5637 34.4756 15.0287C33.9006 14.0687 33.5881 12.9512 33.5781 11.8137C33.6006 10.9587 33.3006 10.1912 32.7556 9.62872C32.2131 9.06872 31.4506 8.75122 30.6681 8.75122H27.5356C26.7606 8.75122 26.0356 9.05372 25.4881 9.59872C24.9431 10.1462 24.6456 10.8737 24.6506 11.6487C24.5981 15.3037 21.6106 18.2462 17.9931 18.2462C16.8331 18.2337 15.7156 17.9212 14.7456 17.3412C13.3831 16.5662 11.6031 17.0437 10.8056 18.4312L9.11306 21.2137C8.33806 22.5587 8.81306 24.3362 10.1931 25.1387C12.2406 26.3237 13.5181 28.5337 13.5181 30.9037C13.5181 33.2737 12.2406 35.4812 10.1881 36.6687C8.81556 37.4637 8.34056 39.2312 9.13556 40.6062L10.7131 43.3262C11.1031 44.0287 11.7406 44.5362 12.4781 44.7437C13.2131 44.9487 14.0231 44.8612 14.6981 44.4862C15.6906 43.9037 16.8456 43.6012 18.0056 43.6012M30.6681 56.8037H27.5356C23.8631 56.8037 20.8756 53.8187 20.8756 50.1462C20.8706 49.6937 20.7406 49.2237 20.4981 48.8162C20.1056 48.1312 19.4706 47.6412 18.7381 47.4462C18.0106 47.2512 17.2131 47.3587 16.5581 47.7387C14.9881 48.6137 13.1406 48.8262 11.4506 48.3512C9.76306 47.8737 8.30556 46.7137 7.45056 45.1762L5.88806 42.4837C4.06056 39.3137 5.14806 35.2512 8.31305 33.4212C9.21055 32.9037 9.76805 31.9387 9.76805 30.9037C9.76805 29.8687 9.21055 28.9012 8.31305 28.3837C5.14556 26.5437 4.06056 22.4712 5.88556 19.3012L7.58056 16.5187C9.38305 13.3837 13.4581 12.2787 16.6356 14.1037C17.0681 14.3612 17.5381 14.4912 18.0156 14.4962C19.5731 14.4962 20.8756 13.2112 20.9006 11.6312C20.8906 9.88872 21.5781 8.21622 22.8306 6.95372C24.0881 5.69372 25.7581 5.00122 27.5356 5.00122H30.6681C32.4581 5.00122 34.1981 5.73622 35.4456 7.01372C36.6906 8.29872 37.3781 10.0612 37.3256 11.8487C37.3306 12.2512 37.4631 12.7162 37.7031 13.1237C38.1006 13.7987 38.7281 14.2737 39.4731 14.4687C40.2181 14.6537 40.9981 14.5537 41.6606 14.1612C44.8606 12.3337 48.9331 13.4287 50.7605 16.6037L52.3181 19.3012C52.3581 19.3737 52.3931 19.4437 52.4231 19.5162C54.0781 22.6437 52.9731 26.5812 49.8981 28.3787C49.4506 28.6362 49.0881 28.9962 48.8381 29.4312C48.4506 30.1037 48.3431 30.9037 48.5381 31.6387C48.7381 32.3887 49.2156 33.0112 49.8881 33.3962C51.4056 34.2687 52.5381 35.7387 52.9906 37.4362C53.4431 39.1312 53.1956 40.9712 52.3131 42.4887L50.6531 45.2537C48.8256 48.3937 44.7531 49.4812 41.5856 47.6512C41.1631 47.4087 40.6756 47.2762 40.1906 47.2637H40.1756C39.4531 47.2637 38.7106 47.5712 38.1706 48.1087C37.6231 48.6562 37.3231 49.3862 37.3281 50.1612C37.3106 53.8337 34.3231 56.8037 30.6681 56.8037" fill="url(#paint0_linear_222_16857)"/>
</g>
<path fill-rule="evenodd" clip-rule="evenodd" d="M29.1127 26.1865C26.5127 26.1865 24.3977 28.304 24.3977 30.904C24.3977 33.504 26.5127 35.6165 29.1127 35.6165C31.7127 35.6165 33.8277 33.504 33.8277 30.904C33.8277 28.304 31.7127 26.1865 29.1127 26.1865M29.1127 39.3665C24.4452 39.3665 20.6477 35.5715 20.6477 30.904C20.6477 26.2365 24.4452 22.4365 29.1127 22.4365C33.7802 22.4365 37.5777 26.2365 37.5777 30.904C37.5777 35.5715 33.7802 39.3665 29.1127 39.3665" fill="url(#paint1_linear_222_16857)"/>
<defs>
<linearGradient id="paint0_linear_222_16857" x1="29.106" y1="5.00122" x2="29.106" y2="56.8037" gradientUnits="userSpaceOnUse">
<stop stop-color="#023298"/>
<stop offset="0.440625" stop-color="#2D7BFF"/>
<stop offset="1" stop-color="#58C38F"/>
</linearGradient>
<linearGradient id="paint1_linear_222_16857" x1="29.1127" y1="22.4365" x2="29.1127" y2="39.3665" gradientUnits="userSpaceOnUse">
<stop stop-color="#023298"/>
<stop offset="0.440625" stop-color="#2D7BFF"/>
<stop offset="1" stop-color="#58C38F"/>
</linearGradient>
</defs>
</svg>
