<svg width="50" height="50" viewBox="0 0 50 50" fill="none" xmlns="http://www.w3.org/2000/svg">
<path d="M44.4906 5.21246C43.4485 4.14291 41.9062 3.74445 40.4681 4.16388L6.93357 13.9157C5.41628 14.3372 4.34084 15.5473 4.05114 17.0845C3.75519 18.649 4.78894 20.635 6.1395 21.4654L16.625 27.91C17.7005 28.5706 19.0885 28.405 19.9785 27.5074L31.9855 15.4256C32.5899 14.7965 33.5903 14.7965 34.1947 15.4256C34.7991 16.0338 34.7991 17.0195 34.1947 17.6486L22.1669 29.7325C21.2749 30.6279 21.1081 32.0225 21.7646 33.1047L28.1714 43.6953C28.9217 44.9536 30.2139 45.6667 31.6312 45.6667C31.7979 45.6667 31.9855 45.6667 32.1522 45.6457C33.7779 45.436 35.0701 44.3245 35.5495 42.7516L45.491 9.25998C45.9287 7.83391 45.5327 6.28202 44.4906 5.21246" fill="white"/>
</svg>
