<svg width="44" height="44" viewBox="0 0 44 44" fill="none" xmlns="http://www.w3.org/2000/svg">
<path d="M7.5 15C6.1193 15 5 16.1417 5 17.55V29.45C5 30.8583 6.1193 32 7.5 32C8.8807 32 10 30.8583 10 29.45V17.55C10 16.1417 8.8807 15 7.5 15Z" fill="url(#paint0_linear_285_47)"/>
<path d="M36.5 15C35.1193 15 34 16.1417 34 17.55V29.45C34 30.8583 35.1193 32 36.5 32C37.8807 32 39 30.8583 39 29.45V17.55C39 16.1417 37.8808 15 36.5 15Z" fill="url(#paint1_linear_285_47)"/>
<path d="M31.1666 15H12.8334C12.3731 15 12 15.3778 12 15.8438V29.3437C11.9996 31.3488 13.393 33.0771 15.3333 33.4781V39.4687C15.3333 40.8667 16.4526 42 17.8333 42C19.214 42 20.3333 40.8667 20.3333 39.4687V33.5625H23.6667V39.4687C23.6667 40.8667 24.786 42 26.1667 42C27.5474 42 28.6667 40.8667 28.6667 39.4687V33.4781C30.607 33.0771 32.0004 31.3488 32 29.3437V15.8438C31.9999 15.3778 31.6268 15 31.1666 15Z" fill="url(#paint2_linear_285_47)"/>
<path d="M28.0582 5.55882L30.0898 3.47249C30.4208 3.14385 30.43 2.60171 30.1103 2.26143C29.7905 1.92123 29.2631 1.91184 28.932 2.2404C28.925 2.2473 28.9182 2.25429 28.9115 2.26143L26.5449 4.69382C23.6463 3.39974 20.3552 3.39974 17.4567 4.69382L15.0901 2.25975C14.7591 1.93111 14.2315 1.94058 13.9117 2.28078C13.5999 2.61271 13.5999 3.13887 13.9117 3.47072L15.9417 5.55874C13.467 7.24167 11.9848 10.0938 12.0001 13.1435C12.0001 13.6165 12.3732 14 12.8335 14H31.1665C31.6268 14 31.9999 13.6165 31.9999 13.1435C32.0151 10.0938 30.533 7.24175 28.0582 5.55882Z" fill="url(#paint3_linear_285_47)"/>
<path d="M17.4177 9.17671C17.9239 9.17671 18.3342 8.76639 18.3342 8.26023C18.3342 7.75407 17.9239 7.34375 17.4177 7.34375C16.9115 7.34375 16.5012 7.75407 16.5012 8.26023C16.5012 8.76639 16.9115 9.17671 17.4177 9.17671Z" fill="#FAFAFA"/>
<path d="M26.5823 9.17671C27.0884 9.17671 27.4987 8.76639 27.4987 8.26023C27.4987 7.75407 27.0884 7.34375 26.5823 7.34375C26.0761 7.34375 25.6658 7.75407 25.6658 8.26023C25.6658 8.76639 26.0761 9.17671 26.5823 9.17671Z" fill="#FAFAFA"/>
<defs>
<linearGradient id="paint0_linear_285_47" x1="5" y1="15" x2="10.1098" y2="15.0331" gradientUnits="userSpaceOnUse">
<stop stop-color="#2D7BFF"/>
<stop offset="1" stop-color="#58C38F"/>
</linearGradient>
<linearGradient id="paint1_linear_285_47" x1="34" y1="15" x2="39.1098" y2="15.0331" gradientUnits="userSpaceOnUse">
<stop stop-color="#2D7BFF"/>
<stop offset="1" stop-color="#58C38F"/>
</linearGradient>
<linearGradient id="paint2_linear_285_47" x1="12" y1="15" x2="32.4348" y2="15.3332" gradientUnits="userSpaceOnUse">
<stop stop-color="#2D7BFF"/>
<stop offset="1" stop-color="#58C38F"/>
</linearGradient>
<linearGradient id="paint3_linear_285_47" x1="12" y1="2" x2="32.4128" y2="2.74891" gradientUnits="userSpaceOnUse">
<stop stop-color="#2D7BFF"/>
<stop offset="1" stop-color="#58C38F"/>
</linearGradient>
</defs>
</svg>
