<svg width="44" height="44" viewBox="0 0 44 44" fill="none" xmlns="http://www.w3.org/2000/svg">
<path d="M29.1233 3C27.0974 3.14012 24.7296 4.43686 23.3497 6.12546C22.091 7.65732 21.0555 9.93254 21.4592 12.1436C23.6727 12.2125 25.9598 10.8849 27.2851 9.1678C28.5248 7.56944 29.4629 5.30847 29.1233 3Z" fill="url(#paint0_linear_285_71)"/>
<path d="M37.1295 15.7452C35.1844 13.3061 32.4508 11.8906 29.8692 11.8906C26.4611 11.8906 25.0195 13.5222 22.6516 13.5222C20.2102 13.5222 18.3553 11.8954 15.408 11.8954C12.5129 11.8954 9.43018 13.6647 7.47558 16.6904C4.72774 20.9511 5.19798 28.9619 9.65105 35.7852C11.2447 38.2267 13.3726 40.9721 16.1561 40.9959C18.6332 41.0196 19.3314 39.407 22.6873 39.3904C26.0431 39.3714 26.6796 41.0173 29.1519 40.9911C31.9378 40.9698 34.1821 37.9274 35.7757 35.486C36.9181 33.7356 37.3432 32.8545 38.2291 30.8785C31.7858 28.4252 30.7527 19.2625 37.1295 15.7452Z" fill="url(#paint1_linear_285_71)"/>
<defs>
<linearGradient id="paint0_linear_285_71" x1="21.3706" y1="3" x2="29.3628" y2="3.15048" gradientUnits="userSpaceOnUse">
<stop stop-color="#2D7BFF"/>
<stop offset="1" stop-color="#58C38F"/>
</linearGradient>
<linearGradient id="paint1_linear_285_71" x1="5.77124" y1="11.8906" x2="38.9236" y2="12.7045" gradientUnits="userSpaceOnUse">
<stop stop-color="#2D7BFF"/>
<stop offset="1" stop-color="#58C38F"/>
</linearGradient>
</defs>
</svg>
