<svg width="44" height="44" viewBox="0 0 44 44" fill="none" xmlns="http://www.w3.org/2000/svg">
<path fill-rule="evenodd" clip-rule="evenodd" d="M32.5072 13.7212L26.9971 7.98048V10.3754C26.9971 12.2161 28.4931 13.7157 30.3338 13.7212H32.5072ZM25.3822 3.68813H13.9115H13.8785C9.36479 3.68813 5.61013 7.35113 5.50196 11.8996V31.5548C5.40296 36.1601 9.06962 39.9881 13.675 40.0871H13.906H28.5983C33.2055 39.9221 36.7915 36.184 36.7621 31.5841V14.7358C36.7621 14.382 36.6246 14.0391 36.3808 13.7843L27.0931 4.1098C26.8328 3.8403 26.4753 3.68813 26.1013 3.68813H25.8621C25.7842 3.6744 25.704 3.66724 25.6221 3.66724C25.5403 3.66724 25.4601 3.6744 25.3822 3.68813ZM24.2471 6.43813V10.3754C24.2471 13.7267 26.9733 16.4621 30.3301 16.4712H34.0124V31.5933C34.0326 34.7026 31.6108 37.2271 28.5509 37.3371H13.7321C10.6429 37.2693 8.18628 34.7026 8.25228 31.5841V11.9326C8.32378 8.89847 10.8464 6.43813 13.8843 6.43813H13.9063H24.2471Z" fill="white"/>
<path fill-rule="evenodd" clip-rule="evenodd" d="M20.428 30.6172C19.669 30.6172 19.053 30.0012 19.053 29.2422V18.167C19.053 17.408 19.669 16.792 20.428 16.792C21.187 16.792 21.803 17.408 21.803 18.167V29.2422C21.803 30.0012 21.187 30.6172 20.428 30.6172" fill="white"/>
<path fill-rule="evenodd" clip-rule="evenodd" d="M20.426 30.6151C20.0611 30.6151 19.7091 30.4703 19.4525 30.21L15.1533 25.8943C14.618 25.3553 14.6198 24.4845 15.157 23.9491C15.696 23.4138 16.5668 23.4138 17.1021 23.9528L20.426 27.2931L23.7498 23.9528C24.2851 23.4138 25.156 23.4138 25.695 23.9491C26.2321 24.4845 26.234 25.3553 25.6986 25.8943L21.3995 30.21C21.1428 30.4703 20.7908 30.6151 20.426 30.6151" fill="white"/>
</svg>
