<svg width="44" height="44" viewBox="0 0 44 44" fill="none" xmlns="http://www.w3.org/2000/svg">
<path d="M36.2818 12.6523C33.234 8.24794 28.8903 4.90191 23.854 3.07886C24.2444 3.29189 30.5436 7.35182 33.0907 14.3144C35.6378 21.2769 33.4572 28.4119 33.1485 29.2273C32.8698 30.1707 32.9175 31.1806 33.2841 32.0935C33.6506 33.0065 34.3144 33.769 35.1681 34.2578C36.8888 35.1409 39.4086 33.798 40.12 31.0085C40.6795 29.8157 41.1153 19.7615 36.2818 12.6523Z" fill="#005AA0"/>
<path d="M5.46449 15.6953C3.16916 20.5344 2.43769 25.9682 3.37165 31.242C3.36143 30.7973 3.73575 23.3125 8.49773 17.6301C13.2597 11.9478 20.5304 10.2762 21.3915 10.1367C22.3481 9.90738 23.1994 9.362 23.8076 8.58881C24.4158 7.81562 24.7453 6.85984 24.7428 5.87613C24.6487 3.9444 22.2281 2.4314 19.4554 3.20762C18.143 3.3178 9.21252 7.95874 5.46449 15.6953Z" fill="#E41648"/>
<path d="M23.5261 40.8703C28.8646 40.4381 33.9361 38.3541 38.0361 34.9078C37.6562 35.1388 30.9873 38.558 23.685 37.2758C16.3827 35.9937 11.2993 30.5333 10.7478 29.8567C10.0706 29.1432 9.17256 28.679 8.19888 28.5391C7.22519 28.3992 6.23277 28.5917 5.38208 29.0857C3.75619 30.1336 3.65651 32.9866 5.71515 34.9994C6.46704 36.0808 14.952 41.4934 23.5261 40.8703Z" fill="#E41648"/>
<path d="M37.7692 32.7985C37.7728 32.7944 37.7665 32.7997 37.7559 32.8086C37.7665 32.8022 37.7728 32.7979 37.7692 32.7985Z" fill="#1D1D1B"/>
</svg>
