<svg width="44" height="44" viewBox="0 0 44 44" fill="none" xmlns="http://www.w3.org/2000/svg">
<path fill-rule="evenodd" clip-rule="evenodd" d="M32.5097 13.7212L26.9971 7.97908V10.3754C26.9971 12.2161 28.4949 13.7157 30.3337 13.7212H32.5097ZM25.3815 3.68823H13.9125H13.8813C9.36583 3.68823 5.60933 7.35123 5.503 11.8997V31.5109C5.40217 36.1364 9.0835 39.9827 13.7072 40.0872H13.907L28.6085 40.0854C33.2157 39.8984 36.798 36.1401 36.765 31.5402V14.7359C36.765 14.3821 36.6275 14.0392 36.3818 13.7844L27.096 4.1099C26.8357 3.8404 26.4782 3.68823 26.1042 3.68823H25.8626C25.7845 3.67443 25.7041 3.66724 25.6221 3.66724C25.54 3.66724 25.4597 3.67443 25.3815 3.68823ZM24.2471 6.43823V10.3754C24.2471 13.7267 26.9751 16.4621 30.3301 16.4712H34.0153V31.5512C34.0373 34.6679 31.6136 37.2107 28.5538 37.3372H13.7698C10.6605 37.2676 8.18548 34.6807 8.25331 31.5402V11.9327C8.32481 8.89857 10.8475 6.43823 13.8853 6.43823H13.9073H24.2471Z" fill="white"/>
<path fill-rule="evenodd" clip-rule="evenodd" d="M25.2796 29.532H15.3796C14.6206 29.532 14.0046 28.916 14.0046 28.157C14.0046 27.398 14.6206 26.782 15.3796 26.782H25.2796C26.0386 26.782 26.6546 27.398 26.6546 28.157C26.6546 28.916 26.0386 29.532 25.2796 29.532" fill="white"/>
<path fill-rule="evenodd" clip-rule="evenodd" d="M21.5308 22.6533H15.3782C14.6192 22.6533 14.0032 22.0373 14.0032 21.2783C14.0032 20.5193 14.6192 19.9033 15.3782 19.9033H21.5308C22.2898 19.9033 22.9058 20.5193 22.9058 21.2783C22.9058 22.0373 22.2898 22.6533 21.5308 22.6533" fill="white"/>
</svg>
