<svg width="25" height="25" viewBox="0 0 25 25" fill="none" xmlns="http://www.w3.org/2000/svg">
<g clip-path="url(#clip0_346_429)">
<path d="M5.45666 0.400062C4.47859 -0.140532 3.33022 -0.128033 2.3584 0.407874L13.7484 10.9151L17.5747 7.08875L5.45666 0.400062Z" fill="white"/>
<path d="M1.21946 1.48242C0.941348 1.93708 0.781982 2.45737 0.781982 3.0089V21.9859C0.781982 22.5203 0.927287 23.0296 1.18977 23.4749L12.6438 12.0209L1.21946 1.48242Z" fill="white"/>
<path d="M22.6479 9.88846L18.9981 7.87451L14.8967 11.9743L19.923 16.61L22.6494 15.1054C23.6306 14.5616 24.2181 13.5867 24.2181 12.4961C24.2165 11.4056 23.6306 10.4306 22.6479 9.88846Z" fill="white"/>
<path d="M13.7924 13.0806L2.30713 24.5659C2.80554 24.8502 3.35238 25.0002 3.90235 25.0002C4.43357 25.0002 4.96792 24.8658 5.45695 24.5955L18.4828 17.4069L13.7924 13.0806Z" fill="white"/>
</g>
<defs>
<clipPath id="clip0_346_429">
<rect width="25" height="25" fill="white"/>
</clipPath>
</defs>
</svg>
