<svg width="44" height="44" viewBox="0 0 44 44" fill="none" xmlns="http://www.w3.org/2000/svg">
<g id="write">
<g id="Edit">
<path id="Fill 1" fill-rule="evenodd" clip-rule="evenodd" d="M38.043 40.2227H24.7458C23.9868 40.2227 23.3708 39.6067 23.3708 38.8477C23.3708 38.0887 23.9868 37.4727 24.7458 37.4727H38.043C38.802 37.4727 39.418 38.0887 39.418 38.8477C39.418 39.6067 38.802 40.2227 38.043 40.2227" fill="#575656"/>
<g id="Group 5">
<mask id="mask0_375_412" style="mask-type:alpha" maskUnits="userSpaceOnUse" x="3" y="5" width="33" height="36">
<path id="Clip 4" fill-rule="evenodd" clip-rule="evenodd" d="M3.66724 5.50024H35.165V40.2227H3.66724V5.50024Z" fill="white"/>
</mask>
<g mask="url(#mask0_375_412)">
<path id="Fill 3" fill-rule="evenodd" clip-rule="evenodd" d="M24.0361 9.19742L6.77524 30.7849C6.46174 31.1773 6.34624 31.6833 6.46174 32.1691L7.71024 37.4583L13.2817 37.3886C13.8116 37.3831 14.3011 37.1466 14.6256 36.7433C20.5234 29.3641 31.7672 15.2951 32.0862 14.8826C32.3869 14.3949 32.5042 13.7056 32.3466 13.0419C32.1852 12.3618 31.7617 11.7843 31.1512 11.4158C31.0211 11.3259 27.9319 8.92792 27.8366 8.85276C26.6742 7.92142 24.9784 8.08276 24.0361 9.19742V9.19742ZM6.62491 40.2229C5.98874 40.2229 5.43507 39.7866 5.28657 39.1651L3.78507 32.8016C3.47524 31.4834 3.78324 30.1231 4.62841 29.0671L21.8984 7.46676C21.9057 7.45942 21.9112 7.45026 21.9186 7.44292C23.8124 5.17876 27.2371 4.84509 29.5471 6.69859C29.6387 6.77009 32.7059 9.15342 32.7059 9.15342C33.8206 9.81709 34.6914 11.0033 35.0214 12.4076C35.3496 13.7973 35.1112 15.2309 34.3467 16.4428C34.2899 16.5326 34.2404 16.6096 16.7724 38.4629C15.9309 39.5116 14.6696 40.1221 13.3147 40.1386L6.64324 40.2229H6.62491Z" fill="#575656"/>
</g>
</g>
<path id="Fill 6" fill-rule="evenodd" clip-rule="evenodd" d="M29.7428 21.4221C29.4494 21.4221 29.1561 21.3286 28.9049 21.1379L18.9096 13.4599C18.3083 12.9979 18.1946 12.1363 18.6566 11.5313C19.1204 10.9299 19.9821 10.8181 20.5853 11.2801L30.5824 18.9563C31.1838 19.4183 31.2974 20.2818 30.8336 20.8849C30.5641 21.2369 30.1553 21.4221 29.7428 21.4221" fill="#575656"/>
</g>
</g>
</svg>
