<svg width="50" height="54" viewBox="0 0 50 54" fill="none" xmlns="http://www.w3.org/2000/svg">
<g filter="url(#filter0_d_241_329)">
<path fill-rule="evenodd" clip-rule="evenodd" d="M7.29175 21.4954C7.29175 11.9124 15.2998 4.16675 24.9864 4.16675C34.7003 4.16675 42.7084 11.9124 42.7084 21.4954C42.7084 26.3244 40.9522 30.8076 38.0615 34.6075C34.8726 38.7991 30.9421 42.4511 26.5179 45.3176C25.5053 45.9801 24.5915 46.0301 23.4802 45.3176C19.0308 42.4511 15.1003 38.7991 11.9386 34.6075C9.04588 30.8076 7.29175 26.3244 7.29175 21.4954ZM19.1547 22.035C19.1547 25.2453 21.7744 27.7702 24.9864 27.7702C28.2006 27.7702 30.8454 25.2453 30.8454 22.035C30.8454 18.8497 28.2006 16.2018 24.9864 16.2018C21.7744 16.2018 19.1547 18.8497 19.1547 22.035Z" fill="#409AB0"/>
</g>
<defs>
<filter id="filter0_d_241_329" x="3.29175" y="4.16675" width="43.4167" height="49.6667" filterUnits="userSpaceOnUse" color-interpolation-filters="sRGB">
<feFlood flood-opacity="0" result="BackgroundImageFix"/>
<feColorMatrix in="SourceAlpha" type="matrix" values="0 0 0 0 0 0 0 0 0 0 0 0 0 0 0 0 0 0 127 0" result="hardAlpha"/>
<feOffset dy="4"/>
<feGaussianBlur stdDeviation="2"/>
<feComposite in2="hardAlpha" operator="out"/>
<feColorMatrix type="matrix" values="0 0 0 0 0 0 0 0 0 0 0 0 0 0 0 0 0 0 0.25 0"/>
<feBlend mode="normal" in2="BackgroundImageFix" result="effect1_dropShadow_241_329"/>
<feBlend mode="normal" in="SourceGraphic" in2="effect1_dropShadow_241_329" result="shape"/>
</filter>
</defs>
</svg>
