<svg width="60" height="60" viewBox="0 0 60 60" fill="none" xmlns="http://www.w3.org/2000/svg">
<path fill-rule="evenodd" clip-rule="evenodd" d="M28.0284 28.0298L25.4109 36.3973L33.7759 33.7773L36.3959 25.4098L28.0284 28.0298ZM22.5509 41.1298C22.0609 41.1298 21.5809 40.9373 21.2234 40.5823C20.7309 40.0873 20.5509 39.3598 20.7609 38.6973L24.7434 25.9748C24.9259 25.3848 25.3859 24.9273 25.9709 24.7448L38.6934 20.7623C39.3609 20.5498 40.0859 20.7323 40.5809 21.2248C41.0734 21.7198 41.2534 22.4473 41.0434 23.1098L37.0634 35.8323C36.8809 36.4198 36.4184 36.8798 35.8334 37.0623L23.1109 41.0448C22.9259 41.1023 22.7359 41.1298 22.5509 41.1298V41.1298Z" fill="url(#paint0_linear_222_16856)"/>
<mask id="mask0_222_16856" style="mask-type:alpha" maskUnits="userSpaceOnUse" x="5" y="5" width="52" height="52">
<path fill-rule="evenodd" clip-rule="evenodd" d="M5 5H56.8045V56.8043H5V5Z" fill="white"/>
</mask>
<g mask="url(#mask0_222_16856)">
<path fill-rule="evenodd" clip-rule="evenodd" d="M30.902 8.75C18.687 8.75 8.74951 18.69 8.74951 30.9025C8.74951 43.1175 18.687 53.055 30.902 53.055C43.117 53.055 53.0545 43.1175 53.0545 30.9025C53.0545 18.69 43.117 8.75 30.902 8.75M30.902 56.805C16.6195 56.805 4.99951 45.185 4.99951 30.9025C4.99951 16.62 16.6195 5 30.902 5C45.1845 5 56.8045 16.62 56.8045 30.9025C56.8045 45.185 45.1845 56.805 30.902 56.805" fill="url(#paint1_linear_222_16856)"/>
</g>
<defs>
<linearGradient id="paint0_linear_222_16856" x1="30.9022" y1="20.6748" x2="30.9022" y2="41.1298" gradientUnits="userSpaceOnUse">
<stop stop-color="#023298"/>
<stop offset="0.440625" stop-color="#2D7BFF"/>
<stop offset="1" stop-color="#58C38F"/>
</linearGradient>
<linearGradient id="paint1_linear_222_16856" x1="30.902" y1="5" x2="30.902" y2="56.805" gradientUnits="userSpaceOnUse">
<stop stop-color="#023298"/>
<stop offset="0.440625" stop-color="#2D7BFF"/>
<stop offset="1" stop-color="#58C38F"/>
</linearGradient>
</defs>
</svg>
