<svg width="60" height="60" viewBox="0 0 60 60" fill="none" xmlns="http://www.w3.org/2000/svg">
<path fill-rule="evenodd" clip-rule="evenodd" d="M29.3748 11.25C29.1473 11.25 28.5873 11.3125 28.2898 11.9075L23.7248 21.035C23.0023 22.4775 21.6098 23.48 19.9998 23.71L9.77979 25.1825C9.10479 25.28 8.87479 25.78 8.80479 25.99C8.74229 26.1925 8.64229 26.7075 9.10729 27.1525L16.4973 34.2525C17.6748 35.385 18.2098 37.0175 17.9298 38.615L16.1898 48.64C16.0823 49.2675 16.4748 49.6325 16.6498 49.7575C16.8348 49.8975 17.3298 50.175 17.9423 49.855L27.0798 45.1175C28.5198 44.375 30.2348 44.375 31.6698 45.1175L40.8048 49.8525C41.4198 50.17 41.9148 49.8925 42.1023 49.7575C42.2773 49.6325 42.6698 49.2675 42.5623 48.64L40.8173 38.615C40.5373 37.0175 41.0723 35.385 42.2498 34.2525L49.6398 27.1525C50.1073 26.7075 50.0073 26.19 49.9423 25.99C49.8748 25.78 49.6448 25.28 48.9698 25.1825L38.7498 23.71C37.1423 23.48 35.7498 22.4775 35.0273 21.0325L30.4573 11.9075C30.1623 11.3125 29.6023 11.25 29.3748 11.25M17.3673 53.75C16.3348 53.75 15.3098 53.425 14.4323 52.785C12.9173 51.675 12.1748 49.8425 12.4973 47.9975L14.2373 37.9725C14.3023 37.6 14.1748 37.2225 13.8998 36.9575L6.50979 29.8575C5.14979 28.555 4.66229 26.63 5.23729 24.8425C5.81729 23.035 7.35229 21.7425 9.24479 21.4725L19.4648 20C19.8598 19.945 20.1998 19.7025 20.3698 19.3575L24.9373 10.2275C25.7798 8.545 27.4798 7.5 29.3748 7.5V7.5C31.2698 7.5 32.9698 8.545 33.8123 10.2275L38.3823 19.355C38.5548 19.7025 38.8923 19.945 39.2848 20L49.5048 21.4725C51.3973 21.7425 52.9323 23.035 53.5123 24.8425C54.0873 26.63 53.5973 28.555 52.2373 29.8575L44.8473 36.9575C44.5723 37.2225 44.4473 37.6 44.5123 37.97L46.2548 47.9975C46.5748 49.845 45.8323 51.6775 44.3148 52.785C42.7773 53.9125 40.7748 54.065 39.0773 53.18L29.9448 48.4475C29.5873 48.2625 29.1598 48.2625 28.8023 48.4475L19.6698 53.1825C18.9398 53.5625 18.1523 53.75 17.3673 53.75" fill="url(#paint0_linear_222_16855)"/>
<defs>
<linearGradient id="paint0_linear_222_16855" x1="29.3746" y1="7.5" x2="29.3746" y2="53.7511" gradientUnits="userSpaceOnUse">
<stop stop-color="#023298"/>
<stop offset="0.440625" stop-color="#2D7BFF"/>
<stop offset="1" stop-color="#58C38F"/>
</linearGradient>
</defs>
</svg>
