<svg width="510" height="450" viewBox="0 0 510 450" fill="none" xmlns="http://www.w3.org/2000/svg">
<g clip-path="url(#clip0_222_20602)">
<g filter="url(#filter0_d_222_20602)">
<path d="M0 76.9473C0 63.1401 11.1929 51.9473 25 51.9473H475C488.807 51.9473 500 63.1401 500 76.9473V344.151C500 355.058 492.929 364.707 482.528 367.991L257.528 439.044C252.629 440.591 247.371 440.591 242.472 439.044L17.4717 367.991C7.07098 364.706 0 355.058 0 344.151V76.9473Z" fill="#F0F6F9"/>
</g>
<path fill-rule="evenodd" clip-rule="evenodd" d="M392.745 300.79L357.554 258.582C383.606 229.774 397.967 192.279 397.824 153.439C397.804 68.737 331.197 -0.0527344 249.433 -0.0527344C167.24 -0.0527344 101 68.3698 101 153.439C101 238.161 167.607 306.931 249.433 306.931C272.901 306.942 296.014 301.206 316.754 290.223L353.29 333.716C355.452 336.307 358.103 338.446 361.092 340.012C364.081 341.578 367.349 342.54 370.709 342.843C374.07 343.146 377.457 342.785 380.678 341.779C383.899 340.773 386.89 339.142 389.481 336.98C392.071 334.818 394.211 332.167 395.777 329.178C397.343 326.19 398.305 322.922 398.608 319.561C398.911 316.201 398.549 312.813 397.543 309.592C396.537 306.372 394.907 303.381 392.745 300.79V300.79ZM249.025 256.624C188.925 256.624 152.368 210.274 152.001 155.255C152.001 100.582 188.558 54.2528 249.025 54.2528C309.838 54.2528 346.395 100.582 346.395 155.255C346.395 210.274 309.838 256.624 249.025 256.624Z" fill="#050505"/>
<path fill-rule="evenodd" clip-rule="evenodd" d="M170.46 114.352C191.452 117.596 205.569 126.592 218.972 141.505C219.543 141.947 219.929 142.588 220.053 143.3L162.504 140.709C159.607 146.503 161.422 167.495 162.85 174.37C163.777 179.19 165.143 183.915 166.931 188.487C169.093 194.28 171.276 197.912 172.357 201.176C192.635 201.523 218.686 201.176 239.678 201.176C239.796 194.689 241.535 188.335 244.737 182.693C256.692 164.598 279.418 164.598 291.066 178.001C296.513 184.121 299.043 189.935 299.41 201.176H319.667C319.321 193.934 318.219 179.817 316.056 173.656C308.08 151.562 274.42 149.4 253.428 146.503C238.944 144.687 233.517 139.995 224.867 130.57C223.786 129.489 221.97 128.041 220.889 126.96C219.441 125.511 218.36 124.777 216.911 123.328C207.119 115.372 189.758 104.968 176.723 103.071C176.355 104.499 174.54 106.682 173.826 108.497C172.338 110.175 171.226 112.15 170.562 114.291" fill="#050505"/>
<path fill-rule="evenodd" clip-rule="evenodd" d="M269.646 185.591C272.366 185.591 275.024 186.398 277.285 187.908C279.547 189.419 281.309 191.567 282.35 194.079C283.39 196.592 283.663 199.356 283.132 202.023C282.601 204.691 281.292 207.141 279.369 209.063C277.446 210.986 274.996 212.296 272.329 212.826C269.662 213.357 266.897 213.085 264.385 212.044C261.872 211.003 259.725 209.241 258.214 206.98C256.703 204.719 255.897 202.06 255.897 199.341C255.897 195.694 257.345 192.197 259.924 189.618C262.502 187.04 266 185.591 269.646 185.591V185.591ZM267.79 174.085C264.462 174.302 261.21 175.18 258.226 176.669C255.241 178.158 252.584 180.227 250.409 182.755C241.004 193.996 242.086 208.46 252.225 218.599C256.028 222.033 260.774 224.248 265.85 224.958C270.925 225.667 276.097 224.838 280.697 222.578C285.296 220.317 289.112 216.73 291.652 212.278C294.191 207.827 295.338 202.716 294.943 197.607C294.776 194.254 293.932 190.971 292.461 187.953C290.991 184.935 288.925 182.247 286.388 180.049C283.851 177.851 280.895 176.19 277.699 175.165C274.503 174.14 271.132 173.773 267.79 174.085Z" fill="#050505"/>
<path fill-rule="evenodd" clip-rule="evenodd" d="M232.377 204.112H173.726C175.232 207.079 177.051 209.876 179.152 212.456H241.414C240.7 209.192 239.251 207.009 239.251 203.398L232.377 204.112Z" fill="#050505"/>
<path fill-rule="evenodd" clip-rule="evenodd" d="M297.165 212.11H310.629C314.607 212.11 320.401 213.191 321.115 209.213C322.563 203.093 314.607 204.154 312.791 204.154H299.409C298.674 207.764 297.94 209.213 297.226 212.11" fill="#050505"/>
</g>
<defs>
<filter id="filter0_d_222_20602" x="-3" y="48.9473" width="514" height="402.257" filterUnits="userSpaceOnUse" color-interpolation-filters="sRGB">
<feFlood flood-opacity="0" result="BackgroundImageFix"/>
<feColorMatrix in="SourceAlpha" type="matrix" values="0 0 0 0 0 0 0 0 0 0 0 0 0 0 0 0 0 0 127 0" result="hardAlpha"/>
<feOffset dx="4" dy="4"/>
<feGaussianBlur stdDeviation="3.5"/>
<feComposite in2="hardAlpha" operator="out"/>
<feColorMatrix type="matrix" values="0 0 0 0 0 0 0 0 0 0 0 0 0 0 0 0 0 0 0.25 0"/>
<feBlend mode="normal" in2="BackgroundImageFix" result="effect1_dropShadow_222_20602"/>
<feBlend mode="normal" in="SourceGraphic" in2="effect1_dropShadow_222_20602" result="shape"/>
</filter>
<clipPath id="clip0_222_20602">
<rect width="510" height="450" fill="white"/>
</clipPath>
</defs>
</svg>
