<svg width="510" height="450" viewBox="0 0 510 450" fill="none" xmlns="http://www.w3.org/2000/svg">
<g clip-path="url(#clip0_222_20586)">
<g filter="url(#filter0_d_222_20586)">
<path d="M0 77.4736C0 63.6665 11.1929 52.4736 25 52.4736H475C488.807 52.4736 500 63.6665 500 77.4736V344.678C500 355.585 492.929 365.233 482.528 368.517L257.528 439.57C252.629 441.117 247.371 441.117 242.472 439.57L17.4717 368.517C7.07098 365.233 0 355.585 0 344.678V77.4736Z" fill="#F0F6F9"/>
</g>
<path d="M197.099 75.654C197.569 74.291 198.252 73.011 199.122 71.8614L245.139 12.696C244.262 13.7748 243.616 15.0227 243.243 16.3622C242.826 17.8412 242.655 19.3789 242.738 20.9135C242.847 22.7093 243.144 24.4888 243.622 26.2231C244.236 28.2742 245.041 30.2634 246.025 32.1649L266.505 71.2293C267.479 73.1122 268.577 74.9283 269.792 76.6655C273.739 82.1846 278.616 86.9756 284.204 90.8247C286.008 92.1095 287.91 93.2507 289.893 94.238C291.742 95.1453 293.642 95.9475 295.582 96.6402C297.339 97.2956 299.162 97.7616 301.018 98.0306C302.692 98.2826 304.382 98.4094 306.075 98.41L340.209 97.5251L342.864 97.2723L345.139 96.6402L347.162 95.6288L348.805 94.238L296.593 147.082L294.95 148.473L292.927 149.611L290.651 150.369L287.997 150.748L254.368 153.53C252.725 153.677 251.071 153.635 249.438 153.403C247.644 153.146 245.87 152.766 244.128 152.266C242.267 151.681 240.45 150.963 238.692 150.116C236.813 149.229 234.997 148.216 233.256 147.082C231.489 145.931 229.799 144.664 228.199 143.29C226.682 141.899 225.165 140.382 223.774 138.865C222.403 137.351 221.136 135.746 219.982 134.061C218.89 132.404 217.919 130.672 217.074 128.878L199.122 91.204C198.261 89.3358 197.583 87.388 197.099 85.3885C196.702 83.6458 196.49 81.866 196.467 80.0788C196.482 78.5825 196.695 77.0947 197.099 75.654V75.654Z" fill="url(#paint0_linear_222_20586)"/>
<path d="M85.343 78.1818C85.7924 76.755 86.4302 75.3946 87.2393 74.1364L129.591 7.76489C128.821 9.02764 128.226 10.3884 127.821 11.8103C127.465 13.3436 127.295 14.9142 127.315 16.488C127.338 18.1918 127.55 19.8878 127.947 21.5449C128.446 23.4007 129.08 25.2175 129.843 26.981L149.692 70.8493C150.678 72.9537 151.819 74.982 153.105 76.9176C154.437 78.9608 155.916 80.9045 157.53 82.7331C159.215 84.6287 161.031 86.403 162.966 88.0428C164.946 89.7118 167.014 91.2732 169.161 92.7203C171.323 94.1064 173.56 95.3726 175.861 96.513C178.058 97.6231 180.341 98.5532 182.688 99.2942C184.87 100.035 187.111 100.584 189.388 100.938C191.473 101.316 193.595 101.443 195.709 101.317L238.693 100.179H241.095C242.91 100.137 244.727 100.222 246.531 100.432C249.227 100.693 251.893 101.201 254.495 101.949C257.969 102.869 261.353 104.096 264.609 105.615C268.702 107.481 272.634 109.68 276.367 112.189C284.89 118.023 292.333 125.295 298.364 133.681C300.213 136.272 301.901 138.975 303.421 141.772C304.558 143.795 305.191 145.185 305.317 145.438L328.832 190.444C329.975 192.581 331.241 194.649 332.624 196.639C335.435 200.668 338.748 204.322 342.485 207.511C344.338 209.096 346.279 210.573 348.3 211.936C350.209 213.195 352.193 214.335 354.242 215.35C356.127 216.238 358.07 216.999 360.058 217.625C361.871 218.156 363.736 218.495 365.62 218.637C367.31 218.742 369.006 218.657 370.677 218.384L404.432 212.442L406.075 212.062L407.592 211.557L408.983 210.798L410.247 209.913L349.944 257.827L348.68 258.712L347.289 259.471L345.772 260.103L344.128 260.609L310.5 267.941C308.839 268.297 307.143 268.466 305.444 268.447C303.658 268.318 301.884 268.065 300.134 267.688C298.237 267.189 296.378 266.556 294.571 265.792C292.597 264.933 290.695 263.918 288.882 262.758C287.008 261.552 285.232 260.2 283.572 258.712C280.128 255.772 277.107 252.368 274.596 248.599C273.379 246.731 272.281 244.789 271.31 242.783L250.956 199.926C250.829 199.673 250.323 198.409 249.312 196.386C247.945 193.73 246.426 191.155 244.761 188.674C242.383 185.138 239.674 181.837 236.67 178.814C232.965 175.003 228.853 171.612 224.407 168.7C220.923 166.399 217.242 164.411 213.408 162.758C210.289 161.5 207.076 160.486 203.8 159.724C201.259 159.193 198.681 158.855 196.089 158.712C194.318 158.628 192.543 158.671 190.779 158.839H188.377L146.784 162.379C144.762 162.526 142.73 162.484 140.716 162.252C138.574 162.026 136.458 161.603 134.395 160.988C132.242 160.362 130.131 159.602 128.074 158.712C125.942 157.699 123.874 156.56 121.879 155.299C119.859 153.98 117.918 152.545 116.064 151.001C114.296 149.486 112.648 147.838 111.133 146.07C109.645 144.367 108.292 142.549 107.087 140.634C105.952 138.763 104.938 136.821 104.053 134.819L86.86 92.7203C86.1403 91.0082 85.5898 89.2299 85.2164 87.4107C84.8392 85.7533 84.7117 84.0489 84.8374 82.3538C84.8656 80.9497 85.0349 79.552 85.343 78.1818Z" fill="url(#paint1_linear_222_20586)"/>
<path d="M133.763 199.927C133.952 197.674 134.463 195.46 135.28 193.353C136.056 191.393 137.121 189.561 138.44 187.916L188.504 126.981C187.224 128.63 186.201 130.463 185.469 132.417C184.734 134.536 184.308 136.751 184.205 138.991C184.101 141.536 184.313 144.084 184.837 146.577C185.459 149.41 186.391 152.166 187.618 154.794L210.88 206.248C212.013 208.7 213.323 211.065 214.799 213.327C216.299 215.622 217.946 217.818 219.73 219.901C221.583 221.966 223.568 223.908 225.671 225.716C227.798 227.501 230.036 229.148 232.372 230.647C234.663 232.035 237.026 233.301 239.451 234.44C241.743 235.428 244.111 236.232 246.531 236.842C248.775 237.364 251.058 237.702 253.358 237.853C255.514 237.979 257.678 237.852 259.805 237.474L303.168 229.888L305.823 229.256L308.225 228.371L310.374 227.233L312.27 225.843L252.979 277.929L251.082 279.446L248.933 280.71L246.531 281.721L243.876 282.48L201.525 291.835C199.451 292.302 197.329 292.514 195.204 292.467C192.991 292.465 190.785 292.21 188.63 291.709C186.343 291.227 184.101 290.55 181.929 289.686C179.653 288.769 177.455 287.67 175.355 286.399C173.188 285.026 171.119 283.506 169.161 281.848C167.267 280.207 165.492 278.432 163.851 276.538C162.195 274.654 160.714 272.623 159.426 270.47C158.164 268.302 157.024 266.065 156.013 263.77L136.165 215.097C135.158 212.563 134.396 209.938 133.889 207.259C133.532 204.831 133.49 202.366 133.763 199.927Z" fill="url(#paint2_linear_222_20586)"/>
<path d="M257.53 8.27108C254.645 7.98751 251.735 8.42181 249.059 9.5353C246.861 10.5546 245.077 12.2939 244.003 14.4656C242.872 16.9128 242.476 19.6361 242.865 22.3039C243.305 25.8141 244.421 29.2058 246.152 32.2912L266.632 71.3556C267.606 73.2386 268.704 75.0544 269.919 76.7915C273.866 82.3106 278.743 87.1019 284.331 90.951C286.135 92.2358 288.037 93.3771 290.02 94.3643C291.87 95.2717 293.769 96.0735 295.709 96.7662C297.467 97.4216 299.289 97.8879 301.145 98.157C302.819 98.409 304.509 98.5358 306.202 98.5363L340.336 97.6511C342.997 97.6748 345.601 96.8807 347.795 95.3758C349.665 93.9615 351.001 91.9566 351.588 89.6868C352.22 86.9841 352.22 84.172 351.588 81.4694C350.791 78.0021 349.469 74.6768 347.669 71.6084L327.062 35.831C326.05 34.1875 325.039 32.6705 323.901 31.1534C322.777 29.5253 321.507 28.0021 320.108 26.6023C318.771 25.1165 317.335 23.7226 315.81 22.4303C314.297 21.0589 312.691 19.7918 311.006 18.6376C309.363 17.4998 307.719 16.4884 305.949 15.4771L300.892 13.075C299.289 12.414 297.642 11.865 295.962 11.4316C294.425 11.056 292.861 10.8022 291.284 10.673L257.53 8.27108Z" fill="url(#paint3_linear_222_20586)"/>
<path d="M148.048 0.559596C146.152 0.412068 144.247 0.454542 142.359 0.686141C140.626 0.809031 138.921 1.19249 137.302 1.82381C135.815 2.33516 134.41 3.05915 133.13 3.97308C130.634 5.77203 128.81 8.35241 127.947 11.3055C127.439 12.856 127.183 14.478 127.189 16.1095C127.212 17.8968 127.424 19.6765 127.821 21.4192C128.305 23.3778 128.982 25.2835 129.843 27.1082L149.691 70.9767C150.678 73.081 151.819 75.1094 153.105 77.045C154.437 79.0882 155.916 81.0316 157.53 82.8602C159.215 84.7558 161.031 86.53 162.966 88.1699C164.945 89.8389 167.013 91.4006 169.161 92.8477C171.323 94.2338 173.56 95.5 175.861 96.6404C178.058 97.7505 180.341 98.6806 182.688 99.4216C184.869 100.162 187.111 100.712 189.388 101.065C191.472 101.443 193.595 101.57 195.709 101.444L238.693 100.306H241.094C242.91 100.265 244.727 100.349 246.531 100.559C249.226 100.82 251.892 101.328 254.495 102.076C257.968 102.997 261.353 104.224 264.609 105.743C268.701 107.609 272.634 109.807 276.366 112.317C284.89 118.151 292.333 125.423 298.364 133.808C300.212 136.4 301.901 139.102 303.421 141.899C304.558 143.922 305.19 145.313 305.317 145.566L328.831 190.572C329.974 192.708 331.241 194.777 332.624 196.766C335.435 200.796 338.748 204.449 342.485 207.639C344.338 209.223 346.279 210.7 348.3 212.063C350.209 213.322 352.193 214.463 354.242 215.477C356.127 216.366 358.07 217.126 360.058 217.752C361.871 218.283 363.736 218.622 365.62 218.764C367.31 218.869 369.006 218.784 370.677 218.511L404.431 212.569C405.838 212.297 407.2 211.829 408.477 211.178C409.661 210.565 410.73 209.752 411.638 208.777C412.542 207.768 413.268 206.614 413.787 205.363C414.415 204.008 414.8 202.553 414.925 201.065C415.156 199.431 415.198 197.777 415.051 196.134C414.941 194.338 414.645 192.559 414.166 190.825C413.667 188.928 413.034 187.069 412.27 185.262C411.446 183.317 410.517 181.418 409.488 179.573L386.227 138.992C385.238 137.13 384.096 135.354 382.814 133.682C380.278 130.198 377.351 127.016 374.09 124.2C372.447 122.809 370.803 121.545 369.033 120.281C367.381 119.109 365.649 118.053 363.85 117.121C362.182 116.234 360.449 115.473 358.667 114.845C357.056 114.306 355.408 113.883 353.737 113.581C352.193 113.308 350.623 113.223 349.059 113.328L314.925 114.845H312.776C311.173 114.929 309.567 114.887 307.972 114.718C305.495 114.45 303.043 113.985 300.639 113.328C297.345 112.414 294.131 111.23 291.031 109.788C287.061 107.92 283.255 105.721 279.653 103.214C274.975 100.015 270.615 96.3738 266.632 92.3419C263.462 89.1957 260.585 85.7684 258.035 82.1019C256.27 79.6368 254.666 77.0608 253.231 74.39C252.22 72.4937 251.714 71.2295 251.461 70.9767L230.981 31.533C230.049 29.734 228.993 28.002 227.82 26.3497C226.573 24.6258 225.222 22.9793 223.775 21.4192C222.258 19.7757 220.614 18.2587 218.971 16.7417C217.245 15.2422 215.429 13.8489 213.534 12.5697C211.671 11.2705 209.729 10.0884 207.719 9.02995C205.842 8.01746 203.899 7.1306 201.904 6.37513C200.011 5.61087 198.068 4.97727 196.088 4.4788C194.225 3.99939 192.32 3.7029 190.399 3.59375L148.048 0.559596Z" fill="url(#paint4_linear_222_20586)"/>
<path d="M204.305 119.902C200.448 120.011 196.674 121.052 193.306 122.936C190.289 124.664 187.865 127.264 186.353 130.395C184.699 133.814 183.959 137.603 184.204 141.394C184.439 146.043 185.599 150.599 187.617 154.795L210.879 206.248C212.012 208.7 213.321 211.066 214.798 213.328C216.298 215.623 217.945 217.819 219.728 219.902C221.582 221.966 223.566 223.908 225.67 225.717C227.797 227.501 230.035 229.148 232.371 230.648C234.662 232.036 237.025 233.301 239.45 234.44C241.742 235.429 244.109 236.232 246.53 236.842C248.774 237.364 251.057 237.703 253.356 237.854C255.513 237.98 257.677 237.852 259.804 237.474L303.167 229.889C306.64 229.384 309.881 227.849 312.473 225.483C315.064 223.116 316.887 220.027 317.705 216.615C318.59 212.885 318.719 209.017 318.085 205.237C317.319 200.727 315.825 196.371 313.66 192.342L290.145 146.577C289.088 144.526 287.905 142.542 286.605 140.635C285.24 138.696 283.762 136.839 282.181 135.073C278.95 131.524 275.299 128.383 271.309 125.717C269.376 124.39 267.347 123.207 265.24 122.178C263.274 121.206 261.247 120.361 259.172 119.649C257.181 119.025 255.154 118.518 253.104 118.132C251.182 117.817 249.235 117.69 247.288 117.753L204.305 119.902Z" fill="url(#paint5_linear_222_20586)"/>
<path d="M193.305 122.936C191.112 124.075 189.173 125.648 187.608 127.561C186.043 129.474 184.884 131.686 184.203 134.061C182.792 138.88 182.705 143.989 183.95 148.853C184.604 151.235 185.45 153.56 186.479 155.806L189.387 162.38L195.328 175.528L207.212 201.824C208.223 203.973 209.108 206.248 210.246 208.398C211.317 210.629 212.542 212.784 213.912 214.845C216.663 218.921 219.888 222.656 223.521 225.97C230.853 232.544 239.702 237.601 249.563 239.118C252.03 239.5 254.53 239.627 257.022 239.497C259.445 239.261 261.851 238.881 264.228 238.359L278.387 235.831L292.547 233.303L299.626 232.038C302.066 231.672 304.475 231.122 306.832 230.395C309.221 229.428 311.376 227.963 313.153 226.097C314.905 224.301 316.243 222.143 317.073 219.776C318.61 215.122 318.828 210.134 317.705 205.364C318.299 210.097 317.6 214.902 315.682 219.27C314.666 221.341 313.248 223.189 311.51 224.706C309.809 226.147 307.829 227.223 305.695 227.866C303.447 228.492 301.169 228.999 298.868 229.384L291.788 230.648L278.135 233.05L263.976 235.578C261.573 235.958 259.171 236.463 257.022 236.716C254.744 236.884 252.455 236.8 250.195 236.463C241.093 235.073 232.496 230.142 225.543 223.948C222.039 220.803 218.94 217.236 216.315 213.328C214.987 211.395 213.804 209.367 212.775 207.26C211.763 205.111 210.752 202.961 209.74 200.686L197.857 174.39L191.915 161.242L189.007 154.668C188.02 152.55 187.217 150.35 186.605 148.094C185.075 143.711 184.726 139.002 185.594 134.441C186.6 129.761 189.359 125.644 193.305 122.936V122.936Z" fill="url(#paint6_linear_222_20586)"/>
<path d="M249.059 9.53564C247.367 10.1867 245.851 11.2258 244.634 12.5696C243.425 13.9979 242.56 15.6848 242.106 17.5001C241.364 21.2017 241.582 25.0315 242.738 28.6253C243.391 30.3153 244.152 31.9621 245.014 33.5558L247.416 38.2333L252.346 47.5886L262.207 66.2991C263.85 69.4596 265.367 72.4936 267.39 75.6542C269.331 78.6971 271.576 81.535 274.091 84.1244C279.098 89.4101 285.06 93.6997 291.663 96.7666L296.72 98.6629L299.375 99.4216L300.765 99.6743L302.03 99.9271C303.875 100.159 305.739 100.201 307.592 100.054H312.902L334.014 99.4216L339.324 98.9157C341.181 98.7932 343.011 98.4103 344.76 97.778C346.515 97.1156 348.078 96.0299 349.312 94.6175C350.456 93.1958 351.198 91.4933 351.461 89.6871C350.924 91.3088 349.979 92.765 348.718 93.9162C347.456 95.0675 345.919 95.875 344.255 96.261C342.591 96.597 340.887 96.6822 339.198 96.5138L333.888 96.261L312.776 96.8931H307.466C305.822 96.9774 304.173 96.935 302.536 96.7666L301.271 96.5138L300.133 96.261L297.731 95.6289L292.927 93.8588C286.737 90.927 281.126 86.9013 276.366 81.9753C273.946 79.5516 271.785 76.8822 269.919 74.0106C268.149 71.2294 266.632 67.9425 264.862 64.9083L255.001 46.198L250.071 36.8427C248.427 33.8086 246.91 30.648 245.519 27.4875C244.044 24.5073 243.348 21.2016 243.497 17.8795C243.663 16.1375 244.257 14.4636 245.228 13.0076C246.199 11.5516 247.515 10.3588 249.059 9.53564V9.53564Z" fill="url(#paint7_linear_222_20586)"/>
<path d="M137.303 1.82349C135.123 2.45045 133.121 3.57674 131.453 5.11289C129.785 6.64904 128.498 8.55275 127.694 10.673C126.178 15.0112 126.178 19.7357 127.694 24.0739C128.363 26.2288 129.165 28.3399 130.096 30.3949L132.625 36.4631L137.682 48.7261L148.681 72.8727C150.749 76.9439 153.341 80.7265 156.392 84.1241C159.426 87.4762 162.817 90.4862 166.506 93.1002C173.884 98.5549 182.554 101.997 191.664 103.087C193.938 103.214 196.217 103.214 198.491 103.087H205.064L218.339 102.708L231.613 102.329H244.761C253.358 103.097 261.684 105.728 269.16 110.041C284.492 118.467 296.82 131.457 304.432 147.209C312.65 162.885 320.741 178.435 329.084 194.111C333.754 201.833 340.107 208.402 347.668 213.327L350.576 215.097L353.61 216.741L356.771 218.131L360.058 219.143C362.29 219.726 364.579 220.065 366.884 220.154C368.112 220.196 369.341 220.111 370.551 219.901L373.838 219.269L399.754 213.959C401.903 213.454 404.052 213.201 406.328 212.569C408.537 211.851 410.505 210.539 412.017 208.776C414.925 205.236 415.557 200.432 415.051 196.007C415.178 200.306 414.293 204.984 411.259 208.144C409.756 209.63 407.876 210.679 405.822 211.178C403.8 211.684 401.524 211.81 399.375 212.189L373.206 215.982C364.988 218.258 356.265 215.097 349.312 210.42C342.165 205.638 336.164 199.335 331.739 191.962C323.522 176.539 315.304 160.736 307.087 145.186C305.177 141.132 302.936 137.242 300.387 133.555C297.813 129.863 294.982 126.357 291.916 123.062C285.705 116.545 278.545 111.004 270.678 106.627C262.83 102.057 254.063 99.2935 245.014 98.5364H231.487L218.213 98.9154L204.938 99.2947H198.491C196.343 99.4211 194.19 99.4211 192.043 99.2947C183.573 98.5362 175.482 94.8701 168.529 89.9396C161.542 85.1519 155.781 78.7852 151.715 71.3557L140.842 47.209L135.027 35.3253L132.119 29.3835C131.106 27.4626 130.219 25.4779 129.464 23.4417C128.748 21.4418 128.281 19.3612 128.074 17.247C127.836 15.119 128.051 12.9648 128.706 10.926C129.356 8.85689 130.468 6.96252 131.957 5.38574C133.446 3.80896 135.274 2.59086 137.303 1.82349V1.82349Z" fill="url(#paint8_linear_222_20586)"/>
<path d="M132.625 48.2212L134.774 49.9911L133.004 47.9683L132.625 48.2212Z" fill="#49C8FF"/>
</g>
<defs>
<filter id="filter0_d_222_20586" x="-3" y="49.4736" width="514" height="402.257" filterUnits="userSpaceOnUse" color-interpolation-filters="sRGB">
<feFlood flood-opacity="0" result="BackgroundImageFix"/>
<feColorMatrix in="SourceAlpha" type="matrix" values="0 0 0 0 0 0 0 0 0 0 0 0 0 0 0 0 0 0 127 0" result="hardAlpha"/>
<feOffset dx="4" dy="4"/>
<feGaussianBlur stdDeviation="3.5"/>
<feComposite in2="hardAlpha" operator="out"/>
<feColorMatrix type="matrix" values="0 0 0 0 0 0 0 0 0 0 0 0 0 0 0 0 0 0 0.25 0"/>
<feBlend mode="normal" in2="BackgroundImageFix" result="effect1_dropShadow_222_20586"/>
<feBlend mode="normal" in="SourceGraphic" in2="effect1_dropShadow_222_20586" result="shape"/>
</filter>
<linearGradient id="paint0_linear_222_20586" x1="306.682" y1="136.994" x2="213.762" y2="44.0739" gradientUnits="userSpaceOnUse">
<stop offset="0.3" stop-color="#CDE99C"/>
<stop offset="0.59" stop-color="#E7F8CC"/>
<stop offset="0.81" stop-color="#F6FFE6"/>
<stop offset="1" stop-color="#F8FFEB"/>
</linearGradient>
<linearGradient id="paint1_linear_222_20586" x1="360.601" y1="256.841" x2="91.9043" y2="46.2603" gradientUnits="userSpaceOnUse">
<stop offset="0.06" stop-color="#9CD2E9"/>
<stop offset="0.14" stop-color="#C8E8F7"/>
<stop offset="0.18" stop-color="#D7EFFB"/>
<stop offset="0.27" stop-color="#E2F6FF"/>
<stop offset="0.4" stop-color="#E5F8FF"/>
<stop offset="0.47" stop-color="#CCEAF8"/>
<stop offset="0.54" stop-color="#9CD2E9"/>
<stop offset="0.72" stop-color="#9CD2E9"/>
<stop offset="0.82" stop-color="#CBEAF8"/>
<stop offset="0.9" stop-color="#E6F8FF"/>
<stop offset="1" stop-color="#EBFAFF"/>
</linearGradient>
<linearGradient id="paint2_linear_222_20586" x1="262.448" y1="275.666" x2="151.133" y2="164.351" gradientUnits="userSpaceOnUse">
<stop offset="0.3" stop-color="#CDE99C"/>
<stop offset="0.59" stop-color="#E7F8CC"/>
<stop offset="0.81" stop-color="#F6FFE6"/>
<stop offset="1" stop-color="#F8FFEB"/>
</linearGradient>
<linearGradient id="paint3_linear_222_20586" x1="335.52" y1="-24.8135" x2="191.74" y2="269.092" gradientUnits="userSpaceOnUse">
<stop stop-color="#B0DB2E"/>
<stop offset="0.26" stop-color="#A0D127"/>
<stop offset="0.78" stop-color="#77B516"/>
<stop offset="0.82" stop-color="#73B314"/>
</linearGradient>
<linearGradient id="paint4_linear_222_20586" x1="415.14" y1="109.649" x2="127.189" y2="109.649" gradientUnits="userSpaceOnUse">
<stop stop-color="#2C8CD5"/>
<stop offset="0.43" stop-color="#57B8EA"/>
<stop offset="0.8" stop-color="#75D7F9"/>
<stop offset="1" stop-color="#81E3FF"/>
</linearGradient>
<linearGradient id="paint5_linear_222_20586" x1="346.631" y1="-19.3769" x2="202.851" y2="274.516" gradientUnits="userSpaceOnUse">
<stop stop-color="#B0DB2E"/>
<stop offset="0.26" stop-color="#A0D127"/>
<stop offset="0.78" stop-color="#77B516"/>
<stop offset="0.82" stop-color="#73B314"/>
</linearGradient>
<linearGradient id="paint6_linear_222_20586" x1="160.929" y1="146.223" x2="284.823" y2="221.533" gradientUnits="userSpaceOnUse">
<stop stop-color="#B0DB2E"/>
<stop offset="0.32" stop-color="#A0D127"/>
<stop offset="0.95" stop-color="#77B516"/>
<stop offset="1" stop-color="#73B314"/>
</linearGradient>
<linearGradient id="paint7_linear_222_20586" x1="235.014" y1="12.1652" x2="331.208" y2="104.668" gradientUnits="userSpaceOnUse">
<stop stop-color="#BAED2E"/>
<stop offset="0.28" stop-color="#AADD28"/>
<stop offset="0.84" stop-color="#81B419"/>
<stop offset="1" stop-color="#73A614"/>
</linearGradient>
<linearGradient id="paint8_linear_222_20586" x1="99.654" y1="12.1774" x2="415.759" y2="225.729" gradientUnits="userSpaceOnUse">
<stop stop-color="#BAF5FF"/>
<stop offset="0.1" stop-color="#B7F3FE"/>
<stop offset="0.16" stop-color="#AFEEFC"/>
<stop offset="0.21" stop-color="#A0E5F9"/>
<stop offset="0.25" stop-color="#8BD9F4"/>
<stop offset="0.29" stop-color="#71C9EE"/>
<stop offset="0.33" stop-color="#4FB5E6"/>
<stop offset="0.72" stop-color="#81E3FF"/>
<stop offset="0.93" stop-color="#2C8CD5"/>
</linearGradient>
<clipPath id="clip0_222_20586">
<rect width="510" height="450" fill="white"/>
</clipPath>
</defs>
</svg>
