<svg width="50" height="49" viewBox="0 0 50 49" fill="none" xmlns="http://www.w3.org/2000/svg">
<g clip-path="url(#clip0_241_354)">
<rect x="0.286133" width="48.7809" height="48.7809" rx="12" fill="#FDFDFD"/>
<path d="M39.5572 29.5933C38.8576 28.753 38.0625 28 37.2936 27.2717C37.0202 27.0127 36.7376 26.7449 36.4651 26.4787C35.6827 25.7134 35.6542 25.4259 36.2737 24.5566C36.7022 23.9575 37.1565 23.3575 37.596 22.7773C37.9945 22.2508 38.4067 21.7064 38.8017 21.1603L38.8828 21.048C39.6378 20.0028 40.4186 18.9221 40.8341 17.6184C40.9421 17.2744 41.0554 16.7682 40.7963 16.345C40.5374 15.9221 40.0352 15.7931 39.6799 15.7328C39.5041 15.703 39.3296 15.6989 39.1677 15.6989L34.2233 15.6954L34.1825 15.695C33.4349 15.695 32.9311 16.0475 32.6424 16.7727C32.3668 17.4655 32.064 18.2034 31.7185 18.9049C31.031 20.3019 30.1579 21.9109 28.8944 23.2529L28.841 23.31C28.6918 23.4704 28.5227 23.6521 28.3992 23.6521C28.3802 23.6521 28.3596 23.6485 28.3363 23.6411C28.0746 23.5391 27.8989 22.9052 27.9069 22.6104C27.9069 22.6063 27.907 22.6022 27.907 22.5982L27.9036 16.8808C27.9036 16.861 27.9022 16.8413 27.8996 16.8217C27.7738 15.8923 27.4952 15.3137 26.4425 15.1074C26.4146 15.1019 26.386 15.0991 26.3575 15.0991H21.2163C20.3787 15.0991 19.9172 15.4397 19.4834 15.9495C19.3663 16.0858 19.1225 16.3695 19.2433 16.7136C19.3659 17.0629 19.7638 17.1376 19.8934 17.1618C20.5366 17.2843 20.8992 17.6779 21.0019 18.3657C21.1811 19.5599 21.2032 20.8346 21.0712 22.3773C21.0344 22.806 20.9616 23.1372 20.8417 23.4201C20.8138 23.4861 20.715 23.7016 20.6143 23.7016C20.5823 23.7016 20.4896 23.6891 20.321 23.5728C19.9222 23.2995 19.6304 22.9094 19.2902 22.4276C18.1329 20.7913 17.1617 18.9887 16.3205 16.9157C16.0086 16.1525 15.426 15.7253 14.6793 15.7127C13.8588 15.7002 13.115 15.6942 12.4055 15.6942C11.6304 15.6942 10.9117 15.7014 10.21 15.716C9.60923 15.7266 9.1937 15.9068 8.97506 16.2519C8.75606 16.5973 8.7703 17.051 9.01743 17.6001C10.9957 22.0001 12.7893 25.1993 14.8334 27.9737C16.2656 29.915 17.7022 31.2587 19.3539 32.2021C21.094 33.1981 23.0441 33.6823 25.3155 33.6823C25.573 33.6823 25.8392 33.676 26.1076 33.6635C27.4275 33.5991 27.9171 33.1212 27.979 31.8355C28.0085 31.1785 28.0803 30.4894 28.4031 29.9017C28.6069 29.5315 28.7969 29.5315 28.8594 29.5315C28.9797 29.5315 29.1288 29.5869 29.289 29.6907C29.5762 29.8783 29.8226 30.1296 30.0245 30.3491C30.2146 30.5577 30.4025 30.7684 30.5907 30.9792C30.9966 31.4341 31.4164 31.9045 31.8549 32.3505C32.8148 33.3276 33.8722 33.7573 35.0867 33.664H39.6198C39.6295 33.664 39.6392 33.6636 39.6488 33.663C40.1006 33.6332 40.4918 33.3825 40.7222 32.9753C41.0076 32.4708 41.0018 31.8272 40.7068 31.2533C40.372 30.6043 39.9377 30.0498 39.5572 29.5933Z" fill="#006F9D"/>
</g>
<defs>
<clipPath id="clip0_241_354">
<rect width="48.7809" height="48.7809" fill="white" transform="translate(0.561523)"/>
</clipPath>
</defs>
</svg>
