<svg width="363" height="146" viewBox="0 0 363 146" fill="none" xmlns="http://www.w3.org/2000/svg">
<path d="M79.0168 46.1616H20V106H79.0168V46.1616Z" fill="#ADB2B4"/>
<path fill-rule="evenodd" clip-rule="evenodd" d="M69.4864 52.1315C68.8628 52.1452 68.2562 52.3412 67.7395 52.6959C67.2229 53.0506 66.818 53.5489 66.5735 54.1312L59.1551 66.5382C58.657 67.5682 58.3555 68.6845 58.2666 69.8283C58.2424 70.5328 58.3717 71.2341 58.6453 71.8822L66.6754 91.3472H35.4629C34.9152 91.3034 34.403 91.0551 34.0254 90.6502C33.6478 90.2453 33.4317 89.7126 33.419 89.1554V55.6088C33.401 54.6839 33.0215 53.8042 32.3642 53.1632C31.7068 52.5221 30.8253 52.1723 29.9137 52.1906C29.0021 52.2089 28.135 52.5938 27.5031 53.2607C26.8712 53.9276 26.5263 54.8218 26.5444 55.7467L26.6803 91.3472C26.6642 92.2557 26.8265 93.1584 27.1578 94.0027C27.4892 94.8469 27.9828 95.6158 28.61 96.2645C29.2373 96.9132 29.9855 97.4288 30.8111 97.7811C31.6368 98.1334 32.5233 98.3154 33.419 98.3166H75.9727L65.6073 71.4093C65.4139 70.9058 65.3378 70.3638 65.385 69.8255C65.4322 69.2873 65.6013 68.7674 65.8792 68.3064L72.7538 56.978C72.88 56.4798 72.9565 55.9699 72.982 55.4561C72.9541 54.5433 72.5704 53.679 71.915 53.0529C71.2597 52.4269 70.3862 52.0902 69.4864 52.1167V52.1315ZM52.6349 52.1315C53.0833 52.1144 53.5302 52.1923 53.9472 52.3603C54.3643 52.5282 54.7422 52.7825 55.0569 53.1069C55.3717 53.4313 55.6163 53.8187 55.7752 54.2444C55.9342 54.6701 56.0039 55.1247 55.98 55.5792V79.8021C55.98 85.3383 51.9115 89.0126 46.9109 89.0126C42.056 89.0126 37.9924 85.3383 37.9924 79.8021V55.6088C37.9924 51.0233 44.6728 51.0233 44.6728 55.6088V79.6199C44.6728 82.8214 49.2995 83.1021 49.2995 79.6199V55.6088C49.2774 55.1546 49.3478 54.7006 49.5065 54.2753C49.6652 53.85 49.9087 53.4625 50.2217 53.137C50.5348 52.8115 50.9107 52.5551 51.3259 52.3838C51.7412 52.2125 52.1868 52.1299 52.6349 52.1413V52.1315Z" fill="white"/>
<path fill-rule="evenodd" clip-rule="evenodd" d="M101.262 53.1064V78.0189C101.262 84.2446 100.636 87.7022 95.6402 87.7022C94.7924 87.7577 93.9423 87.6405 93.1399 87.3574V98.0799C94.6399 98.6278 96.2331 98.864 97.8249 98.7744C111.875 98.7744 112.501 88.0519 112.501 81.8213V63.8339H120.619V98.0799H131.858V53.1064H101.262Z" fill="#ADB2B4"/>
<path fill-rule="evenodd" clip-rule="evenodd" d="M135.606 53.1064L150.909 85.6286L145.287 98.0799H157.463L175.572 53.1064H163.396L156.842 72.1331L149.03 53.1064H135.606Z" fill="#ADB2B4"/>
<path fill-rule="evenodd" clip-rule="evenodd" d="M179.005 98.0799H190.249V78.7085L201.803 98.0799H216.169L200.245 74.9012L215.854 53.1064H202.43L190.249 72.1331V53.1064H179.005V98.0799Z" fill="#ADB2B4"/>
<path fill-rule="evenodd" clip-rule="evenodd" d="M234.589 99.4641C249.576 99.4641 256.436 87.7023 256.436 75.5958C256.436 63.834 249.567 52.0723 234.589 52.0723C219.912 52.0723 213.043 63.834 213.043 75.5958C213.043 87.7023 219.912 99.4641 234.589 99.4641V99.4641ZM234.589 88.7416C229.593 88.7416 224.598 84.2447 224.598 75.5958C224.598 66.9469 229.593 62.7899 234.589 62.7899C239.895 62.7899 244.891 66.9419 244.891 75.5958C244.891 84.2497 239.895 88.7416 234.589 88.7416Z" fill="#ADB2B4"/>
<path fill-rule="evenodd" clip-rule="evenodd" d="M262.068 53.1065V98.08H272.997L288.605 71.0989V98.08H299.539V53.1065H288.605L272.997 80.0926V53.1065H262.068ZM281.114 50.6833C285.799 50.6833 290.479 48.9545 292.664 43.7878L286.11 41C285.173 44.4478 282.362 44.8073 281.114 44.8073C280.177 44.8073 277.05 44.4576 276.429 41L269.875 43.7681C271.744 48.9545 276.74 50.6833 281.114 50.6833V50.6833Z" fill="#ADB2B4"/>
<path fill-rule="evenodd" clip-rule="evenodd" d="M311.404 53.1064V78.0189C311.404 84.2446 310.778 87.7022 305.782 87.7022C304.934 87.7577 304.084 87.6405 303.282 87.3574V98.0799C304.782 98.6278 306.375 98.864 307.967 98.7744C322.017 98.7744 322.643 88.0519 322.643 81.8213V63.8339H330.761V98.0799H342V53.1064H311.404Z" fill="#ADB2B4"/>
</svg>
