<svg width="363" height="146" viewBox="0 0 363 146" fill="none" xmlns="http://www.w3.org/2000/svg">
<g clip-path="url(#clip0_246_628)">
<path fill-rule="evenodd" clip-rule="evenodd" d="M308.156 111.96H329.451L331 103.305H319.991L324.902 75.8975H314.625L308.156 111.96Z" fill="#ADB2B4"/>
<path fill-rule="evenodd" clip-rule="evenodd" d="M279.316 111.96H301.344L302.898 103.305H291.147L292.184 97.5323H302.827L304.254 89.6038H293.607L294.513 84.5523H306.259L307.808 75.8975H285.785L279.316 111.96Z" fill="#ADB2B4"/>
<path fill-rule="evenodd" clip-rule="evenodd" d="M238.36 111.96H248.636L251.228 97.5323H263.711L261.119 111.96H271.401L277.87 75.8975H267.593L265.26 88.8821H252.782L255.11 75.8975H244.829L238.36 111.96Z" fill="#ADB2B4"/>
<path fill-rule="evenodd" clip-rule="evenodd" d="M234.05 100.063C231.82 101.962 228.473 103.979 224.661 103.979C218.788 103.979 216.041 99.7065 217.018 94.2373C218.083 88.3123 222.6 83.8828 228.285 83.8828C232.219 83.8828 234.717 86.0429 236.214 88.2126L238.092 77.7679C235.369 75.7074 231.787 74.8813 228.538 74.8813C218.576 74.8813 208.661 81.8888 206.502 93.9429C204.426 105.484 210.943 113.014 221.853 113.014C224.999 113.014 228.548 112.539 232.247 110.327L234.05 100.063Z" fill="#ADB2B4"/>
<path fill-rule="evenodd" clip-rule="evenodd" d="M176.014 111.96H198.037L199.591 103.305H187.845L188.878 97.5323H199.525L200.948 89.6038H190.305L191.211 84.5523H202.957L204.511 75.8975H182.483L176.014 111.96Z" fill="#ADB2B4"/>
<path fill-rule="evenodd" clip-rule="evenodd" d="M126.509 111.96H136.368L142.851 91.0423L145.283 111.96H151.893L161.832 91.0423L160.808 111.96H170.667L171.789 75.8975H161.508L151.109 97.8978L148.607 75.8975H138.325L126.509 111.96Z" fill="#ADB2B4"/>
<path fill-rule="evenodd" clip-rule="evenodd" d="M57.9334 91.7877C55.68 99.4456 49.6285 111.628 40.3096 112.06C29.3287 112.573 29.8122 99.4171 32.9389 90.1782C46.7131 49.5008 86.3316 36.2645 111.782 34.0664C90.6226 43.685 67.3181 59.8981 57.9334 91.7877Z" fill="#ADB2B4"/>
<path fill-rule="evenodd" clip-rule="evenodd" d="M88.8714 91.7877C86.6132 99.4456 80.5618 111.628 71.2475 112.06C60.262 112.573 60.7502 99.4171 63.8769 90.1782C77.6511 49.5008 117.265 36.2645 142.734 34.0664C121.556 43.685 98.2561 59.8981 88.8714 91.7877Z" fill="#ADB2B4"/>
<path fill-rule="evenodd" clip-rule="evenodd" d="M120.157 91.7165C117.903 99.3791 111.852 111.557 102.533 111.998C91.5474 112.506 92.0356 99.3459 95.1623 90.1118C108.932 49.4344 148.555 36.1934 174.005 34C152.841 43.6186 129.546 59.8269 120.157 91.7165Z" fill="#ADB2B4"/>
</g>
<defs>
<clipPath id="clip0_246_628">
<rect width="300" height="79" fill="white" transform="translate(31 34)"/>
</clipPath>
</defs>
</svg>
