<svg width="363" height="146" viewBox="0 0 363 146" fill="none" xmlns="http://www.w3.org/2000/svg">
<g clip-path="url(#clip0_246_689)">
<path fill-rule="evenodd" clip-rule="evenodd" d="M166.281 9.02324C166.417 8.9992 166.556 8.99267 166.694 9.00381C166.564 10.2201 166.541 11.4442 166.472 12.6644C167.661 12.4558 168.845 12.2279 170.025 11.9805C170.409 11.884 170.803 11.8299 171.199 11.8192C171 12.1109 170.82 12.4146 170.659 12.7285C170.528 13.0436 170.441 13.3751 170.4 13.7136C171.469 13.8159 172.538 13.9358 173.606 14.0731C173.825 14.0869 174.042 14.1254 174.252 14.1877C175.491 14.6113 176.81 14.724 178.114 14.7259C180.267 14.7259 182.435 14.4208 184.598 14.5782C185.312 14.6262 186.02 14.744 186.711 14.9299C187.029 15.2582 187.245 15.6693 187.336 16.1151C187.395 16.4766 187.421 16.8428 187.412 17.209C188.145 17.2939 188.826 17.6299 189.336 18.1592C189.521 18.354 189.653 18.5928 189.719 18.8527C189.785 19.1126 189.782 19.3849 189.712 19.6436C189.54 20.1954 189.044 20.5743 188.528 20.7938C188.332 20.8949 188.117 20.8521 187.911 20.8657C186.839 20.9007 185.758 20.9435 184.711 21.2096C184.469 21.266 184.234 21.3515 183.993 21.4039C183.993 21.6776 184.03 21.9501 184.103 22.2142C185.349 22.2142 186.598 22.2569 187.843 22.3171C188.101 23.5315 187.549 24.9557 186.385 25.5075C185.629 25.8786 184.709 25.7135 184.036 25.2511C183.048 25.3191 182.059 25.3637 181.075 25.4628C180.351 25.5448 179.632 25.6661 178.922 25.8262C178.587 26.6034 177.793 27.058 177.02 27.3281C175.587 27.808 174.058 27.8741 172.561 27.9285C172.256 30.2853 172.275 32.6713 172.365 35.0418C172.399 36.3241 172.491 37.6046 172.497 38.8869C174.145 38.6926 175.8 38.4614 177.462 38.5722C178.822 38.644 180.147 38.9608 181.46 39.3027C183.074 38.2663 184.777 37.3736 186.549 36.635C187.058 36.4407 187.549 36.1726 188.091 36.0657C191.027 35.3662 194.039 35.0942 197.047 35.0165C202.598 34.8883 208.134 35.4362 213.683 35.4303C214.035 35.4261 214.386 35.4423 214.736 35.4789C214.507 36.293 213.941 36.9459 213.399 37.5754C213.352 37.625 213.291 37.6612 213.225 37.6803C212.442 37.9504 211.648 38.1991 210.853 38.4381C210.358 38.6032 209.835 38.714 209.375 38.9744C209.696 39.3319 210.172 39.462 210.606 39.6253C210.507 39.9121 210.348 40.175 210.139 40.3966C209.93 40.6182 209.677 40.7937 209.395 40.9115C207.665 41.7276 205.676 41.6887 203.915 42.3785C203.435 42.5728 202.936 42.8875 202.776 43.4063C202.936 43.5328 203.105 43.6472 203.283 43.7483C203.578 43.8959 203.905 43.9698 204.212 44.0902C203.226 44.5196 202.19 44.8263 201.128 45.0034C199.451 45.2832 197.738 45.1977 196.057 45.0034C193.81 44.7372 191.587 44.2845 189.324 44.1524C188.737 44.0805 188.213 44.3836 187.668 44.541C187.809 44.8927 188.021 45.2152 188.158 45.5708C188.664 46.8014 189.037 48.0818 189.271 49.3907C189.859 52.5189 190.025 55.7054 190.133 58.8802C190.148 59.2008 190.086 59.5486 190.252 59.842C191.392 61.9789 192.297 64.2315 192.951 66.5609C193.456 68.382 193.831 70.2363 194.072 72.11C194.135 72.4587 194.241 72.7986 194.385 73.1223C194.881 74.3581 195.669 75.4442 196.452 76.5109C196.648 76.7946 196.9 77.0413 196.988 77.3794C197.736 79.4331 198.131 81.5879 198.642 83.7058C198.744 83.8974 198.858 84.0823 198.983 84.2595C199.934 85.7381 200.881 87.2187 201.805 88.7148C202.099 89.6063 202.509 90.4556 203.026 91.2407C203.717 92.3657 204.494 93.4362 205.156 94.5807C205.6 95.387 206.078 96.2536 206.013 97.2056C205.485 97.3319 205.064 97.6991 204.643 98.0314C204.161 98.4238 203.737 98.8816 203.384 99.3915C201.647 99.3915 199.909 99.3546 198.171 99.3721C198.043 98.6842 197.951 97.9887 197.83 97.2989C197.762 96.771 197.623 96.2546 197.415 95.7639C196.699 95.9529 195.961 96.0508 195.219 96.0554C194.602 96.0776 193.993 95.9085 193.477 95.5716C193.063 95.2701 192.76 94.8422 192.614 94.3533C191.962 94.6934 191.323 95.0683 190.61 95.2724C189.714 95.5327 188.772 95.4472 187.854 95.3987C187.1 93.7238 186.372 92.0399 185.67 90.3469C185.187 90.0205 184.705 89.6921 184.218 89.3754C183.895 89.1928 183.713 88.8586 183.494 88.5749C182.697 87.481 182.151 86.2025 181.181 85.2407C180.621 84.6755 179.956 84.223 179.223 83.9078C179.17 83.8876 179.123 83.8534 179.088 83.8087C178.425 82.847 177.814 81.8211 176.935 81.0361C176.164 80.3658 175.145 80.1132 174.172 79.8859C173.485 79.7265 172.79 79.6022 172.105 79.437C171.027 79.0329 169.989 78.5044 168.86 78.2499C168.574 78.1792 168.28 78.1459 167.985 78.1508C168.49 78.9182 168.989 79.6954 169.524 80.4416C170.338 80.8068 171.199 81.0652 172.015 81.413C172.798 82.1747 173.297 83.1617 173.757 84.1332C174.469 85.676 175.127 87.3081 176.339 88.5419C176.387 88.5827 176.436 88.6235 176.489 88.6604C176.558 88.1605 176.515 87.6518 176.364 87.1701C176.307 86.9956 176.267 86.816 176.245 86.6338C177.358 86.6688 178.534 86.7329 179.517 87.3139C180.261 87.7888 180.796 88.5262 181.014 89.3773C181.195 89.9914 181.303 90.6248 181.333 91.264C180.964 92.16 180.385 92.9559 179.644 93.5858C179.28 93.8945 178.856 94.1246 178.398 94.2614C177.939 94.3982 177.457 94.4388 176.982 94.3805C175.978 94.2523 175.082 93.6791 174.407 92.9524C173.913 92.428 173.502 91.8334 173.186 91.1882C173.123 91.0464 172.968 90.9939 172.843 90.9162C171.904 90.4149 170.939 89.9602 169.982 89.492C168.576 88.8055 167.176 88.1092 165.782 87.4033C165.701 87.3701 165.63 87.3181 165.574 87.2517C164.478 85.7556 163.774 84.0166 162.648 82.54C162.398 82.1901 162.104 81.8722 161.775 81.5937C160.035 80.5309 158.252 79.4565 156.863 77.9545C156.794 77.8542 156.758 77.7357 156.759 77.6145C156.599 76.4837 156.403 75.3412 155.935 74.2881C155.767 73.9028 155.571 73.5301 155.348 73.1728C155.299 73.0831 155.232 73.0039 155.152 72.9397C154.113 72.0887 153.041 71.2726 152.085 70.3264C151.798 70.0116 151.457 69.7046 151.351 69.2772C150.756 69.0528 150.253 68.6361 149.925 68.0939C149.338 67.1729 149.032 66.1004 148.807 65.0395C148.499 63.3548 148.333 61.6475 148.31 59.9353C148.27 56.9625 148.404 53.9899 148.711 51.0325C148.719 50.7501 148.766 50.4702 148.852 50.2009C149.244 49.1459 149.615 48.0889 149.968 47.0261C150.3 46.0177 150.543 44.9821 150.772 43.9484C150.937 42.565 151.046 41.1796 151.122 39.7904C151.254 37.2645 151.351 34.7561 151.459 32.238C151.457 32.149 151.47 32.0603 151.498 31.9757C151.917 31.319 152.401 30.7011 152.778 30.0191C153.009 29.5917 153.207 29.0729 153.019 28.5949C152.745 27.9907 152.095 27.7012 151.516 27.4563C151.946 26.4304 152.665 25.56 153.401 24.7362C154.183 23.856 155.005 22.9991 155.553 21.9557C155.654 21.7814 155.735 21.5963 155.794 21.4039C155.839 20.7666 155.579 20.1643 155.53 19.5387C156.509 18.9033 157.487 18.2971 158.466 17.6481C159.394 17.0443 160.259 16.3505 161.049 15.5769C162.191 14.4454 163.062 13.0726 163.595 11.5608C163.676 11.2752 163.936 11.1042 164.126 10.8924C164.771 10.1917 165.493 9.5648 166.279 9.02324H166.281ZM172.452 16.8515C172.665 17.3412 173.18 17.6171 173.687 17.7142C174.274 17.825 174.937 17.7142 175.35 17.2596C175.297 16.9293 175.147 16.6218 174.92 16.3755C174.781 16.2446 174.613 16.1487 174.429 16.0959C174.246 16.0431 174.052 16.0351 173.865 16.0724C173.326 16.1846 172.833 16.4554 172.452 16.8496V16.8515ZM184.928 17.1605C185.097 17.5238 185.516 17.687 185.907 17.6909C186.43 17.6909 186.86 17.3489 187.353 17.2207C186.557 16.9409 185.733 16.7466 184.923 16.5115C184.838 16.7201 184.84 16.9534 184.928 17.1605V17.1605ZM168.071 27.6273C167.772 31.4667 167.463 35.3449 167.948 39.1861C168.189 41.0223 168.606 42.8545 169.373 44.5507C169.385 39.1473 169.463 33.7283 170.119 28.3579C169.575 27.8333 168.786 27.7322 168.071 27.6273V27.6273ZM172.303 41.1136C172.448 43.6861 172.524 46.2975 173.254 48.7884C173.43 49.0507 173.657 49.2761 173.855 49.5209C174.716 50.5196 175.595 51.5027 176.446 52.5092C177.816 54.1394 179.139 55.8317 180.118 57.728C180.651 58.7341 181.014 59.8205 181.192 60.9437C181.024 61.1907 180.791 61.3864 180.517 61.5091C180.114 61.7034 179.63 61.7461 179.29 62.0551C179.014 62.3368 179.018 62.7662 179.071 63.1315C179.229 63.1287 179.387 63.1423 179.542 63.1723C180.026 62.8459 180.574 62.5525 181.175 62.5583C181.656 62.5607 182.123 62.7243 182.5 63.0227C183.236 63.5764 183.76 64.3459 184.308 65.0706C184.886 65.0032 185.439 64.7994 185.921 64.476C186.06 64.3814 186.176 64.2571 186.261 64.1123C186.345 63.9674 186.396 63.8056 186.41 63.6386C186.214 63.2753 185.985 62.9294 185.77 62.5777C185.481 62.069 185.079 61.6319 184.596 61.2993C184.071 61.0042 183.474 60.8627 182.871 60.8912C182.901 60.3589 182.991 59.7721 183.386 59.3796C183.731 59.0279 184.238 58.9482 184.686 58.7967C185.138 58.676 185.543 58.4203 185.844 58.0642C186.081 57.7922 186.169 57.4366 186.304 57.1102C187.113 54.9729 187.692 52.6977 187.639 50.3933C187.618 49.1732 187.362 47.9683 186.886 46.8434C186.452 45.858 185.833 44.9638 185.062 44.2088C183.568 42.7573 181.64 41.8305 179.662 41.2204C179.711 41.815 179.777 42.4504 179.501 43.0061C178.58 42.4981 177.612 42.0779 176.611 41.7509C175.219 41.3117 173.765 41.0966 172.305 41.1136H172.303ZM170.453 56.2689C170.277 56.6108 170.128 56.9645 169.976 57.3142C170.199 57.8621 170.469 58.3887 170.708 58.9288C171.504 59.3214 172.223 59.8532 172.829 60.4987C173.169 60.8628 173.394 61.3172 173.477 61.8064C173.529 62.2624 173.411 62.7214 173.144 63.0965C172.762 63.6119 172.275 64.0416 171.714 64.3575C171.654 64.578 171.644 64.8089 171.684 65.0337C171.769 65.2788 171.869 65.5182 171.984 65.7506C172.659 65.6729 173.393 65.6166 173.941 65.1891C174.409 64.8122 174.63 64.2351 174.867 63.7047C174.998 63.4307 175.062 63.1218 175.289 62.8925C176.035 62.0376 176.869 61.2079 177.303 60.1412C177.37 59.9256 177.499 59.6924 177.407 59.467C177.206 58.8474 176.919 58.2588 176.554 57.7183C176.062 57.008 175.313 56.5138 174.464 56.3388C173.141 56.061 171.78 56.2183 170.444 56.2689H170.453ZM156.55 61.9871C156.642 62.9469 156.804 63.9301 157.237 64.7966C157.619 65.5372 158.207 66.1534 158.932 66.5725C159.839 67.0932 160.79 67.5352 161.773 67.8937C163.719 67.9143 165.656 68.1634 167.543 68.636C168.432 68.2649 169.274 67.7935 170.054 67.2312C170.026 67.0746 170.011 66.9161 170.009 66.7571C169.506 66.5084 168.921 66.5881 168.383 66.4929C168.165 66.3503 167.939 66.2205 167.705 66.1043C166.641 65.5971 165.382 65.7856 164.327 65.2513C164.207 65.1144 164.095 64.9704 163.993 64.82C162.623 63.011 160.805 61.6121 158.957 60.3161C158.048 60.7061 157.228 61.2745 156.546 61.9871H156.55ZM186.821 70.9248C187.173 72.0265 187.907 72.9436 188.537 73.8976C188.584 73.9678 188.653 74.021 188.733 74.0491C189.325 74.3021 189.875 74.6428 190.363 75.0595C191.106 75.7249 191.732 76.5074 192.217 77.3755C192.685 78.1741 193.117 78.994 193.552 79.8101C193.581 80.4066 193.499 81.005 193.54 81.6035C193.537 82.2077 193.711 82.7999 194.041 83.3075C194.3 83.6537 194.641 83.9302 195.035 84.1118C195.401 84.0089 195.769 83.902 196.139 83.801C196.139 83.3988 196.139 82.9966 196.176 82.5963C196.217 82.4234 196.096 82.2835 196.026 82.1417C194.62 79.5866 193.115 77.0899 191.878 74.4397C191.722 74.0696 191.598 73.6867 191.508 73.2953C191.305 72.4948 191.012 71.7193 190.636 70.9831C190.301 70.3442 189.783 69.8177 189.148 69.4695C188.497 69.157 187.781 69 187.058 69.011C186.629 69.5492 186.606 70.2933 186.813 70.9248H186.821ZM180.083 71.6495C179.639 72.1113 179.259 72.6294 178.953 73.1903C178.758 73.5945 178.617 74.0899 178.828 74.5174C179.075 75.0129 179.566 75.3179 180.002 75.621C180.932 76.2136 181.893 76.8101 182.607 77.667C183.39 79.1611 184.095 80.6941 184.899 82.1747C185.57 82.8606 186.357 83.424 187.052 84.0905C187.811 84.8016 188.51 85.676 188.649 86.7368C190.076 87.6015 191.483 88.5049 192.912 89.3676C193.141 89.1558 193.096 88.8216 193.045 88.5457C192.872 87.8519 192.635 87.1755 192.336 86.525C192.267 86.3845 192.172 86.2585 192.054 86.1539C191.672 85.7381 191.337 85.2821 191.054 84.7938C190.009 83.0024 189.659 80.9273 188.847 79.0407C188.438 78.0341 187.844 77.1117 187.095 76.3205C186.244 75.7745 185.379 75.2305 184.641 74.5349C183.792 73.7129 183.118 72.7305 182.658 71.6457C182.557 71.3971 182.442 71.1539 182.316 70.917C181.533 71.0258 180.797 71.3426 180.077 71.6515L180.083 71.6495ZM161.615 73.0602C161.253 73.5556 160.918 74.1249 160.934 74.7564C160.949 75.3878 161.374 75.8911 161.809 76.3108C162.582 77.0316 163.474 77.6164 164.226 78.3626C164.307 78.4585 164.381 78.5605 164.447 78.6676C165.495 80.1936 166.44 81.7864 167.277 83.4357C167.864 83.2764 168.463 83.1151 169.06 82.9694V82.299C167.961 81.6727 167.069 80.7442 166.49 79.6255C165.807 78.3723 165.418 76.9928 164.846 75.691C164.48 74.7797 163.934 73.9505 163.239 73.2525C163.153 73.1826 163.085 73.0582 162.959 73.0582C162.512 73.0582 162.064 73.0582 161.615 73.0582V73.0602ZM196.576 88.2737C196.388 88.6442 196.3 89.0564 196.319 89.4706C196.801 89.5231 197.282 89.5775 197.764 89.626C197.834 89.5385 197.911 89.4566 197.994 89.3812C197.932 89.4648 197.861 89.5464 197.799 89.628C197.906 90.9395 197.906 92.2646 198.178 93.5586C198.242 93.9563 198.399 94.3336 198.636 94.6603C199.022 94.3366 199.429 94.0399 199.856 93.7724C199.912 93.7238 199.997 93.6947 200.022 93.6208C200.038 93.2735 199.971 92.9273 199.826 92.6105C199.582 92.0168 199.295 91.4414 198.967 90.889C198.47 90.0146 197.879 89.1928 197.466 88.2737H196.576ZM136 104.012C160.871 104.012 185.741 104.012 210.61 104.012C216.075 104.012 221.538 104.012 227 104.012C227 105.22 227 106.429 227 107.638C196.666 107.638 166.33 107.638 135.992 107.638C135.997 106.428 136 105.219 136 104.012ZM137.708 115.699C139.873 115.699 142.035 115.699 144.2 115.699C144.2 117.512 144.2 119.325 144.2 121.139C144.2 121.749 144.184 122.36 144.214 122.968V122.983L144.229 122.97C144.621 122.639 144.957 122.264 145.308 121.899C147.057 120.162 148.774 118.402 150.52 116.653C150.839 116.346 151.134 116.016 151.451 115.707C153.483 115.707 155.514 115.707 157.546 115.707C155.446 117.769 153.348 119.829 151.25 121.887C152.635 125.28 153.978 128.688 155.348 132.069C155.43 132.232 155.45 132.436 155.587 132.57C157.468 126.948 159.34 121.324 161.202 115.697C162.817 115.697 164.433 115.697 166.05 115.697C167.842 121.058 169.639 126.418 171.44 131.777C171.477 131.865 171.477 131.971 171.565 132.036C171.575 126.595 171.575 121.148 171.565 115.695C174.186 115.695 176.806 115.695 179.427 115.695C180.357 118.804 181.306 121.887 182.243 124.984C182.496 125.847 182.785 126.7 183.012 127.573C183.084 127.476 183.134 127.365 183.161 127.248C184.451 123.395 185.752 119.546 187.036 115.693H194.546C194.534 121.11 194.546 126.529 194.546 131.948H194.628C195.07 130.53 195.568 129.127 196.028 127.714C197.082 124.569 198.124 121.419 199.182 118.273C199.456 117.411 199.77 116.56 200.034 115.695C201.656 115.683 203.279 115.695 204.901 115.695C206.685 121.135 208.478 126.568 210.28 131.993C210.428 132.422 210.552 132.857 210.716 133.279C212.69 128.642 214.656 124 216.615 119.354C214.621 119.354 212.628 119.354 210.636 119.354C210.636 118.134 210.636 116.913 210.636 115.693H225.314C222.89 121.569 220.476 127.449 218.073 133.333C220.482 133.333 222.893 133.333 225.303 133.333C225.291 134.286 225.246 135.236 225.226 136.188C225.201 136.444 225.254 136.712 225.168 136.965C223.58 136.938 221.995 136.986 220.41 136.965C218.779 136.965 217.149 136.965 215.517 136.977C212.156 136.977 208.8 136.998 205.441 136.988C205.185 136.199 204.919 135.412 204.659 134.624C202.519 134.624 200.379 134.624 198.239 134.624C197.979 135.412 197.713 136.199 197.456 136.99C194.333 136.99 191.21 136.99 188.087 136.99C188.087 133.181 188.087 129.37 188.087 125.56C188.072 125.575 188.04 125.61 188.023 125.626C186.858 129.414 185.674 133.203 184.519 136.99C182.778 136.99 181.038 136.99 179.296 136.99C178.266 133.799 177.239 130.606 176.215 127.411C176.029 126.784 175.787 126.176 175.628 125.542H175.558C175.558 129.36 175.558 133.178 175.558 136.994C172.555 136.994 169.551 136.994 166.555 136.994C166.316 136.201 166.034 135.42 165.789 134.628H159.364C159.096 135.405 158.842 136.207 158.581 136.994H149.981C148.658 133.617 147.333 130.24 146.006 126.861C145.451 127.363 144.942 127.915 144.386 128.416C144.317 128.497 144.19 128.562 144.19 128.684C144.19 131.455 144.19 134.225 144.19 136.996C142.026 136.996 139.863 136.996 137.698 136.996C137.698 129.895 137.698 122.794 137.698 115.693L137.708 115.699ZM162.548 124.951C161.914 126.964 161.216 128.956 160.578 130.975C161.91 130.975 163.243 130.975 164.576 130.975C163.989 129.207 163.402 127.439 162.815 125.672C162.752 125.426 162.662 125.188 162.546 124.961L162.548 124.951ZM201.41 124.975C201.263 125.515 201.063 126.041 200.899 126.576C200.417 128.038 199.938 129.501 199.46 130.965C200.787 130.965 202.116 130.965 203.443 130.965C202.78 128.971 202.116 126.976 201.466 124.977L201.41 124.975Z" fill="#ADB2B4"/>
</g>
<defs>
<clipPath id="clip0_246_689">
<rect width="91" height="128" fill="white" transform="translate(136 9)"/>
</clipPath>
</defs>
</svg>
